<?xml version="1.0" encoding="utf-8"?>
<!-- Generator: Adobe Illustrator 22.0.1, SVG Export Plug-In . SVG Version: 6.00 Build 0)  -->
<svg version="1.1" id="Camada_1" xmlns="http://www.w3.org/2000/svg" xmlns:xlink="http://www.w3.org/1999/xlink" x="0px" y="0px"
	 viewBox="0 0 1015.7 551.7" style="enable-background:new 0 0 1015.7 551.7;" xml:space="preserve">
<style type="text/css">
	.st0{opacity:0.1;fill:#231663;}
	.st1{display:none;}
	.st2{display:inline;fill:url(#SVGID_1_);}
	.st3{display:inline;fill:url(#SVGID_2_);}
	.st4{display:inline;fill:#3B197C;}
	.st5{display:inline;}
	.st6{fill:none;stroke:#231663;stroke-width:5;stroke-miterlimit:10;}
	.st7{clip-path:url(#SVGID_5_);}
	.st8{fill:#FFFFFF;stroke:#231663;stroke-width:5;stroke-miterlimit:10;}
	.st9{fill:#C6AB8B;}
	.st10{fill:#FCDFB6;}
	.st11{fill:url(#SVGID_6_);stroke:#231663;stroke-width:5;stroke-miterlimit:10;}
	.st12{fill:url(#SVGID_7_);}
	.st13{fill:none;stroke:#231663;stroke-width:4;stroke-linecap:round;stroke-linejoin:round;stroke-dasharray:6.9931,6.9931;}
	.st14{fill:#3F25A2;stroke:#231663;stroke-width:4;stroke-miterlimit:10;}
	.st15{fill:url(#SVGID_8_);stroke:#231663;stroke-width:5;stroke-miterlimit:10;}
	.st16{fill:url(#SVGID_9_);stroke:#231663;stroke-width:5;stroke-miterlimit:10;}
	.st17{display:inline;fill:#231663;stroke:#231663;stroke-width:4;stroke-miterlimit:10;}
	.st18{display:inline;fill:#3F25A2;stroke:#231663;stroke-width:4;stroke-miterlimit:10;}
	.st19{fill:url(#SVGID_10_);stroke:#231663;stroke-width:5;stroke-miterlimit:10;}
	.st20{fill:#FFFFFF;}
	.st21{fill:#231663;}
	.st22{fill:#231663;stroke:#231663;stroke-width:4;stroke-miterlimit:10;}
	.st23{fill:none;stroke:#231663;stroke-width:5;stroke-linecap:round;stroke-linejoin:round;stroke-miterlimit:10;}
	.st24{fill:url(#SVGID_11_);stroke:#231663;stroke-width:5;stroke-linecap:round;stroke-linejoin:round;stroke-miterlimit:10;}
	.st25{fill:url(#SVGID_12_);stroke:#231663;stroke-width:5;stroke-linecap:round;stroke-linejoin:round;stroke-miterlimit:10;}
	.st26{fill:url(#SVGID_13_);stroke:#231663;stroke-width:5;stroke-linecap:round;stroke-linejoin:round;stroke-miterlimit:10;}
	.st27{fill:url(#SVGID_14_);stroke:#231663;stroke-width:5;stroke-linecap:round;stroke-linejoin:round;stroke-miterlimit:10;}
	.st28{fill:#C6AB8B;stroke:#231663;stroke-width:4;stroke-miterlimit:10;}
	.st29{fill:#B79D80;}
	.st30{fill:none;stroke:#231663;stroke-width:4;stroke-miterlimit:10;}
	.st31{fill:url(#SVGID_15_);stroke:#231663;stroke-width:4;stroke-linecap:round;stroke-linejoin:round;stroke-miterlimit:10;}
	.st32{fill:url(#SVGID_16_);stroke:#231663;stroke-width:4;stroke-linecap:round;stroke-linejoin:round;stroke-miterlimit:10;}
	.st33{fill:url(#SVGID_17_);stroke:#231663;stroke-width:4;stroke-linecap:round;stroke-linejoin:round;stroke-miterlimit:10;}
	.st34{fill:url(#SVGID_18_);stroke:#231663;stroke-width:4;stroke-linecap:round;stroke-linejoin:round;stroke-miterlimit:10;}
	.st35{fill:url(#SVGID_19_);stroke:#231663;stroke-width:4;stroke-linecap:round;stroke-linejoin:round;stroke-miterlimit:10;}
	.st36{fill:url(#SVGID_20_);stroke:#231663;stroke-width:4;stroke-linecap:round;stroke-linejoin:round;stroke-miterlimit:10;}
	.st37{fill:url(#SVGID_21_);stroke:#231663;stroke-width:4;stroke-linecap:round;stroke-linejoin:round;stroke-miterlimit:10;}
	.st38{opacity:0.5;}
	.st39{fill:url(#SVGID_22_);}
	.st40{fill:url(#SVGID_23_);}
	.st41{fill:url(#SVGID_24_);}
	.st42{fill:url(#SVGID_25_);}
	.st43{fill:url(#SVGID_26_);}
	.st44{fill:url(#SVGID_27_);}
	.st45{fill:url(#SVGID_28_);}
	.st46{fill:url(#SVGID_29_);}
	.st47{fill:url(#SVGID_30_);}
	.st48{fill:url(#SVGID_31_);}
</style>
<path class="st0" d="M959,522.4C959,546,757.5,546,509,546s-450,0-450-23.6c0-22.2,201.5-22.1,450-22.1S959,497.3,959,522.4z"/>
<g class="st1">
	
		<linearGradient id="SVGID_1_" gradientUnits="userSpaceOnUse" x1="96.8585" y1="373.9" x2="974.9" y2="373.9" gradientTransform="matrix(1 0 0 1 0 -104)">
		<stop  offset="0" style="stop-color:#6E19BF"/>
		<stop  offset="1" style="stop-color:#5129D7"/>
	</linearGradient>
	<path class="st2" d="M962-136.9c0.6-0.4,5.9-3.7,10.6-6.5l2.3-1.4l-1.6-2.2c-0.9-1.2-5.4-7.2-8.4-8.7c-11-5.7-44.1-10.1-45.5-10.3
		l-1-0.1l-0.8,0.6c-2.3,1.7-13.6,10.6-16,14.4c-4.2,6.9-12,23.2-17.9,35.7c-1.9,4-8.2,8.2-10.5,9.6l-3.2,1.9l14.9,11.6
		c-1.8-0.1-3.6-0.1-5.4-0.1c-2.3,0-4.5,0.1-6.8,0.2l-7.5-7.4l-17.6-36.6l-10-12.7l-52,21.1l10.4,13.4l18.3,39.1
		c-13.6,8.9-22,20.5-22,33c0,7.7,3.2,15,8.8,21.6L841,30.5v84.2c0,18.8-12.8,26.2-29,35.5c-0.9,0.5-1.9,1.1-2.8,1.6
		c-4.7-3.8-8.1-6-8.6-6.3c-1.3-0.8-130.5-80.1-189.3-109.8c-17.9-9.1-32.3,0.1-43.8,7.5c-1.7,1.1-3.3,2.1-4.9,3.1
		c-16.9,10.3-134,81.2-139.4,84.5c-0.9,0.4-1.8,0.8-2.5,1.3c-8.7,5.4-12.6,17.2-12.6,26.6c0,4.7,0,12,0.1,20.6
		c0.1,24.6,0.2,69.1-0.3,77.2l-24.4,14c-1.2,0.7-28.5,17.6-29.4,63c-0.8,41-0.1,118.8,0,130.2c-109.4,62.9-240.4,138.5-244,141.3
		c-12.2,9.6-15.8,18-11.5,27.3c0.6,1.3,1.5,3.4,62.4,37.8c29.8,16.8,59.7,33.4,60,33.5l0.3-0.6c1.2,1.1,2.7,1.9,4.5,2.4
		c1.1,0.3,2.2,0.5,3.2,0.5c3,0,5.7-1.3,7.8-3.8c15.6-8.8,243-138.6,261.9-149.3l22.5,12.7l100-57.3l55.2,31.4v-1.7l168.1-99.8v-1.4
		c0-1.8,2.3-169.5,0.5-220.2c9.5-5.3,18.3-10.3,26.1-15.1c2.8-1.7,5.7-3.4,8.5-5c16.2-9.3,31.5-18.1,31.5-39.8V28.5l43.5-45.8
		c7.6-7.4,12-16,12-25.1c0-16.2-14.1-30.9-35.5-40.2c0.5-0.9,1-1.9,1.4-2.8C944.5-113.4,954.9-131.8,962-136.9z"/>
	
		<linearGradient id="SVGID_2_" gradientUnits="userSpaceOnUse" x1="96.9585" y1="650.3" x2="499.1" y2="650.3" gradientTransform="matrix(1 0 0 1 0 -104)">
		<stop  offset="0" style="stop-color:#3F25A2"/>
		<stop  offset="1" style="stop-color:#A591E2"/>
	</linearGradient>
	<path class="st3" d="M493.8,386.6c-109.4,62.9-380.1,215.7-383.6,218.5c-12.2,9.6-15.8,18-11.5,27.3c0.6,1.3,1.5,3.4,62.4,37.8
		c29.8,16.8,59.7,33.4,60,33.5l0.3-0.6c1.2,1.1,2.7,1.9,4.5,2.4c1.1,0.3,2.2,0.5,3.2,0.5c3,0,5.7-1.3,7.8-3.8
		c15.6-8.8,243-138.6,261.9-149.3l0.3-133.8"/>
	<path class="st4" d="M494.3,387.3c-14.7-47.4-59.8-78.5-88.4-74.2c-30.4,4.6-28.4,47.8-28.4,47.8c0,12.1,0,92.2,0,92.2"/>
	<g class="st5">
		<path class="st6" d="M621.2,505.5l-100,57.3L498.8,550c0,0,0.1-67.3,0.3-130.8c0.3-64.6-58.5-111.3-93.2-106.1
			c-30.4,4.6-28.4,47.8-28.4,47.8c0,12.1,0,92.2,0,92.2"/>
		<path class="st6" d="M410.3,258.1c0.9-3.6,0.4-78.4,0.4-99.4c0-14.8,10.3-33.8,29.4-24.2c59.3,29.9,191.2,111.8,191.2,111.8
			s40,25.5,42.7,60s0,229.1,0,229.1l-52.7-30c0,0,0-105.5,0-131.8s-10.9-80.7-50.9-123.5c-40-42.8-82.7-36.5-82.7-36.5L385,272.7
			c0,0-27.3,16.4-28.2,60.9c-0.9,44.6,0,131.5,0,131.5"/>
		<path class="st6" d="M424.4,133.1c0,0,122.3-74.1,139.6-84.6c12.7-7.7,27.1-20.1,46.2-10.5c59.3,29.9,189.1,109.7,189.1,109.7
			s40,25.5,42.7,60s0,229.1,0,229.1l-167.4,99.5"/>
		<path class="st6" d="M842.2,210.9"/>
		<path class="st6" d="M908.6,14.9"/>
		<path class="st6" d="M842.4,215.1c8.7-4.8,18.2-10.2,27.4-15.8c19.3-11.8,38.9-18.9,38.9-42.7V27.5l45-47.3"/>
		<path class="st6" d="M808.9,154.8c17.8-10.4,34.6-18.1,34.6-40.2V29.5l-42.1-54.1"/>
		<ellipse class="st6" cx="879.5" cy="-42.4" rx="84.7" ry="47.8"/>
		<path class="st6" d="M235.3,700.3c12-6.9,263.5-150.3,263.5-150.3"/>
		<path class="st6" d="M499,521.6c0,0-267.5,155-273.8,159.9"/>
		<path class="st6" d="M493.8,386.6C432.1,421.7,116.9,602.9,111.7,607c-12.1,9.5-14.3,16.6-10.8,24.3
			c1.9,4.2,121.4,70.2,121.4,70.2"/>
		<path class="st6" d="M238.5,693.8c-2.2,7.4-6.7,10.8-11.9,9.3c-5.3-1.5-7.8-6.7-5.6-14.1c2.2-7.4,8.2-12.2,13.5-10.6
			C239.7,679.9,240.7,686.4,238.5,693.8z"/>
		<line class="st6" x1="234.4" y1="678.4" x2="110.2" y2="608.2"/>
		<line class="st6" x1="299.6" y1="638.5" x2="176.5" y2="569"/>
		<line class="st6" x1="341.6" y1="613.2" x2="220.1" y2="543.8"/>
		<line class="st6" x1="389.9" y1="585.9" x2="266.9" y2="516.5"/>
		<line class="st6" x1="436.1" y1="558.6" x2="313.1" y2="489.2"/>
		<line class="st6" x1="476" y1="535.5" x2="353" y2="466.1"/>
		<path class="st6" d="M564.8,537.8V408.3c-1.1-15.6-3.5-58.9-23.1-92.4c-24-40.9-68.7-71.5-105.7-72.7"/>
		<g>
			<g>
				<g>
					<g>
						<defs>
							<ellipse id="SVGID_4_" cx="879.5" cy="-44" rx="70.7" ry="38.3"/>
						</defs>
						<clipPath id="SVGID_5_">
							<use xlink:href="#SVGID_4_"  style="overflow:visible;"/>
						</clipPath>
						<g class="st7">
							<path class="st8" d="M919.3-41.4L870-62.7c0,0-20.5,18.4-26.1,25.9C837.9-28.8,825-2,825-2l39.6,16.4l5.5,2.2l10.5-4.2
								c0,0,10.2-21.5,13.7-25.1C900.9-19.6,919.3-41.4,919.3-41.4z"/>
						</g>
					</g>
				</g>
				<g>
					<ellipse id="SVGID_3_" class="st6" cx="879.5" cy="-44" rx="70.7" ry="38.3"/>
				</g>
			</g>
			<g>
				<path class="st8" d="M874.5-103.8l42.7,33.2c0,0,9.4-7.2,13.1-15.8c7.4-17.5,20.4-45.4,30.3-52.6c1-0.7,10.8-6.7,10.8-6.7
					s-4.9-6.6-7.5-8c-10.7-5.5-44.7-10.1-44.7-10.1s-13.2,10.2-15.4,13.9c-4.3,7-12.6,24.5-17.7,35.4
					C883.4-108.9,874.5-103.8,874.5-103.8z"/>
				<polygon class="st8" points="845.5,-135.2 836.8,-146.2 789.6,-127.1 798.2,-115.7 817.3,-75 827.6,-63.1 873.4,-88.3 
					863.2,-98.5 				"/>
			</g>
		</g>
		<line class="st6" x1="498.8" y1="502.8" x2="392.7" y2="445"/>
		<line class="st6" x1="498.9" y1="458" x2="432.6" y2="421.9"/>
		<line class="st6" x1="499" y1="414.4" x2="470.4" y2="398.8"/>
		<line class="st6" x1="257.6" y1="661.6" x2="134.5" y2="592.1"/>
	</g>
	<g class="st5">
		<polygon class="st9" points="365.1,399.8 280.1,448.5 280.1,534 363.6,584.7 448.6,534.5 448.6,450.5 		"/>
		<g>
			<polygon class="st6" points="365.1,399.8 280.1,448.5 280.1,534 363.6,584.7 448.6,534.5 448.6,450.5 			"/>
			<polyline class="st6" points="448.6,450.5 363.6,498.9 280.1,448.5 			"/>
			<line class="st6" x1="363.6" y1="584.7" x2="363.6" y2="498.9"/>
			<polyline class="st6" points="448.6,470.1 364.3,520.8 280.1,470.1 			"/>
		</g>
	</g>
	<g class="st5">
		<polygon class="st10" points="221.6,535.2 165.6,567.3 165.6,623.6 220.6,657 276.6,623.9 276.6,568.6 		"/>
		<g>
			<polygon class="st6" points="221.6,535.2 165.6,567.3 165.6,623.6 220.6,657 276.6,623.9 276.6,568.6 			"/>
			<polyline class="st6" points="276.6,568.6 220.6,600.5 165.6,567.3 			"/>
			<line class="st6" x1="220.6" y1="657" x2="220.6" y2="600.5"/>
			<polyline class="st6" points="276.6,581.5 221.1,614.9 165.6,581.5 			"/>
		</g>
	</g>
</g>
<g>
	<g>
		<g>
			<linearGradient id="SVGID_6_" gradientUnits="userSpaceOnUse" x1="305.3666" y1="469.6631" x2="950.7795" y2="469.6631">
				<stop  offset="0" style="stop-color:#6E19BF"/>
				<stop  offset="1" style="stop-color:#5129D7"/>
			</linearGradient>
			<path class="st11" d="M914.7,505.8H341.5c-19.9,0-36.1-16.3-36.1-36.1v0c0-19.9,16.3-36.1,36.1-36.1h573.2
				c19.9,0,36.1,16.3,36.1,36.1v0C950.8,489.5,934.5,505.8,914.7,505.8z"/>
			<g>
				<linearGradient id="SVGID_7_" gradientUnits="userSpaceOnUse" x1="448.2701" y1="469.6631" x2="941.3364" y2="469.6631">
					<stop  offset="0" style="stop-color:#6E19BF"/>
					<stop  offset="1" style="stop-color:#5129D7"/>
				</linearGradient>
				<path class="st12" d="M913.7,497.3H475.9c-15.2,0-27.6-12.4-27.6-27.6v0c0-15.2,12.4-27.6,27.6-27.6h437.9
					c15.2,0,27.6,12.4,27.6,27.6v0C941.3,484.8,928.9,497.3,913.7,497.3z"/>
				<path class="st13" d="M913.7,497.3H475.9c-15.2,0-27.6-12.4-27.6-27.6v0c0-15.2,12.4-27.6,27.6-27.6h437.9
					c15.2,0,27.6,12.4,27.6,27.6v0C941.3,484.8,928.9,497.3,913.7,497.3z"/>
			</g>
			<g>
				<circle class="st14" cx="916" cy="469.2" r="25.3"/>
				<linearGradient id="SVGID_8_" gradientUnits="userSpaceOnUse" x1="912.8002" y1="469.2498" x2="919.2808" y2="469.2498">
					<stop  offset="0" style="stop-color:#6E19BF"/>
					<stop  offset="1" style="stop-color:#5129D7"/>
				</linearGradient>
				<circle class="st15" cx="916" cy="469.2" r="3.2"/>
			</g>
			<g>
				<circle class="st14" cx="845.4" cy="469.7" r="15.8"/>
				<circle class="st14" cx="785.4" cy="469.7" r="15.8"/>
				<circle class="st14" cx="725.4" cy="469.7" r="15.8"/>
				<circle class="st14" cx="665.4" cy="469.7" r="15.8"/>
				<circle class="st14" cx="605.4" cy="469.7" r="15.8"/>
			</g>
		</g>
		<linearGradient id="SVGID_9_" gradientUnits="userSpaceOnUse" x1="220.2114" y1="343.3396" x2="590.5218" y2="343.3396">
			<stop  offset="0" style="stop-color:#6E19BF"/>
			<stop  offset="1" style="stop-color:#5129D7"/>
		</linearGradient>
		<path class="st16" d="M578.5,528.5H232.2c-6.6,0-12-5.4-12-12V170.2c0-6.6,5.4-12,12-12h346.3c6.6,0,12,5.4,12,12v346.3
			C590.5,523.1,585.1,528.5,578.5,528.5z"/>
		<g class="st1">
			<circle class="st17" cx="262" cy="205.7" r="11.7"/>
			<circle class="st17" cx="299.2" cy="205.7" r="11.7"/>
			<circle class="st18" cx="336.3" cy="205.7" r="11.7"/>
			<path class="st18" d="M346.6,248.2h-90.3c-3.3,0-5.9-2.7-5.9-5.9v-0.2c0-3.3,2.7-5.9,5.9-5.9h90.3c3.3,0,5.9,2.7,5.9,5.9v0.2
				C352.5,245.5,349.8,248.2,346.6,248.2z"/>
			<path class="st18" d="M346.6,267.7h-90.3c-3.3,0-5.9-2.7-5.9-5.9v-0.2c0-3.3,2.7-5.9,5.9-5.9h90.3c3.3,0,5.9,2.7,5.9,5.9v0.2
				C352.5,265,349.8,267.7,346.6,267.7z"/>
			<path class="st18" d="M346.6,287.1h-90.3c-3.3,0-5.9-2.7-5.9-5.9V281c0-3.3,2.7-5.9,5.9-5.9h90.3c3.3,0,5.9,2.7,5.9,5.9v0.2
				C352.5,284.5,349.8,287.1,346.6,287.1z"/>
		</g>
		<g>
			<linearGradient id="SVGID_10_" gradientUnits="userSpaceOnUse" x1="28.7871" y1="295.0135" x2="220.2114" y2="295.0135">
				<stop  offset="0" style="stop-color:#6E19BF"/>
				<stop  offset="1" style="stop-color:#5129D7"/>
			</linearGradient>
			<path class="st19" d="M129.6,244.6l59.1-50.2H28.8l59.1,50.2v18.6c0,73.1,59.2,132.3,132.3,132.3h0v-42.2h0
				c-50,0-90.6-40.6-90.6-90.6V244.6z"/>
		</g>
		<g>
			<g>
				<path class="st20" d="M135.5,106.9c-0.5,0-1.1-0.2-1.5-0.5L91.3,73.2c-0.7-0.5-1-1.3-1-2.1s0.5-1.6,1.2-2
					c2.3-1.3,8.7-5.6,10.6-9.6c8.7-18.7,14.6-30.3,17.8-35.6c2.3-3.9,13.7-12.8,16-14.6c0.4-0.3,1-0.5,1.5-0.5c0.1,0,0.2,0,0.3,0
					c1.4,0.2,34.6,4.7,45.5,10.4c3,1.6,7.5,7.6,8.4,8.7c0.4,0.6,0.6,1.3,0.4,2c-0.1,0.7-0.6,1.3-1.1,1.7c-3.8,2.3-10,6.1-10.7,6.6
					c-7,5.1-17.7,23.9-29.4,51.5c-3.9,9.1-13.5,16.5-13.9,16.8C136.6,106.7,136.1,106.9,135.5,106.9z"/>
				<path class="st21" d="M137.5,11.2c0,0,34,4.6,44.7,10.1c2.6,1.4,7.5,8,7.5,8s-9.8,6-10.8,6.7c-9.9,7.2-22.9,35.1-30.3,52.6
					c-3.7,8.6-13.1,15.8-13.1,15.8L92.8,71.2c0,0,8.9-5.1,11.6-10.7c5.1-10.9,13.4-28.4,17.7-35.4C124.3,21.4,137.5,11.2,137.5,11.2
					 M137.5,6.2c-1.1,0-2.2,0.4-3.1,1c-3.3,2.5-14.1,11.1-16.6,15.3c-3.3,5.4-9.2,17.1-17.9,35.8c-1.5,3-6.7,6.8-9.6,8.5
					c-1.4,0.8-2.4,2.3-2.5,4c-0.1,1.7,0.6,3.3,1.9,4.3l42.7,33.2c0.9,0.7,2,1.1,3.1,1.1c1.1,0,2.1-0.3,3-1
					c0.4-0.3,10.5-8.1,14.7-17.8c11.3-26.8,22-45.7,28.6-50.5c0.7-0.5,5.9-3.7,10.5-6.5c1.2-0.7,2-1.9,2.3-3.3
					c0.3-1.4-0.1-2.8-0.9-3.9c-1.7-2.3-5.9-7.7-9.1-9.4c0,0-0.1,0-0.1,0c-11.1-5.7-42.7-10.1-46.3-10.6C138,6.2,137.7,6.2,137.5,6.2
					L137.5,6.2z"/>
			</g>
			<g>
				<path class="st20" d="M45.9,114.4c-0.7,0-1.4-0.3-1.9-0.9l-10.3-11.9c-0.2-0.2-0.3-0.4-0.4-0.6l-19-40.5L5.9,49.4
					c-0.5-0.6-0.6-1.4-0.4-2.2c0.2-0.7,0.8-1.4,1.5-1.7l47.2-19.1c0.3-0.1,0.6-0.2,0.9-0.2c0.7,0,1.5,0.3,2,0.9l8.7,11
					c0.1,0.1,0.2,0.3,0.3,0.5L83.6,75l9.9,9.9c0.6,0.6,0.8,1.3,0.7,2.1c-0.1,0.8-0.6,1.5-1.3,1.8l-45.8,25.2
					C46.7,114.3,46.3,114.4,45.9,114.4z"/>
				<path class="st21" d="M55.1,28.8l8.7,11l17.7,36.7l10.2,10.2l-45.8,25.2L35.6,100L16.5,59.3L7.9,47.9L55.1,28.8 M55.1,23.8
					c-0.6,0-1.3,0.1-1.9,0.4L6,43.3c-1.4,0.6-2.5,1.8-2.9,3.3c-0.4,1.5-0.1,3.1,0.8,4.3l8.3,11l18.9,40.2c0.2,0.4,0.4,0.8,0.7,1.1
					l10.3,11.9c1,1.1,2.4,1.7,3.8,1.7c0.8,0,1.6-0.2,2.4-0.6l45.8-25.2c1.4-0.8,2.3-2.1,2.5-3.7s-0.3-3.1-1.4-4.2l-9.6-9.6
					L68.3,37.6c-0.2-0.3-0.4-0.6-0.6-0.9l-8.7-11C58.1,24.5,56.6,23.8,55.1,23.8L55.1,23.8z"/>
			</g>
			<g>
				<g>
					<path class="st20" d="M88.4,194.1c-0.3,0-0.6-0.1-0.9-0.2l-5.5-2.2l-39.6-16.4c-0.6-0.3-1.1-0.8-1.4-1.4
						c-0.2-0.6-0.2-1.4,0.1-2c0.5-1.1,13.1-27.1,19.2-35.2c5.7-7.6,25.6-25.5,26.4-26.3c0.5-0.4,1.1-0.6,1.7-0.6
						c0.3,0,0.7,0.1,1,0.2l49.3,21.3c0.7,0.3,1.3,1,1.4,1.7s0,1.6-0.5,2.2c-0.8,0.9-18.5,21.9-25.1,28.8
						c-2.3,2.4-9.3,18.6-13.2,28.3c-0.4,0.9-1.3,1.6-2.3,1.6C99,193.9,88.4,194.1,88.4,194.1z"/>
					<path class="st21" d="M88.3,112.3l49.3,21.3c0,0-18.4,21.8-25,28.7c-3.5,3.6-13.7,29.1-13.7,29.1l-10.5,0.2l-5.5-2.2L43.3,173
						c0,0,12.9-26.8,18.9-34.8C67.8,130.7,88.3,112.3,88.3,112.3 M88.3,107.3c-1.2,0-2.4,0.4-3.3,1.3c-0.9,0.8-20.9,18.8-26.8,26.6
						c-6.2,8.3-18.9,34.5-19.4,35.6c-0.6,1.2-0.7,2.7-0.2,4c0.5,1.3,1.5,2.3,2.8,2.8L81,194c0,0,0,0,0.1,0l5.5,2.2
						c0.6,0.2,1.2,0.4,1.9,0.4c0,0,0.1,0,0.1,0l10.5-0.2c2,0,3.8-1.3,4.5-3.1c4.6-11.6,10.8-25.4,12.7-27.5
						c6.6-6.9,24.5-28,25.2-28.9c1-1.2,1.4-2.8,1-4.4c-0.4-1.5-1.4-2.8-2.9-3.4l-49.3-21.3C89.7,107.4,89,107.3,88.3,107.3
						L88.3,107.3z"/>
				</g>
			</g>
		</g>
	</g>
</g>
<path class="st22" d="M554.6,339.3H384.5c-6.6,0-12-5.4-12-12V203.6c0-6.6,5.4-12,12-12h170.1c6.6,0,12,5.4,12,12v123.7
	C566.6,333.9,561.2,339.3,554.6,339.3z"/>
<g>
	<g>
		<rect x="239.7" y="191.6" class="st22" width="36.5" height="30.5"/>
		<rect x="275.5" y="191.6" class="st14" width="36.5" height="30.5"/>
		<rect x="312.1" y="191.6" class="st14" width="36.5" height="30.5"/>
		<rect x="239.7" y="220.9" class="st14" width="36.5" height="30.5"/>
		<rect x="275.5" y="220.9" class="st14" width="36.5" height="30.5"/>
		<rect x="312.1" y="220.9" class="st22" width="36.5" height="30.5"/>
		<rect x="239.7" y="250.2" class="st14" width="36.5" height="30.5"/>
		<rect x="275.5" y="250.2" class="st14" width="36.5" height="30.5"/>
		<rect x="311.8" y="250.2" class="st14" width="36.5" height="30.5"/>
	</g>
	<g>
		<rect x="239.7" y="250.2" class="st22" width="36.5" height="30.5"/>
		<rect x="275.5" y="250.2" class="st14" width="36.5" height="30.5"/>
		<rect x="312.1" y="250.2" class="st14" width="36.5" height="30.5"/>
		<rect x="239.7" y="279.6" class="st14" width="36.5" height="30.5"/>
		<rect x="275.5" y="279.6" class="st14" width="36.5" height="30.5"/>
		<rect x="312.1" y="279.6" class="st22" width="36.5" height="30.5"/>
		<rect x="239.7" y="308.9" class="st14" width="36.5" height="30.5"/>
		<rect x="275.5" y="308.9" class="st14" width="36.5" height="30.5"/>
		<rect x="311.8" y="308.9" class="st14" width="36.5" height="30.5"/>
	</g>
</g>
<g>
	<g>
		<circle class="st14" cx="550.4" cy="403.7" r="10.4"/>
		<circle class="st14" cx="517.3" cy="403.7" r="10.4"/>
		<circle class="st14" cx="484.2" cy="403.7" r="10.4"/>
		<path class="st22" d="M479.5,441.5h51.9c2.4,0,4.3-1.9,4.3-4.3v-2.1c0-2.4-1.9-4.3-4.3-4.3h-51.9c-2.4,0-4.3,1.9-4.3,4.3v2.1
			C475.2,439.6,477.1,441.5,479.5,441.5z"/>
		<path class="st22" d="M479.5,467.8h51.9c2.4,0,4.3-1.9,4.3-4.3v-2.1c0-2.4-1.9-4.3-4.3-4.3h-51.9c-2.4,0-4.3,1.9-4.3,4.3v2.1
			C475.2,465.8,477.1,467.8,479.5,467.8z"/>
		<path class="st14" d="M479.5,494h51.9c2.4,0,4.3-1.9,4.3-4.3v-2.1c0-2.4-1.9-4.3-4.3-4.3h-51.9c-2.4,0-4.3,1.9-4.3,4.3v2.1
			C475.2,492.1,477.1,494,479.5,494z"/>
		<path class="st22" d="M552.8,494.4h3.7c4,0,7.3-3.3,7.3-7.3v-48.7c0-4-3.3-7.3-7.3-7.3h-3.7c-4,0-7.3,3.3-7.3,7.3v48.7
			C545.5,491.1,548.8,494.4,552.8,494.4z"/>
	</g>
	<g>
		<circle class="st22" cx="256.8" cy="403.7" r="10.4"/>
		<circle class="st22" cx="289.9" cy="403.7" r="10.4"/>
		<circle class="st22" cx="323" cy="403.7" r="10.4"/>
		<path class="st22" d="M332.2,441.5h-51.9c-2.4,0-4.3-1.9-4.3-4.3v-2.1c0-2.4,1.9-4.3,4.3-4.3h51.9c2.4,0,4.3,1.9,4.3,4.3v2.1
			C336.5,439.6,334.5,441.5,332.2,441.5z"/>
		<path class="st14" d="M332.2,467.8h-51.9c-2.4,0-4.3-1.9-4.3-4.3v-2.1c0-2.4,1.9-4.3,4.3-4.3h51.9c2.4,0,4.3,1.9,4.3,4.3v2.1
			C336.5,465.8,334.5,467.8,332.2,467.8z"/>
		<path class="st14" d="M332.2,494h-51.9c-2.4,0-4.3-1.9-4.3-4.3v-2.1c0-2.4,1.9-4.3,4.3-4.3h51.9c2.4,0,4.3,1.9,4.3,4.3v2.1
			C336.5,492.1,334.5,494,332.2,494z"/>
		<path class="st14" d="M258.9,494.4h-3.7c-4,0-7.3-3.3-7.3-7.3v-48.7c0-4,3.3-7.3,7.3-7.3h3.7c4,0,7.3,3.3,7.3,7.3v48.7
			C266.1,491.1,262.9,494.4,258.9,494.4z"/>
	</g>
	<g>
		<g>
			<rect x="365.6" y="389.2" class="st22" width="26.5" height="22.3"/>
			<rect x="391.6" y="389.2" class="st22" width="26.5" height="22.3"/>
			<rect x="418.2" y="389.2" class="st22" width="26.5" height="22.3"/>
			<rect x="365.6" y="410.7" class="st14" width="26.5" height="22.3"/>
			<rect x="391.6" y="410.7" class="st14" width="26.5" height="22.3"/>
			<rect x="418.2" y="410.7" class="st22" width="26.5" height="22.3"/>
			<rect x="365.6" y="432.1" class="st14" width="26.5" height="22.3"/>
			<rect x="391.6" y="432.1" class="st14" width="26.5" height="22.3"/>
			<rect x="417.9" y="432.1" class="st14" width="26.5" height="22.3"/>
		</g>
		<g>
			<rect x="365.6" y="432.1" class="st14" width="26.5" height="22.3"/>
			<rect x="391.6" y="432.1" class="st14" width="26.5" height="22.3"/>
			<rect x="418.2" y="432.1" class="st14" width="26.5" height="22.3"/>
			<rect x="365.6" y="453.6" class="st14" width="26.5" height="22.3"/>
			<rect x="391.6" y="453.6" class="st14" width="26.5" height="22.3"/>
			<rect x="418.2" y="453.6" class="st14" width="26.5" height="22.3"/>
			<rect x="365.6" y="475.1" class="st14" width="26.5" height="22.3"/>
			<rect x="391.6" y="475.1" class="st14" width="26.5" height="22.3"/>
			<rect x="417.9" y="475.1" class="st14" width="26.5" height="22.3"/>
		</g>
	</g>
</g>
<path class="st22" d="M590.5,368.3H220.2"/>
<path class="st23" d="M227.2,392.6"/>
<path class="st23" d="M96.9,258.3c0,27.4,8.3,52.9,22.6,74"/>
<linearGradient id="SVGID_11_" gradientUnits="userSpaceOnUse" x1="232.2114" y1="168.1845" x2="468.5218" y2="168.1845">
	<stop  offset="0" style="stop-color:#6E19BF"/>
	<stop  offset="1" style="stop-color:#5129D7"/>
</linearGradient>
<path class="st24" d="M232.2,168.2h236.3"/>
<linearGradient id="SVGID_12_" gradientUnits="userSpaceOnUse" x1="494.6277" y1="168.1845" x2="566.4252" y2="168.1845">
	<stop  offset="0" style="stop-color:#6E19BF"/>
	<stop  offset="1" style="stop-color:#5129D7"/>
</linearGradient>
<path class="st25" d="M494.6,168.2h71.8"/>
<linearGradient id="SVGID_13_" gradientUnits="userSpaceOnUse" x1="124.4993" y1="204.5" x2="163.5" y2="204.5">
	<stop  offset="0" style="stop-color:#6E19BF"/>
	<stop  offset="1" style="stop-color:#5129D7"/>
</linearGradient>
<line class="st26" x1="124.5" y1="204.5" x2="163.5" y2="204.5"/>
<linearGradient id="SVGID_14_" gradientUnits="userSpaceOnUse" x1="108.1816" y1="204.5" x2="115" y2="204.5">
	<stop  offset="0" style="stop-color:#6E19BF"/>
	<stop  offset="1" style="stop-color:#5129D7"/>
</linearGradient>
<line class="st27" x1="115" y1="204.5" x2="108.2" y2="204.5"/>
<path class="st23" d="M124.2,338.3c0,0,1.7,3.7,7.3,8.6"/>
<g>
	<g>
		<rect x="628.1" y="313.1" class="st28" width="125" height="120"/>
		<rect x="628.1" y="313.1" class="st29" width="63.6" height="120"/>
		<line class="st22" x1="628.1" y1="339.3" x2="753.1" y2="339.3"/>
		<rect x="628.1" y="313.1" class="st30" width="125" height="120"/>
	</g>
	<g>
		<linearGradient id="SVGID_15_" gradientUnits="userSpaceOnUse" x1="634.75" y1="369.5135" x2="634.75" y2="369.5135">
			<stop  offset="0" style="stop-color:#6E19BF"/>
			<stop  offset="1" style="stop-color:#5129D7"/>
		</linearGradient>
		<polyline class="st31" points="634.8,345.8 634.8,383.2 634.8,388.2 634.8,393.3 		"/>
		<linearGradient id="SVGID_16_" gradientUnits="userSpaceOnUse" x1="634.75" y1="400.4594" x2="634.75" y2="400.4594">
			<stop  offset="0" style="stop-color:#6E19BF"/>
			<stop  offset="1" style="stop-color:#5129D7"/>
		</linearGradient>
		<line class="st32" x1="634.8" y1="399.2" x2="634.8" y2="401.7"/>
		<linearGradient id="SVGID_17_" gradientUnits="userSpaceOnUse" x1="688.25" y1="319.5" x2="746.25" y2="319.5">
			<stop  offset="0" style="stop-color:#6E19BF"/>
			<stop  offset="1" style="stop-color:#5129D7"/>
		</linearGradient>
		<line class="st33" x1="746.2" y1="319.5" x2="688.2" y2="319.5"/>
		<linearGradient id="SVGID_18_" gradientUnits="userSpaceOnUse" x1="673.5" y1="319.5" x2="681.2084" y2="319.5">
			<stop  offset="0" style="stop-color:#6E19BF"/>
			<stop  offset="1" style="stop-color:#5129D7"/>
		</linearGradient>
		<line class="st34" x1="681.2" y1="319.5" x2="673.5" y2="319.5"/>
	</g>
</g>
<g>
	<g>
		<rect x="783.5" y="365.3" class="st9" width="70.6" height="67.8"/>
		<rect x="783.5" y="365.3" class="st29" width="35.3" height="67.8"/>
		<line class="st22" x1="783.5" y1="380.1" x2="854.1" y2="380.1"/>
		<rect x="783.5" y="365.3" class="st30" width="70.6" height="67.8"/>
	</g>
	<g>
		<linearGradient id="SVGID_19_" gradientUnits="userSpaceOnUse" x1="819.2264" y1="386.375" x2="848.625" y2="386.375">
			<stop  offset="0" style="stop-color:#6E19BF"/>
			<stop  offset="1" style="stop-color:#5129D7"/>
		</linearGradient>
		<line class="st35" x1="848.6" y1="386.4" x2="819.2" y2="386.4"/>
		<linearGradient id="SVGID_20_" gradientUnits="userSpaceOnUse" x1="808.75" y1="386.375" x2="812.6572" y2="386.375">
			<stop  offset="0" style="stop-color:#6E19BF"/>
			<stop  offset="1" style="stop-color:#5129D7"/>
		</linearGradient>
		<line class="st36" x1="812.7" y1="386.4" x2="808.8" y2="386.4"/>
		<linearGradient id="SVGID_21_" gradientUnits="userSpaceOnUse" x1="788.75" y1="371.5135" x2="796.25" y2="371.5135">
			<stop  offset="0" style="stop-color:#6E19BF"/>
			<stop  offset="1" style="stop-color:#5129D7"/>
		</linearGradient>
		<line class="st37" x1="788.8" y1="371.5" x2="796.2" y2="371.5"/>
	</g>
</g>
<g>
	<g>
		<path class="st21" d="M125.5,39.8c-0.2,0.4-0.4,0.7-0.8,0.8c-0.4,0.1-0.7,0-1-0.2c-0.2-0.1-0.3-0.3-0.4-0.5
			c-0.1-0.2-0.2-0.4-0.3-0.6c-0.1-0.2-0.1-0.4-0.1-0.7c0-0.2,0.1-0.5,0.1-0.7c0.1-0.2,0.2-0.4,0.3-0.5c0.1-0.1,0.3-0.2,0.5-0.3
			c0.2-0.1,0.3-0.1,0.5,0c0.2,0,0.4,0.1,0.5,0.2c0.3,0.2,0.6,0.6,0.7,1.1C125.7,38.9,125.7,39.4,125.5,39.8z"/>
	</g>
	<g>
		<path class="st21" d="M134.3,37.5c-0.1-0.4-0.2-0.8-0.4-1.2c-0.2-0.4-0.5-0.7-0.7-0.9c-0.1-0.1-0.3-0.2-0.4-0.3
			c-0.2-0.1-0.3-0.1-0.5-0.1c-0.1,0-0.3,0-0.4,0.1c-0.1,0.1-0.2,0.2-0.3,0.5c-0.1,0.2-0.1,0.4-0.1,0.5c0,0.2,0.1,0.3,0.1,0.5
			c0.1,0.2,0.2,0.4,0.3,0.6c0.1,0.2,0.3,0.4,0.5,0.7c0.2,0.3,0.5,0.7,0.8,1.1s0.5,0.8,0.6,1.3c0.2,0.4,0.3,0.9,0.3,1.4
			c0,0.5-0.1,1-0.3,1.6c-0.2,0.6-0.6,1.1-0.9,1.5c-0.4,0.3-0.8,0.5-1.2,0.6c-0.4,0.1-0.9,0-1.3-0.1c-0.5-0.2-0.9-0.4-1.3-0.7
			c-0.6-0.5-1.2-1-1.6-1.8c-0.5-0.7-0.8-1.5-1-2.3l2.1-0.8c0.1,0.5,0.3,1,0.5,1.5c0.3,0.5,0.6,0.9,0.9,1.1c0.2,0.1,0.3,0.2,0.5,0.3
			c0.2,0.1,0.3,0.1,0.5,0.1c0.1,0,0.3-0.1,0.4-0.2c0.1-0.1,0.2-0.3,0.3-0.5c0.1-0.2,0.1-0.4,0.1-0.6c0-0.2-0.1-0.4-0.2-0.7
			c-0.1-0.2-0.3-0.5-0.4-0.8c-0.2-0.3-0.4-0.6-0.6-0.9c-0.2-0.3-0.5-0.7-0.7-1c-0.2-0.4-0.4-0.7-0.5-1.1c-0.1-0.4-0.2-0.8-0.2-1.3
			c0-0.4,0.1-0.9,0.3-1.4c0.2-0.6,0.5-1.1,0.9-1.4c0.4-0.3,0.8-0.5,1.2-0.5c0.4,0,0.9,0,1.3,0.2c0.5,0.2,0.9,0.4,1.3,0.7
			c0.5,0.4,0.9,0.9,1.4,1.5c0.4,0.6,0.7,1.3,1,2L134.3,37.5z"/>
	</g>
	<g>
		<path class="st21" d="M140.7,41.5l-3.4,8.9l-2.1-1.6l3.4-8.9l-2.5-1.8l0.9-2.3l7,5.2l-0.9,2.3L140.7,41.5z"/>
	</g>
	<g>
		<path class="st21" d="M146.6,51.2l-1.8,4.7l-2.1-1.6l1.8-4.7l-0.8-8.9l2.5,1.9l0.3,5.5l3.4-2.8l2.5,1.8L146.6,51.2z"/>
	</g>
	<g>
		<path class="st21" d="M148.8,58.9l4.3-11.2l2.1,1.6l-3.4,8.8l3.4,2.5l-0.9,2.4L148.8,58.9z"/>
	</g>
</g>
<g>
	<g>
		<path class="st21" d="M37.4,77.7c0.2,0.4,0.2,0.9,0,1.3c-0.2,0.4-0.4,0.8-0.8,0.9c-0.2,0.1-0.4,0.2-0.6,0.2c-0.2,0-0.4,0-0.6-0.1
			c-0.2-0.1-0.3-0.2-0.5-0.3c-0.1-0.1-0.2-0.3-0.3-0.6c-0.1-0.2-0.1-0.4-0.1-0.7c0-0.2,0-0.4,0.1-0.7c0.1-0.2,0.2-0.4,0.3-0.6
			c0.1-0.2,0.3-0.3,0.5-0.4c0.4-0.2,0.7-0.2,1.1-0.1C37,77,37.2,77.3,37.4,77.7z"/>
	</g>
	<g>
		<path class="st21" d="M43.9,66.6c0.2,0.7,0.3,1.3,0.3,1.8c0,0.6-0.2,1.1-0.4,1.5c-0.2,0.5-0.6,0.9-1,1.2c-0.4,0.4-0.9,0.7-1.3,0.9
			l-1.1,0.6l1.5,4.3l-2.3,1.2L35.4,67l3.5-1.8c0.5-0.3,1-0.5,1.5-0.6c0.5-0.1,1-0.1,1.4,0c0.4,0.1,0.8,0.3,1.2,0.6
			C43.3,65.5,43.6,66,43.9,66.6z M41.6,67.8c-0.1-0.3-0.2-0.5-0.4-0.6c-0.2-0.1-0.3-0.2-0.5-0.2c-0.2,0-0.4,0-0.6,0.1
			c-0.2,0.1-0.4,0.2-0.6,0.3l-1,0.5l1,2.7l1-0.5c0.2-0.1,0.4-0.2,0.6-0.4c0.2-0.1,0.3-0.3,0.4-0.5c0.1-0.2,0.2-0.4,0.2-0.6
			C41.7,68.4,41.7,68.1,41.6,67.8z"/>
	</g>
	<g>
		<path class="st21" d="M54.9,67.2c0,0.7-0.1,1.3-0.3,1.9c-0.2,0.6-0.5,1.1-0.9,1.6c-0.4,0.5-0.9,0.9-1.6,1.2
			c-0.6,0.3-1.2,0.5-1.8,0.6c-0.6,0-1.1,0-1.6-0.3c-0.5-0.2-0.9-0.6-1.3-1c-0.4-0.5-0.7-1-1-1.7l-2.6-7l2.3-1.2l2.5,6.8
			c0.1,0.3,0.3,0.6,0.4,0.8c0.2,0.2,0.4,0.4,0.6,0.6c0.2,0.1,0.5,0.2,0.7,0.2c0.3,0,0.6-0.1,0.9-0.2c0.3-0.2,0.6-0.4,0.8-0.6
			c0.2-0.2,0.3-0.5,0.4-0.8c0.1-0.3,0.1-0.6,0-0.9c0-0.3-0.1-0.6-0.2-0.9l-2.5-6.8l2.3-1.2l2.6,7C54.8,65.9,54.9,66.5,54.9,67.2z"/>
	</g>
	<g>
		<path class="st21" d="M64.7,64.9c-0.6,0.5-1.2,1-1.9,1.3c-0.8,0.4-1.5,0.6-2.2,0.7c-0.7,0.1-1.4-0.1-2.1-0.3
			c-0.6-0.3-1.2-0.7-1.8-1.3c-0.5-0.6-0.9-1.3-1.3-2.2c-0.3-0.9-0.5-1.8-0.5-2.7c0-0.9,0.1-1.7,0.4-2.5c0.3-0.8,0.7-1.4,1.2-2.1
			c0.5-0.6,1.1-1.1,1.9-1.5c0.7-0.4,1.5-0.6,2.2-0.7c0.7-0.1,1.4,0,2,0.3l-0.7,2.7c-0.3-0.2-0.7-0.3-1.2-0.3s-0.9,0.1-1.3,0.4
			c-0.4,0.2-0.7,0.5-1,0.9c-0.3,0.4-0.5,0.8-0.6,1.2c-0.1,0.4-0.2,0.9-0.2,1.4c0,0.5,0.1,1,0.3,1.5c0.2,0.5,0.4,1,0.7,1.3
			s0.6,0.6,1,0.8c0.4,0.2,0.8,0.3,1.2,0.3c0.4,0,0.9-0.1,1.3-0.4c0.3-0.1,0.5-0.3,0.7-0.5c0.2-0.2,0.4-0.4,0.6-0.6l-0.7-2.1l-1.8,1
			L60,59.4l3.9-2.1l2.2,6C65.7,63.8,65.3,64.4,64.7,64.9z"/>
	</g>
</g>
<g>
	<g>
		<path class="st21" d="M68.4,150.6c-0.1,0.4-0.3,0.6-0.6,0.7s-0.6,0.1-0.9-0.1c-0.2-0.1-0.3-0.2-0.4-0.3c-0.1-0.1-0.2-0.3-0.3-0.5
			c-0.1-0.2-0.1-0.3-0.2-0.5c0-0.2,0-0.4,0-0.5c0-0.2,0.1-0.3,0.2-0.4c0.1-0.1,0.2-0.2,0.3-0.3s0.3-0.1,0.4-0.1c0.2,0,0.3,0,0.5,0.1
			c0.3,0.2,0.5,0.4,0.7,0.8S68.4,150.3,68.4,150.6z"/>
	</g>
	<g>
		<path class="st21" d="M73.4,150.3l-0.9,3.8l-1.9-1l0.9-3.8l-1.7-6.7l2.3,1.2l0.9,4.2l2.5-2.4l2.2,1.2L73.4,150.3z"/>
	</g>
	<g>
		<path class="st21" d="M80.8,158.5l-0.2-2.1l-3.1-1.6l-1,1.5l-2.1-1.1l5.6-7.2l1.9,1l1.1,10.7L80.8,158.5z M80.3,150.8l-1.8,2.5
			l2,1.1L80.3,150.8z"/>
	</g>
	<g>
		<path class="st21" d="M90.8,163.7l1.6-6.3l0,0l-3.6,5.3l-1.3-0.7l-0.4-7.4l0,0l-1.5,6.4l-1.8-1l2.2-9l2.7,1.4l0.4,6.7l0,0l3.2-4.8
			l2.8,1.5l-2.2,9L90.8,163.7z"/>
	</g>
	<g>
		<path class="st21" d="M94.3,165.6l2.2-9l1.9,1l-1.8,7.1l3.1,1.6l-0.5,1.9L94.3,165.6z"/>
	</g>
</g>
<g class="st38">
	<linearGradient id="SVGID_22_" gradientUnits="userSpaceOnUse" x1="687.9332" y1="380.1352" x2="706.7585" y2="380.1352">
		<stop  offset="0" style="stop-color:#6E19BF"/>
		<stop  offset="1" style="stop-color:#5129D7"/>
	</linearGradient>
	<path class="st39" d="M691.5,364.9c-0.5,0-0.9,0-1.4,0.1c-1.3,0.1-2.3,1.3-2.2,2.6c0.1,0.8,0.5,1.5,1.2,1.8v21.5
		c-0.6,0.4-1.1,1-1.2,1.8c-0.1,1.3,0.8,2.5,2.2,2.6c0.5,0,0.9,0.1,1.4,0.1c8.4,0,15.2-6.8,15.2-15.2S699.9,364.9,691.5,364.9z
		 M693.9,390.3v-20.4c4.6,1.1,8.1,5.2,8.1,10.2S698.5,389.2,693.9,390.3z"/>
	<linearGradient id="SVGID_23_" gradientUnits="userSpaceOnUse" x1="676.5956" y1="376.1998" x2="682.0599" y2="376.1998">
		<stop  offset="0" style="stop-color:#6E19BF"/>
		<stop  offset="1" style="stop-color:#5129D7"/>
	</linearGradient>
	<path class="st40" d="M678.5,379.6c0.2,0,0.4,0.1,0.5,0.1c1.1,0,2.1-0.8,2.3-1.9c0.1-0.6,0.3-1.2,0.6-1.7c0.5-1.2-0.1-2.6-1.3-3.1
		c-1.2-0.5-2.6,0.1-3.1,1.3c-0.3,0.8-0.6,1.7-0.8,2.5C676.4,378,677.2,379.3,678.5,379.6z"/>
	<linearGradient id="SVGID_24_" gradientUnits="userSpaceOnUse" x1="680.6541" y1="369.809" x2="687.2304" y2="369.809">
		<stop  offset="0" style="stop-color:#6E19BF"/>
		<stop  offset="1" style="stop-color:#5129D7"/>
	</linearGradient>
	<path class="st41" d="M683,372.9c0.6,0,1.1-0.2,1.6-0.6c0.5-0.4,0.9-0.8,1.5-1.1c1.1-0.7,1.5-2.2,0.8-3.3c-0.7-1.1-2.2-1.5-3.3-0.8
		c-0.8,0.5-1.5,1-2.1,1.6c-1,0.9-1.1,2.4-0.2,3.4C681.7,372.6,682.4,372.9,683,372.9z"/>
	<linearGradient id="SVGID_25_" gradientUnits="userSpaceOnUse" x1="676.5981" y1="384.0814" x2="682.0644" y2="384.0814">
		<stop  offset="0" style="stop-color:#6E19BF"/>
		<stop  offset="1" style="stop-color:#5129D7"/>
	</linearGradient>
	<path class="st42" d="M681.9,384.2c-0.2-0.6-0.4-1.1-0.6-1.7c-0.3-1.3-1.6-2.1-2.9-1.8c-1.3,0.3-2.1,1.6-1.8,2.9
		c0.2,0.9,0.5,1.7,0.8,2.5c0.4,0.9,1.3,1.5,2.2,1.5c0.3,0,0.6-0.1,0.9-0.2C681.8,386.8,682.4,385.4,681.9,384.2z"/>
	<linearGradient id="SVGID_26_" gradientUnits="userSpaceOnUse" x1="680.6619" y1="390.4673" x2="687.2397" y2="390.4673">
		<stop  offset="0" style="stop-color:#6E19BF"/>
		<stop  offset="1" style="stop-color:#5129D7"/>
	</linearGradient>
	<path class="st43" d="M686.1,389.1c-0.5-0.3-1-0.7-1.5-1.1c-1-0.9-2.5-0.8-3.4,0.2c-0.9,1-0.8,2.5,0.2,3.4c0.7,0.6,1.4,1.1,2.1,1.6
		c0.4,0.2,0.8,0.3,1.2,0.3c0.8,0,1.6-0.4,2-1.1C687.6,391.2,687.2,389.8,686.1,389.1z"/>
</g>
<g class="st38">
	<linearGradient id="SVGID_27_" gradientUnits="userSpaceOnUse" x1="816.6686" y1="410.6728" x2="829.5297" y2="410.6728">
		<stop  offset="0" style="stop-color:#6E19BF"/>
		<stop  offset="1" style="stop-color:#5129D7"/>
	</linearGradient>
	<path class="st44" d="M819.1,400.3c-0.3,0-0.6,0-1,0c-0.9,0.1-1.6,0.9-1.5,1.8c0.1,0.5,0.4,1,0.8,1.3V418c-0.4,0.3-0.8,0.7-0.8,1.3
		c-0.1,0.9,0.6,1.7,1.5,1.8c0.3,0,0.6,0,1,0c5.7,0,10.4-4.7,10.4-10.4S824.9,400.3,819.1,400.3z M820.7,417.6v-13.9
		c3.2,0.7,5.5,3.6,5.5,7S823.9,416.9,820.7,417.6z"/>
	<linearGradient id="SVGID_28_" gradientUnits="userSpaceOnUse" x1="808.923" y1="407.9843" x2="812.6561" y2="407.9843">
		<stop  offset="0" style="stop-color:#6E19BF"/>
		<stop  offset="1" style="stop-color:#5129D7"/>
	</linearGradient>
	<path class="st45" d="M810.2,410.3c0.1,0,0.2,0,0.4,0c0.7,0,1.4-0.5,1.6-1.3c0.1-0.4,0.2-0.8,0.4-1.2c0.4-0.8,0-1.8-0.9-2.1
		c-0.8-0.4-1.8,0-2.1,0.9c-0.2,0.6-0.4,1.1-0.6,1.7C808.8,409.2,809.3,410.1,810.2,410.3z"/>
	<linearGradient id="SVGID_29_" gradientUnits="userSpaceOnUse" x1="811.6957" y1="403.6182" x2="816.1885" y2="403.6182">
		<stop  offset="0" style="stop-color:#6E19BF"/>
		<stop  offset="1" style="stop-color:#5129D7"/>
	</linearGradient>
	<path class="st46" d="M813.3,405.7c0.4,0,0.8-0.1,1.1-0.4c0.3-0.3,0.6-0.5,1-0.7c0.8-0.5,1-1.5,0.5-2.2c-0.5-0.8-1.5-1-2.2-0.5
		c-0.5,0.3-1,0.7-1.5,1.1c-0.7,0.6-0.7,1.6-0.2,2.3C812.4,405.5,812.9,405.7,813.3,405.7z"/>
	<linearGradient id="SVGID_30_" gradientUnits="userSpaceOnUse" x1="808.9248" y1="413.3688" x2="812.6592" y2="413.3688">
		<stop  offset="0" style="stop-color:#6E19BF"/>
		<stop  offset="1" style="stop-color:#5129D7"/>
	</linearGradient>
	<path class="st47" d="M812.5,413.5c-0.2-0.4-0.3-0.8-0.4-1.2c-0.2-0.9-1.1-1.4-2-1.2c-0.9,0.2-1.4,1.1-1.2,2
		c0.1,0.6,0.3,1.2,0.6,1.7c0.3,0.6,0.9,1,1.5,1c0.2,0,0.4,0,0.6-0.1C812.5,415.2,812.9,414.3,812.5,413.5z"/>
	<linearGradient id="SVGID_31_" gradientUnits="userSpaceOnUse" x1="811.7011" y1="417.7315" x2="816.1949" y2="417.7315">
		<stop  offset="0" style="stop-color:#6E19BF"/>
		<stop  offset="1" style="stop-color:#5129D7"/>
	</linearGradient>
	<path class="st48" d="M815.4,416.8c-0.4-0.2-0.7-0.5-1-0.7c-0.7-0.6-1.7-0.5-2.3,0.2c-0.6,0.7-0.5,1.7,0.2,2.3
		c0.5,0.4,0.9,0.8,1.5,1.1c0.3,0.2,0.6,0.2,0.8,0.2c0.6,0,1.1-0.3,1.4-0.8C816.4,418.3,816.2,417.3,815.4,416.8z"/>
</g>
</svg>
