<?xml version="1.0" encoding="utf-8"?>
<!-- Generator: Adobe Illustrator 22.0.1, SVG Export Plug-In . SVG Version: 6.00 Build 0)  -->
<svg version="1.1" id="Camada_1" xmlns="http://www.w3.org/2000/svg" xmlns:xlink="http://www.w3.org/1999/xlink" x="0px" y="0px"
	 viewBox="0 0 471.3 175.1" style="enable-background:new 0 0 471.3 175.1;" xml:space="preserve">
<style type="text/css">
	
		.st0{fill:none;stroke:#5129D7;stroke-width:3;stroke-linecap:round;stroke-linejoin:round;stroke-miterlimit:10;stroke-dasharray:10;}
	.st1{fill:#FFFFFF;}
	
		.st2{fill:none;stroke:#A3A3A3;stroke-width:3;stroke-linecap:round;stroke-linejoin:round;stroke-miterlimit:10;stroke-dasharray:10.1312,10.1312;}
	
		.st3{fill:none;stroke:#5129D7;stroke-width:3;stroke-linecap:round;stroke-linejoin:round;stroke-miterlimit:10;stroke-dasharray:5.8658,5.8658;}
	.st4{fill:#5129D7;}
	.st5{fill:#FFFFFF;stroke:#5129D7;stroke-width:3;stroke-miterlimit:10;}
</style>
<g>
	<line class="st0" x1="173.3" y1="91.4" x2="301" y2="91.4"/>
	<g>
		<g>
			<circle class="st1" cx="87.7" cy="87.7" r="83.8"/>
			<circle class="st2" cx="87.7" cy="87.7" r="83.8"/>
		</g>
		<g>
			<g>
				<g>
					<circle class="st1" cx="57.9" cy="113" r="20.5"/>
					<ellipse class="st3" cx="57.9" cy="113" rx="20.5" ry="20.5"/>
				</g>
				<g>
					<path class="st4" d="M48.9,111c-0.2-0.2-0.4-0.3-0.6-0.4c-0.3-0.1-0.5-0.1-0.7-0.1c-0.1,0-0.3,0-0.4,0c-0.1,0-0.3,0.1-0.4,0.1
						c-0.1,0.1-0.2,0.2-0.3,0.3c-0.1,0.1-0.1,0.2-0.1,0.4c0,0.3,0.1,0.5,0.3,0.6c0.2,0.1,0.4,0.3,0.7,0.3c0.3,0.1,0.6,0.2,0.9,0.3
						c0.3,0.1,0.6,0.2,0.9,0.4c0.3,0.2,0.5,0.4,0.7,0.7c0.2,0.3,0.3,0.7,0.3,1.2c0,0.5-0.1,0.9-0.3,1.2c-0.2,0.4-0.4,0.6-0.7,0.9
						c-0.3,0.2-0.6,0.4-1,0.5c-0.4,0.1-0.8,0.2-1.3,0.2c-0.6,0-1.1-0.1-1.5-0.3c-0.5-0.2-0.9-0.4-1.3-0.8l1.3-1.5
						c0.2,0.3,0.4,0.5,0.7,0.6c0.3,0.1,0.6,0.2,0.9,0.2c0.2,0,0.3,0,0.5-0.1c0.2,0,0.3-0.1,0.4-0.2c0.1-0.1,0.2-0.2,0.3-0.3
						c0.1-0.1,0.1-0.2,0.1-0.4c0-0.3-0.1-0.5-0.3-0.6c-0.2-0.1-0.4-0.3-0.7-0.4s-0.6-0.2-1-0.3c-0.3-0.1-0.7-0.2-1-0.4
						c-0.3-0.2-0.5-0.4-0.7-0.7c-0.2-0.3-0.3-0.7-0.3-1.1c0-0.5,0.1-0.9,0.3-1.2c0.2-0.3,0.4-0.6,0.7-0.9c0.3-0.2,0.6-0.4,1-0.5
						c0.4-0.1,0.8-0.2,1.2-0.2c0.5,0,0.9,0.1,1.4,0.2c0.4,0.1,0.9,0.4,1.2,0.7L48.9,111z"/>
					<path class="st4" d="M53.2,110.5l-2.4,0l0-1.7l6.7-0.1l0,1.7l-2.4,0l0.1,6.8l-1.9,0C53.3,117.3,53.2,110.5,53.2,110.5z"/>
					<path class="st4" d="M60.6,113.6l-3.3-4.8l2.3,0l1.9,3.2l1.8-3.2l2.2,0l-3.1,5l0.1,3.6l-1.9,0L60.6,113.6L60.6,113.6z"/>
					<path class="st4" d="M66.2,108.7l1.9,0l0.1,6.8l3.5-0.1l0,1.7l-5.4,0.1L66.2,108.7z"/>
				</g>
			</g>
			<g>
				<g>
					<circle class="st1" cx="118.2" cy="105.6" r="20.5"/>
					<ellipse class="st3" cx="118.1" cy="105.6" rx="20.5" ry="20.5"/>
				</g>
				<g>
					<path class="st4" d="M104.6,106.5l-3.3-4.8l2.3,0l1.9,3.2l1.8-3.2l2.2,0l-3.1,5l0.1,3.6l-1.9,0L104.6,106.5L104.6,106.5z"/>
					<path class="st4" d="M112,101.5l1.5,0l3.8,8.4l-2.1,0l-0.7-1.8l-3.3,0.1l-0.7,1.8l-2.1,0L112,101.5z M112.9,104l-1,2.6l2.1,0
						L112.9,104z"/>
					<path class="st4" d="M118.1,101.4l2.8,0l2.1,5.5l0,0l1.9-5.5l2.8,0l0.1,8.5l-1.9,0l-0.1-6.5l0,0l-2.1,6.5l-1.4,0l-2.2-6.5l0,0
						l0.1,6.5l-2,0L118.1,101.4z"/>
					<path class="st4" d="M129.5,101.2l1.9,0l0.1,6.8l3.5-0.1l0,1.7l-5.3,0.1L129.5,101.2L129.5,101.2z"/>
				</g>
			</g>
			<g>
				<g>
					<circle class="st1" cx="81.4" cy="63" r="20.5"/>
					<circle class="st3" cx="81.4" cy="63" r="20.5"/>
				</g>
				<g>
					<path class="st4" d="M69.3,59l3.2-0.1c0.4,0,0.9,0,1.2,0.1c0.4,0.1,0.7,0.2,1,0.4s0.5,0.5,0.7,0.8c0.2,0.3,0.3,0.8,0.3,1.3
						c0,0.5-0.1,0.9-0.2,1.2s-0.4,0.6-0.7,0.8c-0.3,0.2-0.6,0.3-1,0.4C73.5,64,73.1,64,72.7,64l-1.4,0l0.1,3.3l-1.9,0L69.3,59z
						 M71.2,62.6l1.2,0c0.2,0,0.3,0,0.5,0c0.2,0,0.3-0.1,0.4-0.2c0.1-0.1,0.2-0.2,0.3-0.3c0.1-0.1,0.1-0.3,0.1-0.5
						c0-0.2-0.1-0.4-0.2-0.5c-0.1-0.1-0.2-0.2-0.4-0.3c-0.2-0.1-0.3-0.1-0.5-0.1c-0.2,0-0.4,0-0.6,0l-1,0l0,1.9L71.2,62.6z"/>
					<path class="st4" d="M84.2,63.9c0,0.5-0.1,1-0.2,1.4c-0.2,0.4-0.4,0.8-0.7,1.1c-0.3,0.3-0.7,0.6-1.1,0.7
						c-0.4,0.2-1,0.3-1.5,0.3c-0.6,0-1.1-0.1-1.6-0.3s-0.8-0.4-1.1-0.7s-0.5-0.7-0.7-1.1c-0.2-0.4-0.2-0.9-0.2-1.4L77,58.9l1.9,0
						l0.1,5.1c0,0.3,0,0.5,0.1,0.7c0.1,0.2,0.2,0.4,0.4,0.6c0.2,0.2,0.3,0.3,0.5,0.4c0.2,0.1,0.4,0.1,0.7,0.1c0.2,0,0.5,0,0.7-0.1
						s0.4-0.2,0.5-0.4c0.2-0.2,0.3-0.4,0.4-0.6c0.1-0.2,0.1-0.5,0.1-0.7l-0.1-5.1l1.9,0L84.2,63.9L84.2,63.9z"/>
					<path class="st4" d="M93.6,66.5c-0.6,0.3-1.1,0.5-1.7,0.6s-1.2,0.2-1.8,0.2c-0.7,0-1.3-0.1-1.8-0.3c-0.6-0.2-1-0.5-1.5-0.9
						c-0.4-0.4-0.7-0.9-1-1.4c-0.2-0.6-0.3-1.2-0.3-1.8c0-0.7,0.1-1.3,0.3-1.8c0.2-0.6,0.5-1,1-1.4c0.4-0.4,0.9-0.7,1.5-0.9
						c0.6-0.2,1.2-0.3,1.8-0.3c0.7,0,1.3,0.1,1.9,0.2c0.6,0.2,1.1,0.4,1.5,0.8l-1.3,1.4c-0.3-0.3-0.5-0.5-0.9-0.6
						c-0.3-0.1-0.7-0.2-1.2-0.2c-0.4,0-0.8,0.1-1.1,0.2c-0.3,0.1-0.6,0.3-0.8,0.6c-0.2,0.2-0.4,0.5-0.5,0.9
						c-0.1,0.4-0.2,0.7-0.2,1.1c0,0.4,0.1,0.8,0.2,1.1c0.1,0.3,0.3,0.6,0.5,0.9c0.2,0.2,0.5,0.4,0.8,0.6c0.3,0.1,0.7,0.2,1.1,0.2
						c0.4,0,0.8,0,1.1-0.1s0.5-0.2,0.7-0.3l0-1.4l-1.5,0l0-1.9l3.3-0.1L93.6,66.5L93.6,66.5z"/>
				</g>
			</g>
		</g>
	</g>
	<g>
		<circle class="st5" cx="383.7" cy="87.4" r="83.8"/>
		<g>
			<g>
				<circle class="st5" cx="351.8" cy="95.4" r="20.5"/>
				<g>
					<path class="st4" d="M335.5,91.2h1.9v3.2h3.6v-3.2h1.9v8.5H341V96h-3.6v3.7h-1.9V91.2z"/>
					<path class="st4" d="M346.2,92.8h-2.4v-1.7h6.7v1.7h-2.4v6.8h-1.9L346.2,92.8L346.2,92.8z"/>
					<path class="st4" d="M351.5,91.2h2.8l2,5.5l0,0l2-5.5h2.8v8.5h-1.9v-6.5l0,0l-2.2,6.5h-1.4l-2.1-6.5l0,0v6.5h-1.9L351.5,91.2
						L351.5,91.2z"/>
					<path class="st4" d="M362.9,91.2h1.9V98h3.5v1.7h-5.4V91.2z"/>
				</g>
			</g>
			<g>
				<circle class="st5" cx="415.5" cy="95.4" r="20.5"/>
				<g>
					<path class="st4" d="M411,93.4c-0.2-0.2-0.4-0.4-0.7-0.5c-0.3-0.1-0.6-0.2-0.9-0.2c-0.4,0-0.7,0.1-1,0.2s-0.6,0.3-0.8,0.6
						s-0.4,0.5-0.5,0.9s-0.2,0.7-0.2,1c0,0.4,0.1,0.8,0.2,1.1s0.3,0.6,0.5,0.9c0.2,0.2,0.5,0.4,0.8,0.6c0.3,0.1,0.6,0.2,0.9,0.2
						c0.4,0,0.7-0.1,1-0.2s0.5-0.4,0.7-0.7l1.6,1.2c-0.4,0.5-0.8,0.9-1.4,1.1s-1.1,0.4-1.7,0.4c-0.7,0-1.3-0.1-1.8-0.3
						c-0.6-0.2-1-0.5-1.5-0.9c-0.4-0.4-0.7-0.9-1-1.4c-0.2-0.6-0.3-1.2-0.3-1.8c0-0.7,0.1-1.3,0.3-1.8c0.2-0.6,0.5-1,1-1.4
						c0.4-0.4,0.9-0.7,1.5-0.9c0.6-0.2,1.2-0.3,1.8-0.3c0.2,0,0.5,0,0.8,0.1c0.3,0,0.5,0.1,0.8,0.2s0.5,0.2,0.7,0.4
						c0.2,0.2,0.4,0.4,0.6,0.6L411,93.4z"/>
					<path class="st4" d="M417.9,93.3c-0.2-0.2-0.4-0.3-0.6-0.4c-0.3-0.1-0.5-0.1-0.7-0.1c-0.1,0-0.3,0-0.4,0s-0.3,0.1-0.4,0.1
						c-0.1,0.1-0.2,0.2-0.3,0.3c-0.1,0.1-0.1,0.2-0.1,0.4c0,0.3,0.1,0.5,0.3,0.6c0.2,0.1,0.4,0.3,0.7,0.3c0.3,0.1,0.6,0.2,0.9,0.3
						c0.3,0.1,0.6,0.2,0.9,0.4c0.3,0.2,0.5,0.4,0.7,0.7s0.3,0.7,0.3,1.2s-0.1,0.9-0.3,1.2c-0.2,0.4-0.4,0.6-0.7,0.9
						c-0.3,0.2-0.6,0.4-1,0.5s-0.8,0.2-1.3,0.2c-0.6,0-1.1-0.1-1.5-0.3c-0.5-0.2-0.9-0.4-1.3-0.8l1.3-1.5c0.2,0.3,0.4,0.5,0.7,0.6
						c0.3,0.1,0.6,0.2,0.9,0.2c0.2,0,0.3,0,0.5-0.1s0.3-0.1,0.4-0.2s0.2-0.2,0.3-0.3s0.1-0.2,0.1-0.4c0-0.3-0.1-0.5-0.3-0.6
						s-0.4-0.3-0.7-0.4s-0.6-0.2-1-0.3s-0.7-0.2-1-0.4c-0.3-0.2-0.5-0.4-0.7-0.7c-0.2-0.3-0.3-0.7-0.3-1.1c0-0.5,0.1-0.9,0.3-1.2
						c0.2-0.3,0.4-0.6,0.7-0.9c0.3-0.2,0.6-0.4,1-0.5s0.8-0.2,1.2-0.2c0.5,0,0.9,0.1,1.4,0.2c0.4,0.1,0.9,0.4,1.2,0.7L417.9,93.3z"
						/>
					<path class="st4" d="M424.8,93.3c-0.2-0.2-0.4-0.3-0.6-0.4c-0.3-0.1-0.5-0.1-0.7-0.1c-0.1,0-0.3,0-0.4,0s-0.3,0.1-0.4,0.1
						c-0.1,0.1-0.2,0.2-0.3,0.3c-0.1,0.1-0.1,0.2-0.1,0.4c0,0.3,0.1,0.5,0.3,0.6c0.2,0.1,0.4,0.3,0.7,0.3c0.3,0.1,0.6,0.2,0.9,0.3
						c0.3,0.1,0.6,0.2,0.9,0.4c0.3,0.2,0.5,0.4,0.7,0.7s0.3,0.7,0.3,1.2s-0.1,0.9-0.3,1.2c-0.2,0.4-0.4,0.6-0.7,0.9
						c-0.3,0.2-0.6,0.4-1,0.5s-0.8,0.2-1.3,0.2c-0.6,0-1.1-0.1-1.5-0.3c-0.5-0.2-0.9-0.4-1.3-0.8l1.3-1.5c0.2,0.3,0.4,0.5,0.7,0.6
						c0.3,0.1,0.6,0.2,0.9,0.2c0.2,0,0.3,0,0.5-0.1s0.3-0.1,0.4-0.2s0.2-0.2,0.3-0.3s0.1-0.2,0.1-0.4c0-0.3-0.1-0.5-0.3-0.6
						s-0.4-0.3-0.7-0.4s-0.6-0.2-1-0.3s-0.7-0.2-1-0.4c-0.3-0.2-0.5-0.4-0.7-0.7c-0.2-0.3-0.3-0.7-0.3-1.1c0-0.5,0.1-0.9,0.3-1.2
						c0.2-0.3,0.4-0.6,0.7-0.9c0.3-0.2,0.6-0.4,1-0.5s0.8-0.2,1.2-0.2c0.5,0,0.9,0.1,1.4,0.2c0.4,0.1,0.9,0.4,1.2,0.7L424.8,93.3z"
						/>
				</g>
			</g>
		</g>
		<g>
			<path class="st4" d="M358.1,51.3c-0.3-0.3-0.6-0.6-1.1-0.7c-0.5-0.2-0.9-0.2-1.3-0.2c-0.2,0-0.5,0-0.7,0.1
				c-0.3,0.1-0.5,0.1-0.7,0.3c-0.2,0.1-0.4,0.3-0.5,0.5s-0.2,0.4-0.2,0.7c0,0.5,0.2,0.8,0.5,1s0.8,0.4,1.3,0.6
				c0.5,0.2,1.1,0.3,1.7,0.5s1.1,0.4,1.7,0.7c0.5,0.3,0.9,0.7,1.3,1.2c0.3,0.5,0.5,1.2,0.5,2.1c0,0.8-0.2,1.6-0.5,2.2
				c-0.3,0.6-0.7,1.1-1.3,1.5s-1.1,0.7-1.8,0.9c-0.7,0.2-1.4,0.3-2.2,0.3c-1,0-1.9-0.1-2.7-0.4c-0.8-0.3-1.6-0.8-2.3-1.4l2.3-2.6
				c0.3,0.5,0.8,0.8,1.3,1s1,0.4,1.6,0.4c0.3,0,0.5,0,0.8-0.1s0.5-0.2,0.7-0.3s0.4-0.3,0.5-0.5s0.2-0.4,0.2-0.7
				c0-0.4-0.2-0.8-0.5-1.1s-0.8-0.5-1.3-0.7s-1.1-0.4-1.7-0.5c-0.6-0.2-1.2-0.4-1.7-0.7s-1-0.7-1.3-1.2s-0.5-1.2-0.5-2
				s0.2-1.5,0.5-2.1s0.7-1.1,1.3-1.5c0.5-0.4,1.1-0.7,1.8-0.9c0.7-0.2,1.4-0.3,2.1-0.3c0.8,0,1.7,0.1,2.4,0.4
				c0.8,0.2,1.5,0.6,2.1,1.2L358.1,51.3z"/>
			<path class="st4" d="M365.8,50.5h-4.3v-2.9h11.8v2.9H369v12h-3.3L365.8,50.5L365.8,50.5z"/>
			<path class="st4" d="M377.9,47.6h2.7l6.5,14.9h-3.7l-1.3-3.2h-5.8l-1.2,3.2h-3.6L377.9,47.6z M379.2,52l-1.8,4.6h3.6L379.2,52z"
				/>
			<path class="st4" d="M389.6,50.5h-4.3v-2.9h11.8v2.9h-4.2v12h-3.3V50.5z"/>
			<path class="st4" d="M398.8,47.6h3.3v14.9h-3.3V47.6z"/>
			<path class="st4" d="M414.8,51.5c-0.3-0.4-0.7-0.7-1.2-0.9s-1-0.3-1.6-0.3s-1.2,0.1-1.7,0.4c-0.5,0.2-1,0.6-1.4,1
				s-0.7,0.9-0.9,1.5c-0.2,0.6-0.3,1.2-0.3,1.9s0.1,1.3,0.3,1.9c0.2,0.6,0.5,1.1,0.9,1.5s0.8,0.8,1.3,1s1.1,0.4,1.7,0.4
				c0.7,0,1.3-0.1,1.8-0.4c0.5-0.3,0.9-0.7,1.3-1.2l2.7,2c-0.6,0.9-1.4,1.5-2.4,2c-1,0.4-2,0.6-3,0.6c-1.2,0-2.2-0.2-3.2-0.5
				c-1-0.4-1.8-0.9-2.6-1.6c-0.7-0.7-1.3-1.5-1.7-2.5c-0.4-1-0.6-2.1-0.6-3.2c0-1.2,0.2-2.3,0.6-3.2c0.4-1,1-1.8,1.7-2.5
				s1.6-1.2,2.6-1.6c1-0.4,2.1-0.5,3.2-0.5c0.4,0,0.9,0,1.3,0.1c0.5,0.1,0.9,0.2,1.3,0.4s0.9,0.4,1.3,0.7s0.8,0.6,1.1,1L414.8,51.5z
				"/>
		</g>
	</g>
</g>
</svg>
