<?xml version="1.0" encoding="utf-8"?>
<!-- Generator: Adobe Illustrator 22.0.1, SVG Export Plug-In . SVG Version: 6.00 Build 0)  -->
<svg version="1.1" id="Camada_1" xmlns="http://www.w3.org/2000/svg" xmlns:xlink="http://www.w3.org/1999/xlink" x="0px" y="0px"
	 viewBox="0 0 500 182.4" style="enable-background:new 0 0 500 182.4;" xml:space="preserve">
<style type="text/css">
	.st0{fill:none;stroke:#735496;stroke-width:3;stroke-miterlimit:10;stroke-dasharray:10;}
	.st1{fill:#FFFFFF;}
	.st2{fill:none;stroke:#A3A3A3;stroke-width:3;stroke-miterlimit:10;stroke-dasharray:10.1312,10.1312;}
	.st3{fill:none;stroke:#735496;stroke-width:3;stroke-miterlimit:10;stroke-dasharray:5.8658,5.8658;}
	.st4{fill:#735496;}
	.st5{fill:#FFFFFF;stroke:#735496;stroke-width:3;stroke-miterlimit:10;}
</style>
<line class="st0" x1="191.4" y1="94.3" x2="319.1" y2="94.3"/>
<g>
	<g>
		<circle class="st1" cx="106.8" cy="90.6" r="83.8"/>
		<circle class="st2" cx="106.8" cy="90.6" r="83.8"/>
	</g>
	<g>
		<g>
			<g>
				<circle class="st1" cx="76.6" cy="115.4" r="20.5"/>
				
					<ellipse transform="matrix(0.2567 -0.9665 0.9665 0.2567 -54.6077 159.7946)" class="st3" cx="76.6" cy="115.4" rx="20.5" ry="20.5"/>
			</g>
			<g>
				<path class="st4" d="M67.6,113.2c-0.2-0.2-0.4-0.3-0.6-0.4c-0.3-0.1-0.5-0.1-0.7-0.1c-0.1,0-0.3,0-0.4,0c-0.1,0-0.3,0.1-0.4,0.1
					c-0.1,0.1-0.2,0.2-0.3,0.3c-0.1,0.1-0.1,0.2-0.1,0.4c0,0.3,0.1,0.5,0.3,0.6c0.2,0.1,0.4,0.3,0.7,0.3c0.3,0.1,0.6,0.2,0.9,0.3
					c0.3,0.1,0.6,0.2,0.9,0.4c0.3,0.2,0.5,0.4,0.7,0.7c0.2,0.3,0.3,0.7,0.3,1.2c0,0.5-0.1,0.9-0.3,1.2c-0.2,0.4-0.4,0.6-0.7,0.9
					c-0.3,0.2-0.6,0.4-1,0.5c-0.4,0.1-0.8,0.2-1.3,0.2c-0.6,0-1.1-0.1-1.5-0.3c-0.5-0.2-0.9-0.4-1.3-0.8l1.3-1.5
					c0.2,0.3,0.4,0.5,0.7,0.6c0.3,0.1,0.6,0.2,0.9,0.2c0.2,0,0.3,0,0.5-0.1c0.2,0,0.3-0.1,0.4-0.2c0.1-0.1,0.2-0.2,0.3-0.3
					c0.1-0.1,0.1-0.2,0.1-0.4c0-0.3-0.1-0.5-0.3-0.6c-0.2-0.1-0.4-0.3-0.7-0.4s-0.6-0.2-1-0.3c-0.3-0.1-0.7-0.2-1-0.4
					c-0.3-0.2-0.5-0.4-0.7-0.7c-0.2-0.3-0.3-0.7-0.3-1.1c0-0.5,0.1-0.9,0.3-1.2c0.2-0.3,0.4-0.6,0.7-0.9c0.3-0.2,0.6-0.4,1-0.5
					c0.4-0.1,0.8-0.2,1.2-0.2c0.5,0,0.9,0.1,1.4,0.2c0.4,0.1,0.9,0.4,1.2,0.7L67.6,113.2z"/>
				<path class="st4" d="M71.9,112.8h-2.4v-1.7h6.7v1.7h-2.4v6.8h-1.9V112.8z"/>
				<path class="st4" d="M79.3,116l-3.2-4.9h2.3l1.8,3.2l1.9-3.2h2.2l-3.2,4.9v3.6h-1.9V116z"/>
				<path class="st4" d="M85,111.2h1.9v6.8h3.5v1.7H85V111.2z"/>
			</g>
		</g>
		<g>
			<g>
				<circle class="st1" cx="137" cy="109" r="20.5"/>
				<ellipse transform="matrix(0.1602 -0.9871 0.9871 0.1602 7.389 226.7839)" class="st3" cx="137" cy="109" rx="20.5" ry="20.5"/>
			</g>
			<g>
				<path class="st4" d="M123.4,109.7l-3.2-4.9h2.3l1.8,3.2l1.9-3.2h2.2l-3.2,4.9v3.6h-1.9V109.7z"/>
				<path class="st4" d="M130.9,104.8h1.5l3.7,8.5h-2.1l-0.7-1.8H130l-0.7,1.8h-2.1L130.9,104.8z M131.7,107.3l-1,2.6h2.1
					L131.7,107.3z"/>
				<path class="st4" d="M137,104.8h2.8l2,5.5h0l2-5.5h2.8v8.5h-1.9v-6.5h0l-2.2,6.5h-1.4l-2.1-6.5h0v6.5H137V104.8z"/>
				<path class="st4" d="M148.4,104.8h1.9v6.8h3.5v1.7h-5.3V104.8z"/>
			</g>
		</g>
		<g>
			<g>
				<circle class="st1" cx="101" cy="65.8" r="20.5"/>
				<circle class="st3" cx="101" cy="65.8" r="20.5"/>
			</g>
			<g>
				<path class="st4" d="M88.9,61.6h3.2c0.4,0,0.9,0,1.2,0.1c0.4,0.1,0.7,0.2,1,0.4s0.5,0.5,0.7,0.8s0.3,0.8,0.3,1.3
					c0,0.5-0.1,0.9-0.2,1.2s-0.4,0.6-0.7,0.8c-0.3,0.2-0.6,0.3-1,0.4c-0.4,0.1-0.8,0.1-1.2,0.1h-1.4v3.3h-1.9V61.6z M90.8,65.2h1.2
					c0.2,0,0.3,0,0.5,0c0.2,0,0.3-0.1,0.4-0.2s0.2-0.2,0.3-0.3s0.1-0.3,0.1-0.5c0-0.2-0.1-0.4-0.2-0.5c-0.1-0.1-0.2-0.2-0.4-0.3
					c-0.2-0.1-0.3-0.1-0.5-0.1c-0.2,0-0.4,0-0.6,0h-1V65.2z"/>
				<path class="st4" d="M103.7,66.8c0,0.5-0.1,1-0.2,1.4c-0.2,0.4-0.4,0.8-0.7,1.1c-0.3,0.3-0.7,0.6-1.1,0.7
					c-0.4,0.2-1,0.3-1.5,0.3c-0.6,0-1.1-0.1-1.6-0.3s-0.8-0.4-1.1-0.7s-0.5-0.7-0.7-1.1c-0.2-0.4-0.2-0.9-0.2-1.4v-5.2h1.9v5.1
					c0,0.3,0,0.5,0.1,0.7c0.1,0.2,0.2,0.4,0.4,0.6c0.2,0.2,0.3,0.3,0.5,0.4s0.4,0.1,0.7,0.1c0.2,0,0.5,0,0.7-0.1s0.4-0.2,0.5-0.4
					c0.2-0.2,0.3-0.4,0.4-0.6c0.1-0.2,0.1-0.5,0.1-0.7v-5.1h1.9V66.8z"/>
				<path class="st4" d="M113.1,69.5c-0.6,0.3-1.1,0.5-1.7,0.6c-0.6,0.1-1.2,0.2-1.8,0.2c-0.7,0-1.3-0.1-1.8-0.3
					c-0.6-0.2-1-0.5-1.5-0.9c-0.4-0.4-0.7-0.9-1-1.4c-0.2-0.6-0.3-1.2-0.3-1.8c0-0.7,0.1-1.3,0.3-1.8c0.2-0.6,0.5-1,1-1.4
					c0.4-0.4,0.9-0.7,1.5-0.9c0.6-0.2,1.2-0.3,1.8-0.3c0.7,0,1.3,0.1,1.9,0.2c0.6,0.2,1.1,0.4,1.5,0.8l-1.3,1.4
					c-0.3-0.3-0.5-0.5-0.9-0.6c-0.3-0.1-0.7-0.2-1.2-0.2c-0.4,0-0.8,0.1-1.1,0.2c-0.3,0.1-0.6,0.3-0.8,0.6c-0.2,0.2-0.4,0.5-0.5,0.9
					s-0.2,0.7-0.2,1.1c0,0.4,0.1,0.8,0.2,1.1s0.3,0.6,0.5,0.9c0.2,0.2,0.5,0.4,0.8,0.6c0.3,0.1,0.7,0.2,1.1,0.2c0.4,0,0.8,0,1.1-0.1
					s0.5-0.2,0.7-0.3v-1.4h-1.5V65h3.3V69.5z"/>
			</g>
		</g>
	</g>
</g>
<g>
	<circle class="st5" cx="402.8" cy="90.3" r="83.8"/>
	<g>
		<g>
			<circle class="st5" cx="370.9" cy="98.3" r="20.5"/>
			<g>
				<path class="st4" d="M354.6,94.1h1.9v3.2h3.6v-3.2h1.9v8.5h-1.9v-3.7h-3.6v3.7h-1.9V94.1z"/>
				<path class="st4" d="M365.3,95.7h-2.4v-1.7h6.7v1.7h-2.4v6.8h-1.9V95.7z"/>
				<path class="st4" d="M370.6,94.1h2.8l2,5.5h0l2-5.5h2.8v8.5h-1.9v-6.5h0l-2.2,6.5h-1.4l-2.1-6.5h0v6.5h-1.9V94.1z"/>
				<path class="st4" d="M382,94.1h1.9v6.8h3.5v1.7H382V94.1z"/>
			</g>
		</g>
		<g>
			<circle class="st5" cx="434.6" cy="98.3" r="20.5"/>
			<g>
				<path class="st4" d="M430.1,96.3c-0.2-0.2-0.4-0.4-0.7-0.5c-0.3-0.1-0.6-0.2-0.9-0.2c-0.4,0-0.7,0.1-1,0.2
					c-0.3,0.1-0.6,0.3-0.8,0.6s-0.4,0.5-0.5,0.9S426,98,426,98.3c0,0.4,0.1,0.8,0.2,1.1s0.3,0.6,0.5,0.9c0.2,0.2,0.5,0.4,0.8,0.6
					c0.3,0.1,0.6,0.2,0.9,0.2c0.4,0,0.7-0.1,1-0.2s0.5-0.4,0.7-0.7l1.6,1.2c-0.4,0.5-0.8,0.9-1.4,1.1c-0.6,0.2-1.1,0.4-1.7,0.4
					c-0.7,0-1.3-0.1-1.8-0.3c-0.6-0.2-1-0.5-1.5-0.9c-0.4-0.4-0.7-0.9-1-1.4c-0.2-0.6-0.3-1.2-0.3-1.8c0-0.7,0.1-1.3,0.3-1.8
					c0.2-0.6,0.5-1,1-1.4c0.4-0.4,0.9-0.7,1.5-0.9c0.6-0.2,1.2-0.3,1.8-0.3c0.2,0,0.5,0,0.8,0.1c0.3,0,0.5,0.1,0.8,0.2
					s0.5,0.2,0.7,0.4c0.2,0.2,0.4,0.4,0.6,0.6L430.1,96.3z"/>
				<path class="st4" d="M437,96.2c-0.2-0.2-0.4-0.3-0.6-0.4c-0.3-0.1-0.5-0.1-0.7-0.1c-0.1,0-0.3,0-0.4,0c-0.1,0-0.3,0.1-0.4,0.1
					c-0.1,0.1-0.2,0.2-0.3,0.3c-0.1,0.1-0.1,0.2-0.1,0.4c0,0.3,0.1,0.5,0.3,0.6c0.2,0.1,0.4,0.3,0.7,0.3c0.3,0.1,0.6,0.2,0.9,0.3
					c0.3,0.1,0.6,0.2,0.9,0.4c0.3,0.2,0.5,0.4,0.7,0.7s0.3,0.7,0.3,1.2c0,0.5-0.1,0.9-0.3,1.2c-0.2,0.4-0.4,0.6-0.7,0.9
					c-0.3,0.2-0.6,0.4-1,0.5c-0.4,0.1-0.8,0.2-1.3,0.2c-0.6,0-1.1-0.1-1.5-0.3c-0.5-0.2-0.9-0.4-1.3-0.8l1.3-1.5
					c0.2,0.3,0.4,0.5,0.7,0.6c0.3,0.1,0.6,0.2,0.9,0.2c0.2,0,0.3,0,0.5-0.1s0.3-0.1,0.4-0.2c0.1-0.1,0.2-0.2,0.3-0.3
					s0.1-0.2,0.1-0.4c0-0.3-0.1-0.5-0.3-0.6s-0.4-0.3-0.7-0.4s-0.6-0.2-1-0.3s-0.7-0.2-1-0.4c-0.3-0.2-0.5-0.4-0.7-0.7
					c-0.2-0.3-0.3-0.7-0.3-1.1c0-0.5,0.1-0.9,0.3-1.2c0.2-0.3,0.4-0.6,0.7-0.9c0.3-0.2,0.6-0.4,1-0.5c0.4-0.1,0.8-0.2,1.2-0.2
					c0.5,0,0.9,0.1,1.4,0.2c0.4,0.1,0.9,0.4,1.2,0.7L437,96.2z"/>
				<path class="st4" d="M443.9,96.2c-0.2-0.2-0.4-0.3-0.6-0.4c-0.3-0.1-0.5-0.1-0.7-0.1c-0.1,0-0.3,0-0.4,0c-0.1,0-0.3,0.1-0.4,0.1
					c-0.1,0.1-0.2,0.2-0.3,0.3c-0.1,0.1-0.1,0.2-0.1,0.4c0,0.3,0.1,0.5,0.3,0.6c0.2,0.1,0.4,0.3,0.7,0.3c0.3,0.1,0.6,0.2,0.9,0.3
					c0.3,0.1,0.6,0.2,0.9,0.4c0.3,0.2,0.5,0.4,0.7,0.7s0.3,0.7,0.3,1.2c0,0.5-0.1,0.9-0.3,1.2c-0.2,0.4-0.4,0.6-0.7,0.9
					c-0.3,0.2-0.6,0.4-1,0.5c-0.4,0.1-0.8,0.2-1.3,0.2c-0.6,0-1.1-0.1-1.5-0.3c-0.5-0.2-0.9-0.4-1.3-0.8l1.3-1.5
					c0.2,0.3,0.4,0.5,0.7,0.6c0.3,0.1,0.6,0.2,0.9,0.2c0.2,0,0.3,0,0.5-0.1s0.3-0.1,0.4-0.2c0.1-0.1,0.2-0.2,0.3-0.3
					s0.1-0.2,0.1-0.4c0-0.3-0.1-0.5-0.3-0.6s-0.4-0.3-0.7-0.4s-0.6-0.2-1-0.3s-0.7-0.2-1-0.4c-0.3-0.2-0.5-0.4-0.7-0.7
					c-0.2-0.3-0.3-0.7-0.3-1.1c0-0.5,0.1-0.9,0.3-1.2c0.2-0.3,0.4-0.6,0.7-0.9c0.3-0.2,0.6-0.4,1-0.5c0.4-0.1,0.8-0.2,1.2-0.2
					c0.5,0,0.9,0.1,1.4,0.2c0.4,0.1,0.9,0.4,1.2,0.7L443.9,96.2z"/>
			</g>
		</g>
	</g>
	<g>
		<path class="st4" d="M377.2,54.2c-0.3-0.3-0.6-0.6-1.1-0.7c-0.5-0.2-0.9-0.2-1.3-0.2c-0.2,0-0.5,0-0.7,0.1
			c-0.3,0.1-0.5,0.1-0.7,0.3c-0.2,0.1-0.4,0.3-0.5,0.5c-0.1,0.2-0.2,0.4-0.2,0.7c0,0.5,0.2,0.8,0.5,1c0.3,0.2,0.8,0.4,1.3,0.6
			c0.5,0.2,1.1,0.3,1.7,0.5c0.6,0.2,1.1,0.4,1.7,0.7c0.5,0.3,0.9,0.7,1.3,1.2c0.3,0.5,0.5,1.2,0.5,2.1c0,0.8-0.2,1.6-0.5,2.2
			c-0.3,0.6-0.7,1.1-1.3,1.5s-1.1,0.7-1.8,0.9c-0.7,0.2-1.4,0.3-2.2,0.3c-1,0-1.9-0.1-2.7-0.4c-0.8-0.3-1.6-0.8-2.3-1.4l2.3-2.6
			c0.3,0.5,0.8,0.8,1.3,1c0.5,0.2,1,0.4,1.6,0.4c0.3,0,0.5,0,0.8-0.1c0.3-0.1,0.5-0.2,0.7-0.3s0.4-0.3,0.5-0.5s0.2-0.4,0.2-0.7
			c0-0.4-0.2-0.8-0.5-1.1c-0.3-0.3-0.8-0.5-1.3-0.7c-0.5-0.2-1.1-0.4-1.7-0.5c-0.6-0.2-1.2-0.4-1.7-0.7c-0.5-0.3-1-0.7-1.3-1.2
			c-0.3-0.5-0.5-1.2-0.5-2c0-0.8,0.2-1.5,0.5-2.1s0.7-1.1,1.3-1.5c0.5-0.4,1.1-0.7,1.8-0.9c0.7-0.2,1.4-0.3,2.1-0.3
			c0.8,0,1.7,0.1,2.4,0.4c0.8,0.2,1.5,0.6,2.1,1.2L377.2,54.2z"/>
		<path class="st4" d="M384.9,53.4h-4.3v-2.9h11.8v2.9h-4.3v12h-3.3V53.4z"/>
		<path class="st4" d="M397,50.5h2.7l6.5,14.9h-3.7l-1.3-3.2h-5.8l-1.2,3.2h-3.6L397,50.5z M398.3,54.9l-1.8,4.6h3.6L398.3,54.9z"/>
		<path class="st4" d="M408.7,53.4h-4.3v-2.9h11.8v2.9H412v12h-3.3V53.4z"/>
		<path class="st4" d="M417.9,50.5h3.3v14.9h-3.3V50.5z"/>
		<path class="st4" d="M433.9,54.4c-0.3-0.4-0.7-0.7-1.2-0.9c-0.5-0.2-1-0.3-1.6-0.3s-1.2,0.1-1.7,0.4c-0.5,0.2-1,0.6-1.4,1
			c-0.4,0.4-0.7,0.9-0.9,1.5c-0.2,0.6-0.3,1.2-0.3,1.9c0,0.7,0.1,1.3,0.3,1.9c0.2,0.6,0.5,1.1,0.9,1.5s0.8,0.8,1.3,1
			c0.5,0.2,1.1,0.4,1.7,0.4c0.7,0,1.3-0.1,1.8-0.4c0.5-0.3,0.9-0.7,1.3-1.2l2.7,2c-0.6,0.9-1.4,1.5-2.4,2c-1,0.4-2,0.6-3,0.6
			c-1.2,0-2.2-0.2-3.2-0.5c-1-0.4-1.8-0.9-2.6-1.6c-0.7-0.7-1.3-1.5-1.7-2.5c-0.4-1-0.6-2.1-0.6-3.2c0-1.2,0.2-2.3,0.6-3.2
			c0.4-1,1-1.8,1.7-2.5c0.7-0.7,1.6-1.2,2.6-1.6c1-0.4,2.1-0.5,3.2-0.5c0.4,0,0.9,0,1.3,0.1c0.5,0.1,0.9,0.2,1.3,0.4
			c0.4,0.2,0.9,0.4,1.3,0.7s0.8,0.6,1.1,1L433.9,54.4z"/>
	</g>
</g>
</svg>
