<?xml version="1.0" encoding="utf-8"?>
<!-- Generator: Adobe Illustrator 22.0.1, SVG Export Plug-In . SVG Version: 6.00 Build 0)  -->
<svg version="1.1" id="Camada_1" xmlns="http://www.w3.org/2000/svg" xmlns:xlink="http://www.w3.org/1999/xlink" x="0px" y="0px"
	 viewBox="0 0 894.7 895.7" style="enable-background:new 0 0 894.7 895.7;" xml:space="preserve">
<style type="text/css">
	.st0{fill:url(#SVGID_1_);}
	.st1{fill:url(#SVGID_2_);}
	.st2{fill:#3B197C;}
	.st3{fill:none;stroke:#231663;stroke-width:5;stroke-miterlimit:10;}
	.st4{clip-path:url(#SVGID_5_);}
	.st5{fill:#FFFFFF;stroke:#231663;stroke-width:5;stroke-miterlimit:10;}
	.st6{fill:#C6AB8B;}
	.st7{fill:#FCDFB6;}
	.st8{display:none;}
	.st9{display:inline;fill:url(#SVGID_6_);}
	.st10{display:inline;fill:url(#SVGID_7_);}
	.st11{display:inline;fill:url(#SVGID_8_);}
</style>
<linearGradient id="SVGID_1_" gradientUnits="userSpaceOnUse" x1="8.8586" y1="448.0999" x2="886.9" y2="448.0999" gradientTransform="matrix(1 0 0 -1 0 896)">
	<stop  offset="0" style="stop-color:#6E19BF"/>
	<stop  offset="1" style="stop-color:#5129D7"/>
</linearGradient>
<path class="st0" d="M874,41.1c0.6-0.4,5.9-3.7,10.6-6.5l2.3-1.4l-1.6-2.2c-0.9-1.2-5.4-7.2-8.4-8.7c-11-5.7-44.1-10.1-45.5-10.3
	l-1-0.1l-0.8,0.6c-2.3,1.7-13.6,10.6-16,14.4c-4.2,6.9-12,23.2-17.9,35.7c-1.9,4-8.2,8.2-10.5,9.6l-3.2,1.9l14.9,11.6
	c-1.8-0.1-3.6-0.1-5.4-0.1c-2.3,0-4.5,0.1-6.8,0.2l-7.5-7.4l-17.6-36.6l-10-12.7l-52,21.1L708,63.6l18.3,39.1
	c-13.6,8.9-22,20.5-22,33c0,7.7,3.2,15,8.8,21.6l39.9,51.2v84.2c0,18.8-12.8,26.2-29,35.5c-0.9,0.5-1.9,1.1-2.8,1.6
	c-4.7-3.8-8.1-6-8.6-6.3c-1.3-0.8-130.5-80.1-189.3-109.8c-17.9-9.1-32.3,0.1-43.8,7.5c-1.7,1.1-3.3,2.1-4.9,3.1
	c-16.9,10.3-134,81.2-139.4,84.5c-0.9,0.4-1.8,0.8-2.5,1.3c-8.7,5.4-12.6,17.2-12.6,26.6c0,4.7,0,12,0.1,20.6
	c0.1,24.6,0.2,69.1-0.3,77.2l-24.4,14c-1.2,0.7-28.5,17.6-29.4,63c-0.8,41-0.1,118.8,0,130.2C156.7,704.6,25.7,780.2,22.1,783
	c-12.2,9.6-15.8,18-11.5,27.3c0.6,1.3,1.5,3.4,62.4,37.8c29.8,16.8,59.7,33.4,60,33.5l0.3-0.6c1.2,1.1,2.7,1.9,4.5,2.4
	c1.1,0.3,2.2,0.5,3.2,0.5c3,0,5.7-1.3,7.8-3.8c15.6-8.8,243-138.6,261.9-149.3l22.5,12.7l100-57.3l55.2,31.4v-1.7l168.1-99.8v-1.4
	c0-1.8,2.3-169.5,0.5-220.2c9.5-5.3,18.3-10.3,26.1-15.1c2.8-1.7,5.7-3.4,8.5-5c16.2-9.3,31.5-18.1,31.5-39.8V206.5l43.5-45.8
	c7.6-7.4,12-16,12-25.1c0-16.2-14.1-30.9-35.5-40.2c0.5-0.9,1-1.9,1.4-2.8C856.5,64.6,866.9,46.2,874,41.1z"/>
<linearGradient id="SVGID_2_" gradientUnits="userSpaceOnUse" x1="8.9585" y1="171.7" x2="411.1" y2="171.7" gradientTransform="matrix(1 0 0 -1 0 896)">
	<stop  offset="0" style="stop-color:#3F25A2"/>
	<stop  offset="1" style="stop-color:#A591E2"/>
</linearGradient>
<path class="st1" d="M405.8,564.6C296.4,627.5,25.7,780.3,22.2,783.1c-12.2,9.6-15.8,18-11.5,27.3c0.6,1.3,1.5,3.4,62.4,37.8
	c29.8,16.8,59.7,33.4,60,33.5l0.3-0.6c1.2,1.1,2.7,1.9,4.5,2.4c1.1,0.3,2.2,0.5,3.2,0.5c3,0,5.7-1.3,7.8-3.8
	c15.6-8.8,243-138.6,261.9-149.3l0.3-133.8"/>
<path class="st2" d="M406.3,565.3c-14.7-47.4-59.8-78.5-88.4-74.2c-30.4,4.6-28.4,47.8-28.4,47.8c0,12.1,0,92.2,0,92.2"/>
<g>
	<path class="st3" d="M533.2,683.5l-100,57.3L410.8,728c0,0,0.1-67.3,0.3-130.8c0.3-64.6-58.5-111.3-93.2-106.1
		c-30.4,4.6-28.4,47.8-28.4,47.8c0,12.1,0,92.2,0,92.2"/>
	<path class="st3" d="M322.3,436.1c0.9-3.6,0.4-78.4,0.4-99.4c0-14.8,10.3-33.8,29.4-24.2c59.3,29.9,191.2,111.8,191.2,111.8
		s40,25.5,42.7,60s0,229.1,0,229.1l-52.7-30c0,0,0-105.5,0-131.8s-10.9-80.7-50.9-123.5s-82.7-36.5-82.7-36.5L297,450.7
		c0,0-27.3,16.4-28.2,60.9c-0.9,44.6,0,131.5,0,131.5"/>
	<path class="st3" d="M336.4,311.1c0,0,122.3-74.1,139.6-84.6c12.7-7.7,27.1-20.1,46.2-10.5c59.3,29.9,189.1,109.7,189.1,109.7
		s40,25.5,42.7,60s0,229.1,0,229.1l-167.4,99.5"/>
	<path class="st3" d="M754.2,388.9"/>
	<path class="st3" d="M820.6,192.9"/>
	<path class="st3" d="M754.4,393.1c8.7-4.8,18.2-10.2,27.4-15.8c19.3-11.8,38.9-18.9,38.9-42.7V205.5l45-47.3"/>
	<path class="st3" d="M720.9,332.8c17.8-10.4,34.6-18.1,34.6-40.2v-85.1l-42.1-54.1"/>
	<ellipse class="st3" cx="791.5" cy="135.6" rx="84.7" ry="47.8"/>
	<path class="st3" d="M147.3,878.3c12-6.9,263.5-150.3,263.5-150.3"/>
	<path class="st3" d="M411,699.6c0,0-267.5,155-273.8,159.9"/>
	<path class="st3" d="M405.8,564.6C344.1,599.7,28.9,780.9,23.7,785c-12.1,9.5-14.3,16.6-10.8,24.3c1.9,4.2,121.4,70.2,121.4,70.2"
		/>
	<path class="st3" d="M150.5,871.8c-2.2,7.4-6.7,10.8-11.9,9.3c-5.3-1.5-7.8-6.7-5.6-14.1c2.2-7.4,8.2-12.2,13.5-10.6
		C151.7,857.9,152.7,864.4,150.5,871.8z"/>
	<line class="st3" x1="146.4" y1="856.4" x2="22.2" y2="786.2"/>
	<line class="st3" x1="211.6" y1="816.5" x2="88.5" y2="747"/>
	<line class="st3" x1="253.6" y1="791.2" x2="132.1" y2="721.8"/>
	<line class="st3" x1="301.9" y1="763.9" x2="178.9" y2="694.5"/>
	<line class="st3" x1="348.1" y1="736.6" x2="225.1" y2="667.2"/>
	<line class="st3" x1="388" y1="713.5" x2="265" y2="644.1"/>
	<path class="st3" d="M476.8,715.8V586.3c-1.1-15.6-3.5-58.9-23.1-92.4c-24-40.9-68.7-71.5-105.7-72.7"/>
	<g>
		<g>
			<g>
				<defs>
					<ellipse id="SVGID_4_" cx="791.5" cy="134" rx="70.7" ry="38.3"/>
				</defs>
				<clipPath id="SVGID_5_">
					<use xlink:href="#SVGID_4_"  style="overflow:visible;"/>
				</clipPath>
				<g class="st4">
					<path class="st5" d="M831.3,136.6L782,115.3c0,0-20.5,18.4-26.1,25.9c-6,8-18.9,34.8-18.9,34.8l39.6,16.4l5.5,2.2l10.5-4.2
						c0,0,10.2-21.5,13.7-25.1C812.9,158.4,831.3,136.6,831.3,136.6z"/>
				</g>
			</g>
			<g>
				<ellipse id="SVGID_3_" class="st3" cx="791.5" cy="134" rx="70.7" ry="38.3"/>
			</g>
		</g>
		<g>
			<path class="st5" d="M786.5,74.2l42.7,33.2c0,0,9.4-7.2,13.1-15.8c7.4-17.5,20.4-45.4,30.3-52.6c1-0.7,10.8-6.7,10.8-6.7
				s-4.9-6.6-7.5-8c-10.7-5.5-44.7-10.1-44.7-10.1S818,24.4,815.8,28.1c-4.3,7-12.6,24.5-17.7,35.4
				C795.4,69.1,786.5,74.2,786.5,74.2z"/>
			<polygon class="st5" points="757.5,42.8 748.8,31.8 701.6,50.9 710.2,62.3 729.3,103 739.6,114.9 785.4,89.7 775.2,79.5 			"/>
		</g>
	</g>
	<line class="st3" x1="410.8" y1="680.8" x2="304.7" y2="623"/>
	<line class="st3" x1="410.9" y1="636" x2="344.6" y2="599.9"/>
	<line class="st3" x1="411" y1="592.4" x2="382.4" y2="576.8"/>
	<line class="st3" x1="169.6" y1="839.6" x2="46.5" y2="770.1"/>
</g>
<g>
	<polygon class="st6" points="277.1,577.8 192.1,626.5 192.1,712 275.6,762.7 360.6,712.5 360.6,628.5 	"/>
	<g>
		<polygon class="st3" points="277.1,577.8 192.1,626.5 192.1,712 275.6,762.7 360.6,712.5 360.6,628.5 		"/>
		<polyline class="st3" points="360.6,628.5 275.6,676.9 192.1,626.5 		"/>
		<line class="st3" x1="275.6" y1="762.7" x2="275.6" y2="676.9"/>
		<polyline class="st3" points="360.6,648.1 276.3,698.8 192.1,648.1 		"/>
	</g>
</g>
<g>
	<polygon class="st7" points="133.6,713.2 77.6,745.3 77.6,801.6 132.6,835 188.6,801.9 188.6,746.6 	"/>
	<g>
		<polygon class="st3" points="133.6,713.2 77.6,745.3 77.6,801.6 132.6,835 188.6,801.9 188.6,746.6 		"/>
		<polyline class="st3" points="188.6,746.6 132.6,778.5 77.6,745.3 		"/>
		<line class="st3" x1="132.6" y1="835" x2="132.6" y2="778.5"/>
		<polyline class="st3" points="188.6,759.5 133.1,792.9 77.6,759.5 		"/>
	</g>
</g>
<g class="st8">
	
		<linearGradient id="SVGID_6_" gradientUnits="userSpaceOnUse" x1="66.9" y1="468.95" x2="149.2" y2="468.95" gradientTransform="matrix(1 0 0 -1 0 896)">
		<stop  offset="0" style="stop-color:#6E19BF"/>
		<stop  offset="1" style="stop-color:#5129D7"/>
	</linearGradient>
	<path class="st9" d="M137.2,468.2H78.9c-6.6,0-12-5.4-12-12v-58.3c0-6.6,5.4-12,12-12h58.3c6.6,0,12,5.4,12,12v58.3
		C149.2,462.8,143.8,468.2,137.2,468.2z"/>
	
		<linearGradient id="SVGID_7_" gradientUnits="userSpaceOnUse" x1="66.9" y1="686.05" x2="149.2" y2="686.05" gradientTransform="matrix(1 0 0 -1 0 896)">
		<stop  offset="0" style="stop-color:#3F25A2"/>
		<stop  offset="1" style="stop-color:#A591E2"/>
	</linearGradient>
	<path class="st10" d="M137.2,251.1H78.9c-6.6,0-12-5.4-12-12v-58.3c0-6.6,5.4-12,12-12h58.3c6.6,0,12,5.4,12,12v58.3
		C149.2,245.7,143.8,251.1,137.2,251.1z"/>
	
		<linearGradient id="SVGID_8_" gradientUnits="userSpaceOnUse" x1="66.9" y1="583.15" x2="149.2" y2="583.15" gradientTransform="matrix(1 0 0 -1 0 896)">
		<stop  offset="0" style="stop-color:#3D21C1"/>
		<stop  offset="1" style="stop-color:#5129D7"/>
	</linearGradient>
	<path class="st11" d="M137.2,354H78.9c-6.6,0-12-5.4-12-12v-58.3c0-6.6,5.4-12,12-12h58.3c6.6,0,12,5.4,12,12V342
		C149.2,348.6,143.8,354,137.2,354z"/>
</g>
</svg>
