<?xml version="1.0" encoding="utf-8"?>
<!-- Generator: Adobe Illustrator 22.0.1, SVG Export Plug-In . SVG Version: 6.00 Build 0)  -->
<svg version="1.1" id="pattern" xmlns="http://www.w3.org/2000/svg" xmlns:xlink="http://www.w3.org/1999/xlink" x="0px" y="0px"
	 viewBox="0 0 800 103.3" style="enable-background:new 0 0 800 103.3;" xml:space="preserve">
<style type="text/css">
	.st0{fill:none;}
	.st1{fill:#F5F5F5;}
	.st2{fill:#65B2C2;}
	.st3{display:none;fill:url(#SVGID_1_);}
	.st4{display:none;}
	.st5{display:none;fill:none;stroke:#000000;stroke-width:5;stroke-miterlimit:10;}
	.st6{opacity:0.5;}
	.st7{fill:none;stroke:#FFFFFF;stroke-linecap:round;stroke-linejoin:round;}
	.st8{fill:none;stroke:#FFFFFF;stroke-linecap:round;stroke-linejoin:round;stroke-dasharray:3.9825,3.9825;}
	.st9{opacity:0.4;}
	.st10{opacity:0.3;}
	.st11{opacity:0.2;}
	.st12{opacity:0.1;}
	.st13{opacity:5.000000e-02;}
</style>
<pattern  x="329" y="275.7" width="322.6" height="241.9" patternUnits="userSpaceOnUse" id="Nueva_muestra_de_motivo_1" viewBox="0 -241.9 322.6 241.9" style="overflow:visible;">
	<g>
		<rect y="-241.9" class="st0" width="322.6" height="241.9"/>
		<path class="st1" d="M322.6-26.3v-19.1c-26,0-43.1,4-57.6,9.5C279.5-30.3,296.6-26.3,322.6-26.3z"/>
		<path class="st1" d="M57.6-35.9C43.1-41.4,26-45.4,0-45.4v19.1c0,0,0,0,0,0C26-26.3,43.1-30.3,57.6-35.9z"/>
		<path class="st1" d="M101.5-156.8c15,6,32.5,10.4,59.7,10.4c27.3,0,44.8-4.4,59.8-10.4c-15-6-32.5-10.4-59.7-10.4
			C134-167.2,116.5-162.8,101.5-156.8z"/>
		<path class="st1" d="M161.3-188.9c-39.2,0-58.3,9.2-78.5,18.9c-1.6,0.8-3.3,1.6-4.9,2.4c1.7,0.8,3.3,1.6,4.9,2.3
			c2.2,1.1,4.4,2.1,6.6,3.2c17.5-7.9,37.7-14.7,71.9-14.7c34.2,0,54.4,6.9,71.9,14.7c2.2-1,4.4-2.1,6.6-3.2c1.6-0.8,3.3-1.6,4.9-2.4
			c-1.7-0.8-3.3-1.6-4.9-2.3C219.6-179.7,200.5-188.9,161.3-188.9z"/>
		<path class="st1" d="M161.3-210.6c-39.2,0-58.3,9.2-78.5,18.9c-9.8,4.7-19.8,9.5-32.2,13.2c5.6,1.7,10.7,3.6,15.5,5.6
			c4.2-1.9,8.3-3.8,12.5-5.8c20.3-9.7,41.3-19.8,82.7-19.8c41.4,0,62.4,10.1,82.7,19.8c4.1,2,8.2,3.9,12.4,5.8
			c4.8-2,9.9-3.9,15.5-5.6c-12.4-3.7-22.4-8.5-32.2-13.2C219.6-201.4,200.5-210.6,161.3-210.6z"/>
		<path class="st1" d="M224.9-241.9h-63.6c41.4,0,62.4,10.1,82.7,19.8c20.2,9.7,39.3,18.9,78.5,18.9v-12
			c-41.4,0-62.4-10.1-82.7-19.8C234.9-237.4,230-239.7,224.9-241.9z"/>
		<path class="st1" d="M78.5-222.1c20.3-9.7,41.3-19.8,82.7-19.8H97.6c-5.1,2.2-10,4.5-14.9,6.9c-20.3,9.8-41.3,19.8-82.7,19.8
			c0,0,0,0,0,0v12c0,0,0,0,0,0C39.2-203.2,58.3-212.4,78.5-222.1z"/>
		<path class="st1" d="M74.7-241.9H44.8c-12.1,3.1-26.4,5-44.7,5c0,0,0,0,0,0v12c0,0,0,0,0,0C36.7-224.9,55.8-232.9,74.7-241.9z"/>
		<path class="st1" d="M247.9-241.9c18.9,9,38,17,74.7,17v-12c-18.4,0-32.7-2-44.7-5H247.9z"/>
		<path class="st1" d="M161.3-232.2c-39.2,0-58.3,9.2-78.5,18.9c-20.3,9.8-41.3,19.8-82.7,19.8c0,0,0,0,0,0v8.4
			c10.5,0,19.6,0.6,27.8,1.8c21.8-3.2,36-10,50.8-17c20.3-9.8,41.3-19.8,82.7-19.8c41.4,0,62.4,10.1,82.7,19.8
			c14.8,7.1,28.9,13.9,50.8,17c8.2-1.1,17.3-1.8,27.8-1.8v-8.4c-41.4,0-62.4-10.1-82.7-19.8C219.6-223.1,200.5-232.2,161.3-232.2z"
			/>
		<path class="st2" d="M294.8-183.4c8.2-1.1,17.3-1.8,27.8-1.8v3.6v6.1c-10.6,0-19.7,0.7-27.8,1.8c-9.6,1.4-17.7,3.5-25,6
			c-4.7,1.6-9.1,3.4-13.3,5.3c-4.1,1.8-8,3.7-12,5.6c-0.2,0.1-0.3,0.2-0.5,0.2c-3.5,1.7-7.1,3.4-10.8,5.1
			c-17.5,7.9-37.7,14.7-71.9,14.7c-34.2,0-54.4-6.9-71.9-14.7c-3.7-1.7-7.3-3.4-10.8-5.1c-0.2-0.1-0.3-0.2-0.5-0.2
			c-4-1.9-7.9-3.8-12-5.6c-4.2-1.9-8.6-3.7-13.3-5.3c-7.3-2.5-15.4-4.6-25-6c-8.1-1.2-17.2-1.8-27.8-1.8v-6.1v-3.6
			c10.5,0,19.6,0.6,27.8,1.8c21.8-3.2,36-10,50.8-17c20.3-9.8,41.3-19.8,82.7-19.8c41.4,0,62.4,10.1,82.7,19.8
			C258.8-193.3,272.9-186.5,294.8-183.4z M221-156.8c-15-6-32.5-10.4-59.7-10.4c-27.3,0-44.8,4.4-59.8,10.4
			c15,6,32.5,10.4,59.7,10.4C188.5-146.4,206.1-150.9,221-156.8z M244.7-167.7c-1.7-0.8-3.3-1.6-4.9-2.3
			c-20.2-9.7-39.3-18.9-78.5-18.9c-39.2,0-58.3,9.2-78.5,18.9c-1.6,0.8-3.3,1.6-4.9,2.4c1.7,0.8,3.3,1.6,4.9,2.3
			c2.2,1.1,4.4,2.1,6.6,3.2c17.5-7.9,37.7-14.7,71.9-14.7c34.2,0,54.4,6.9,71.9,14.7c2.2-1,4.4-2.1,6.6-3.2
			C241.5-166.1,243.1-166.9,244.7-167.7z M272-178.5c-12.4-3.7-22.4-8.5-32.2-13.2c-20.2-9.7-39.3-18.9-78.5-18.9
			c-39.2,0-58.3,9.2-78.5,18.9c-9.8,4.7-19.8,9.5-32.2,13.2c5.6,1.7,10.7,3.6,15.5,5.6c4.2-1.9,8.3-3.8,12.5-5.8
			c20.3-9.7,41.3-19.8,82.7-19.8c41.4,0,62.4,10.1,82.7,19.8c4.1,2,8.2,3.9,12.4,5.8C261.3-174.9,266.4-176.8,272-178.5z"/>
		<path class="st2" d="M161.3-241.9c-41.4,0-62.4,10.1-82.7,19.8c-20.2,9.7-39.3,18.9-78.5,18.9c0,0,0,0,0,0v9.7c0,0,0,0,0,0
			c41.4,0,62.4-10.1,82.7-19.8c20.2-9.7,39.3-18.9,78.5-18.9c39.2,0,58.3,9.2,78.5,18.9c20.3,9.7,41.3,19.8,82.7,19.8v-9.7
			c-39.2,0-58.3-9.2-78.5-18.9C223.7-231.8,202.7-241.9,161.3-241.9z"/>
		<path class="st2" d="M44.8-241.9H0v5c0,0,0,0,0,0C18.4-236.9,32.7-238.9,44.8-241.9z"/>
		<path class="st2" d="M277.8-241.9c12.1,3.1,26.4,5,44.7,5v-5H277.8z"/>
		<path class="st2" d="M82.7-235c4.9-2.4,9.8-4.7,14.9-6.9H74.7c-18.9,9-38,17-74.7,17c0,0,0,0,0,0v9.7c0,0,0,0,0,0
			C41.4-215.2,62.4-225.3,82.7-235z"/>
		<path class="st2" d="M224.9-241.9c5.1,2.2,10,4.5,14.9,6.9c20.3,9.7,41.3,19.8,82.7,19.8v-9.7c-36.7,0-55.8-8-74.7-17H224.9z"/>
		<path class="st1" d="M78.5-45.2c1-0.5,2.1-1,3.2-1.5c-1.1-0.5-2.1-1-3.2-1.5C58.3-57.9,39.2-67.1,0-67.1v12c33,0,53,6.4,70.1,13.9
			C72.9-42.5,75.7-43.8,78.5-45.2z"/>
		<path class="st1" d="M240.9-46.7c1.1,0.5,2.1,1,3.2,1.5c2.8,1.4,5.6,2.7,8.5,4c17-7.5,37.1-13.9,70.1-13.9v-12
			c-39.2,0-58.3,9.2-78.5,18.9C243-47.7,241.9-47.2,240.9-46.7z"/>
		<path class="st1" d="M93.2-52c4.6-2,9.5-3.9,14.7-5.6c-11.1-3.6-20.4-8-29.4-12.3C58.3-79.6,39.2-88.8,0-88.8v12
			c41.4,0,62.4,10.1,82.7,19.8C86.2-55.3,89.7-53.6,93.2-52z"/>
		<path class="st1" d="M214.6-57.5c5.3,1.7,10.1,3.6,14.7,5.6c3.5-1.6,7-3.3,10.5-4.9c20.3-9.7,41.3-19.8,82.7-19.8v-12
			c-39.2,0-58.3,9.2-78.5,18.9C234.9-65.5,225.7-61.1,214.6-57.5z"/>
		<path class="st1" d="M244-113.2c-20.3,9.7-41.3,19.8-82.7,19.8c-41.4,0-62.4-10.1-82.7-19.8c-14.8-7.1-28.9-13.9-50.8-17
			c-8.1-1.2-17.2-1.8-27.8-1.8v3.6v8.4c41.4,0,62.4,10.1,82.7,19.8c20.2,9.7,39.3,18.9,78.5,18.9c39.2,0,58.3-9.2,78.5-18.9
			c20.3-9.7,41.3-19.8,82.7-19.8v-8.4v-3.6c-10.6,0-19.7,0.7-27.8,1.8C272.9-127.1,258.8-120.3,244-113.2z"/>
		<path class="st1" d="M269.8-146c-4.7,1.6-9.1,3.4-13.3,5.3c-4.2,1.9-8.3,3.8-12.5,5.8c-20.3,9.7-41.3,19.8-82.7,19.8
			c-41.4,0-62.4-10.1-82.7-19.8c-4.1-2-8.2-3.9-12.5-5.8c-4.2-1.9-8.6-3.7-13.3-5.3c-7.3-2.5-15.4-4.6-25-6
			c-8.1-1.2-17.2-1.8-27.8-1.8v3.6v8.4c10.5,0,19.6,0.6,27.8,1.8c8.5,1.2,16,2.9,22.8,4.9c12.4,3.7,22.4,8.5,32.2,13.2
			c20.2,9.7,39.3,18.9,78.5,18.9c39.2,0,58.3-9.2,78.5-18.9c9.8-4.7,19.8-9.5,32.2-13.2c6.8-2,14.2-3.7,22.8-4.9
			c8.2-1.1,17.3-1.8,27.8-1.8v-8.4v-3.6c-10.6,0-19.7,0.7-27.8,1.8C285.2-150.6,277.1-148.5,269.8-146z"/>
		<path class="st1" d="M269.8-167.7c-4.7,1.6-9.1,3.4-13.3,5.3c-4.1,1.8-8,3.7-12,5.6c-0.2,0.1-0.3,0.2-0.5,0.2
			c-3.5,1.7-7.1,3.4-10.8,5.1c-17.5,7.9-37.7,14.7-71.9,14.7c-34.2,0-54.4-6.9-71.9-14.7c-3.7-1.7-7.3-3.4-10.8-5.1
			c-0.2-0.1-0.3-0.2-0.5-0.2c-4-1.9-7.9-3.8-12-5.6c-4.2-1.9-8.6-3.7-13.3-5.3c-7.3-2.5-15.4-4.6-25-6c-8.1-1.2-17.2-1.8-27.8-1.8
			v3.6v8.4c10.5,0,19.6,0.6,27.8,1.8c8.5,1.2,16,2.9,22.8,4.9c5.6,1.7,10.7,3.6,15.5,5.6c4.1,1.7,7.9,3.5,11.7,5.3
			c1.7,0.8,3.3,1.6,4.9,2.4c20.2,9.7,39.3,18.9,78.5,18.9c39.2,0,58.3-9.2,78.5-18.9c1.6-0.8,3.3-1.6,4.9-2.4
			c3.8-1.8,7.7-3.6,11.7-5.3c4.8-2,9.9-3.9,15.5-5.6c6.8-2,14.2-3.7,22.8-4.9c8.2-1.1,17.3-1.8,27.8-1.8v-8.4v-3.6
			c-10.6,0-19.7,0.7-27.8,1.8C285.2-172.2,277.1-170.2,269.8-167.7z"/>
		<path class="st1" d="M161.3-71.7c-41.4,0-62.4-10.1-82.7-19.8c-20.2-9.7-39.3-18.9-78.5-18.9v12c41.4,0,62.4,10.1,82.7,19.8
			c13.5,6.5,26.6,12.7,45.4,16.2c9.5-1.6,20.3-2.6,33.1-2.6c12.8,0,23.6,1,33.1,2.6c18.9-3.4,31.9-9.7,45.4-16.2
			c20.3-9.7,41.3-19.8,82.7-19.8v-12c-39.2,0-58.3,9.2-78.5,18.9C223.7-81.8,202.7-71.7,161.3-71.7z"/>
		<path class="st2" d="M194.4-62.4c-9.5-1.6-20.3-2.6-33.1-2.6c-12.8,0-23.6,1-33.1,2.6c-18.9-3.4-31.9-9.7-45.4-16.2
			C62.4-88.4,41.4-98.4,0-98.4v9.7c39.2,0,58.3,9.2,78.5,18.9c9.1,4.4,18.3,8.8,29.4,12.3c-5.3,1.7-10.1,3.6-14.7,5.6
			c-3.5-1.6-7-3.3-10.5-4.9C62.4-66.7,41.4-76.8,0-76.8v9.7c39.2,0,58.3,9.2,78.5,18.9c1,0.5,2.1,1,3.2,1.5c-1.1,0.5-2.1,1-3.2,1.5
			c-2.8,1.4-5.6,2.7-8.5,4C53-48.7,33-55.1,0-55.1v9.7c26,0,43.1,4,57.6,9.6C43.1-30.3,26-26.3,0-26.3c0,0,0,0,0,0v9.7c0,0,0,0,0,0
			c33,0,53-6.4,70.1-13.9c3.9-1.7,7.7-3.5,11.4-5.3c0.4-0.2,0.8-0.4,1.3-0.6c3.5-1.7,7-3.3,10.5-4.9c4.1-1.9,8.4-3.7,12.9-5.3
			c6.6-2.4,13.8-4.4,22-5.9c9.3-1.7,20.1-2.7,33.1-2.7c13,0,23.8,1,33.1,2.7c8.3,1.5,15.5,3.6,22,5.9c4.5,1.6,8.7,3.4,12.9,5.3
			c3.5,1.6,7,3.3,10.5,4.9c0.4,0.2,0.8,0.4,1.3,0.6c3.7,1.8,7.5,3.6,11.4,5.3c17,7.5,37.1,13.9,70.1,13.9v-9.7
			c-26,0-43.1-4-57.6-9.6c14.5-5.5,31.6-9.5,57.6-9.5v-9.7c-33,0-53,6.4-70.1,13.9c-2.8-1.3-5.7-2.7-8.5-4c-1-0.5-2.1-1-3.2-1.5
			c1.1-0.5,2.1-1,3.1-1.5c20.2-9.7,39.3-18.9,78.5-18.9v-9.7c-41.4,0-62.4,10.1-82.7,19.8c-3.5,1.7-7,3.3-10.5,4.9
			c-4.6-2-9.5-3.9-14.7-5.6c11.1-3.6,20.4-8,29.4-12.3c20.2-9.7,39.3-18.9,78.5-18.9v-9.7c-41.4,0-62.4,10.1-82.7,19.8
			C226.3-72.1,213.3-65.9,194.4-62.4z"/>
		<path class="st2" d="M161.3-81.4c-39.2,0-58.3-9.2-78.5-18.9C62.4-110,41.4-120.1,0-120.1v9.7c39.2,0,58.3,9.2,78.5,18.9
			c20.3,9.7,41.3,19.8,82.7,19.8c41.4,0,62.4-10.1,82.7-19.8c20.2-9.7,39.3-18.9,78.5-18.9v-9.7c-41.4,0-62.4,10.1-82.7,19.8
			C219.6-90.6,200.5-81.4,161.3-81.4z"/>
		<path class="st2" d="M272-156.8c-5.6,1.7-10.7,3.6-15.5,5.6c-4.1,1.7-7.9,3.5-11.7,5.3c-1.7,0.8-3.3,1.6-4.9,2.4
			c-20.2,9.7-39.3,18.9-78.5,18.9c-39.2,0-58.3-9.2-78.5-18.9c-1.6-0.8-3.3-1.6-4.9-2.4c-3.8-1.8-7.7-3.6-11.7-5.3
			c-4.8-2-9.9-3.9-15.5-5.6c-6.8-2-14.2-3.7-22.8-4.9c-8.2-1.1-17.3-1.8-27.8-1.8v3.6v6.1c10.6,0,19.7,0.7,27.8,1.8
			c9.6,1.4,17.7,3.5,25,6c4.7,1.6,9.1,3.4,13.3,5.3c4.2,1.9,8.3,3.8,12.5,5.8c20.3,9.7,41.3,19.8,82.7,19.8
			c41.4,0,62.4-10.1,82.7-19.8c4.1-2,8.2-3.9,12.5-5.8c4.2-1.9,8.6-3.7,13.3-5.3c7.3-2.5,15.4-4.6,25-6c8.1-1.2,17.2-1.8,27.8-1.8
			v-6.1v-3.6c-10.5,0-19.6,0.6-27.8,1.8C286.2-160.5,278.8-158.8,272-156.8z"/>
		<path class="st2" d="M272-135.2c-12.4,3.7-22.4,8.5-32.2,13.2c-20.2,9.7-39.3,18.9-78.5,18.9c-39.2,0-58.3-9.2-78.5-18.9
			c-9.8-4.7-19.8-9.5-32.2-13.2c-6.8-2-14.2-3.7-22.8-4.9c-8.2-1.1-17.3-1.8-27.8-1.8v3.6v6.1c10.6,0,19.7,0.7,27.8,1.8
			c21.8,3.2,36,9.9,50.8,17c20.3,9.7,41.3,19.8,82.7,19.8c41.4,0,62.4-10.1,82.7-19.8c14.8-7.1,28.9-13.9,50.8-17
			c8.1-1.2,17.2-1.8,27.8-1.8v-6.1v-3.6c-10.5,0-19.6,0.6-27.8,1.8C286.2-138.9,278.8-137.2,272-135.2z"/>
		<path class="st1" d="M161.3-12c-13,0-23.8,1-33.1,2.7c-12,2.2-21.6,5.5-30.5,9.3h63.6h63.6c-8.9-3.8-18.5-7.1-30.5-9.3
			C185-11,174.3-12,161.3-12z"/>
		<path class="st1" d="M229.3-19.7c-4.1-1.9-8.4-3.7-12.9-5.3c-6.6-2.4-13.8-4.4-22-5.9c-9.3-1.7-20.1-2.7-33.1-2.7
			c-13,0-23.8,1-33.1,2.7c-8.3,1.5-15.5,3.6-22,5.9c-4.5,1.6-8.7,3.4-12.9,5.3c-3.5,1.6-7,3.3-10.5,4.9C71.4-9.4,59.9-3.8,44.7,0
			h29.9c1.3-0.6,2.6-1.2,3.9-1.8c9.1-4.4,18.3-8.8,29.4-12.3c6.1-1.9,12.7-3.6,20.2-4.9c9.5-1.6,20.3-2.6,33.1-2.6
			c12.8,0,23.6,1,33.1,2.6c7.5,1.3,14.1,3,20.2,4.9c11.1,3.6,20.4,8,29.4,12.3c1.3,0.6,2.6,1.2,3.9,1.8h29.9
			c-15.1-3.8-26.7-9.4-38-14.8C236.3-16.5,232.9-18.1,229.3-19.7z"/>
		<path class="st1" d="M241.1-35.9c-0.4-0.2-0.8-0.4-1.3-0.6c-3.5-1.7-7-3.3-10.5-4.9c-4.1-1.9-8.4-3.7-12.9-5.3
			c-6.6-2.4-13.8-4.4-22-5.9c-9.3-1.7-20.1-2.7-33.1-2.7c-13,0-23.8,1-33.1,2.7c-8.3,1.5-15.5,3.6-22,5.9c-4.5,1.6-8.7,3.4-12.9,5.3
			c-3.5,1.6-7,3.3-10.5,4.9c-0.4,0.2-0.8,0.4-1.3,0.6c-3.7,1.8-7.5,3.6-11.4,5.3C53-23,33-16.6,0-16.6c0,0,0,0,0,0v12c0,0,0,0,0,0
			c39.2,0,58.3-9.2,78.5-18.9c1-0.5,2.1-1,3.1-1.5c3.8-1.8,7.6-3.6,11.6-5.3c4.6-2,9.5-3.9,14.7-5.6c6.1-1.9,12.7-3.6,20.2-4.9
			c9.5-1.6,20.3-2.6,33.1-2.6c12.8,0,23.6,1,33.1,2.6c7.5,1.3,14.1,3,20.2,4.9c5.3,1.7,10.1,3.6,14.7,5.6c4,1.7,7.8,3.5,11.6,5.3
			c1.1,0.5,2.1,1,3.2,1.5c20.2,9.7,39.3,18.9,78.5,18.9v-12c-33,0-53-6.4-70.1-13.9C248.6-32.3,244.8-34.1,241.1-35.9z"/>
		<path class="st2" d="M240.9-25c-3.8-1.8-7.6-3.6-11.6-5.3c-4.6-2-9.5-3.9-14.7-5.6c-6.1-1.9-12.7-3.6-20.2-4.9
			c-9.5-1.6-20.3-2.6-33.1-2.6c-12.8,0-23.6,1-33.1,2.6c-7.5,1.3-14.1,3-20.2,4.9c-5.3,1.7-10.1,3.6-14.7,5.6
			c-4,1.7-7.8,3.5-11.6,5.3c-1.1,0.5-2.1,1-3.1,1.5C58.3-13.8,39.2-4.6,0-4.6c0,0,0,0,0,0V0h44.7c15.1-3.8,26.7-9.4,38-14.8
			c3.5-1.7,7-3.3,10.5-4.9c4.1-1.9,8.4-3.7,12.9-5.3c6.6-2.4,13.8-4.4,22-5.9c9.3-1.7,20.1-2.7,33.1-2.7c13,0,23.8,1,33.1,2.7
			c8.3,1.5,15.5,3.6,22,5.9c4.5,1.6,8.7,3.4,12.9,5.3c3.5,1.6,7,3.3,10.5,4.9c11.3,5.4,22.8,11,38,14.8h44.7v-4.6
			c-39.2,0-58.3-9.2-78.5-18.9C243-24,241.9-24.5,240.9-25z"/>
		<path class="st2" d="M214.6-14.2c-6.1-1.9-12.7-3.6-20.2-4.9c-9.5-1.6-20.3-2.6-33.1-2.6c-12.8,0-23.6,1-33.1,2.6
			c-7.5,1.3-14.1,3-20.2,4.9c-11.1,3.6-20.4,8-29.4,12.3C77.3-1.2,76-0.6,74.7,0h22.9c8.9-3.8,18.5-7.1,30.5-9.3
			c9.3-1.7,20.1-2.7,33.1-2.7c13,0,23.8,1,33.1,2.7c12,2.2,21.6,5.5,30.5,9.3h22.9c-1.3-0.6-2.6-1.2-3.9-1.8
			C234.9-6.2,225.7-10.6,214.6-14.2z"/>
	</g>
</pattern>
<pattern  id="SVGID_1_" xlink:href="#Nueva_muestra_de_motivo_1" patternTransform="matrix(1 0 0 1 13.8086 -618.3672)">
</pattern>
<polyline class="st3" points="0,-195.3 800,-195.3 800,604.7 0,604.7 "/>
<g class="st4">
</g>
<polyline class="st5" points="0,-260.2 80,-280.2 160,-250.2 240,-280.2 320,-250.2 400,-280.2 480,-250.2 560,-280.2 640,-250.2 
	720,-280.2 800,-250.2 "/>
<g class="st6">
	<g>
		<line class="st7" x1="0" y1="22.7" x2="1.9" y2="22.2"/>
		<path class="st8" d="M5.8,21.2l58-14.5c10.6-2.6,21.7-2,31.9,1.8l45.5,17c12.2,4.6,25.6,4.6,37.7,0l42.3-15.8
			c12.2-4.6,25.6-4.6,37.7,0l42.3,15.8c12.2,4.6,25.6,4.6,37.7,0l42.3-15.8c12.2-4.6,25.6-4.6,37.7,0l42.3,15.8
			c12.2,4.6,25.6,4.6,37.7,0l42.3-15.8c12.2-4.6,25.6-4.6,37.7,0l42.3,15.8c12.2,4.6,25.6,4.6,37.7,0l42.3-15.8
			c12.2-4.6,25.6-4.6,37.7,0l57.4,21.5"/>
		<line class="st7" x1="798.1" y1="32" x2="800" y2="32.7"/>
	</g>
</g>
<g class="st6">
	<g>
		<line class="st7" x1="0" y1="32.7" x2="1.9" y2="32.2"/>
		<path class="st8" d="M5.8,31.2l58-14.5c10.6-2.6,21.7-2,31.9,1.8l45.5,17c12.2,4.6,25.6,4.6,37.7,0l42.3-15.8
			c12.2-4.6,25.6-4.6,37.7,0l42.3,15.8c12.2,4.6,25.6,4.6,37.7,0l42.3-15.8c12.2-4.6,25.6-4.6,37.7,0l42.3,15.8
			c12.2,4.6,25.6,4.6,37.7,0l42.3-15.8c12.2-4.6,25.6-4.6,37.7,0l42.3,15.8c12.2,4.6,25.6,4.6,37.7,0l42.3-15.8
			c12.2-4.6,25.6-4.6,37.7,0l57.4,21.5"/>
		<line class="st7" x1="798.1" y1="42" x2="800" y2="42.7"/>
	</g>
</g>
<g class="st6">
	<g>
		<line class="st7" x1="0" y1="42.7" x2="1.9" y2="42.2"/>
		<path class="st8" d="M5.8,41.2l58-14.5c10.6-2.6,21.7-2,31.9,1.8l45.5,17c12.2,4.6,25.6,4.6,37.7,0l42.3-15.8
			c12.2-4.6,25.6-4.6,37.7,0l42.3,15.8c12.2,4.6,25.6,4.6,37.7,0l42.3-15.8c12.2-4.6,25.6-4.6,37.7,0l42.3,15.8
			c12.2,4.6,25.6,4.6,37.7,0l42.3-15.8c12.2-4.6,25.6-4.6,37.7,0l42.3,15.8c12.2,4.6,25.6,4.6,37.7,0l42.3-15.8
			c12.2-4.6,25.6-4.6,37.7,0l57.4,21.5"/>
		<line class="st7" x1="798.1" y1="52" x2="800" y2="52.7"/>
	</g>
</g>
<g class="st9">
	<g>
		<line class="st7" x1="0" y1="52.7" x2="1.9" y2="52.2"/>
		<path class="st8" d="M5.8,51.2l58-14.5c10.6-2.6,21.7-2,31.9,1.8l45.5,17c12.2,4.6,25.6,4.6,37.7,0l42.3-15.8
			c12.2-4.6,25.6-4.6,37.7,0l42.3,15.8c12.2,4.6,25.6,4.6,37.7,0l42.3-15.8c12.2-4.6,25.6-4.6,37.7,0l42.3,15.8
			c12.2,4.6,25.6,4.6,37.7,0l42.3-15.8c12.2-4.6,25.6-4.6,37.7,0l42.3,15.8c12.2,4.6,25.6,4.6,37.7,0l42.3-15.8
			c12.2-4.6,25.6-4.6,37.7,0l57.4,21.5"/>
		<line class="st7" x1="798.1" y1="62" x2="800" y2="62.7"/>
	</g>
</g>
<g class="st10">
	<g>
		<line class="st7" x1="0" y1="62.7" x2="1.9" y2="62.2"/>
		<path class="st8" d="M5.8,61.2l58-14.5c10.6-2.6,21.7-2,31.9,1.8l45.5,17c12.2,4.6,25.6,4.6,37.7,0l42.3-15.8
			c12.2-4.6,25.6-4.6,37.7,0l42.3,15.8c12.2,4.6,25.6,4.6,37.7,0l42.3-15.8c12.2-4.6,25.6-4.6,37.7,0l42.3,15.8
			c12.2,4.6,25.6,4.6,37.7,0l42.3-15.8c12.2-4.6,25.6-4.6,37.7,0l42.3,15.8c12.2,4.6,25.6,4.6,37.7,0l42.3-15.8
			c12.2-4.6,25.6-4.6,37.7,0l57.4,21.5"/>
		<line class="st7" x1="798.1" y1="72" x2="800" y2="72.7"/>
	</g>
</g>
<g class="st11">
	<g>
		<line class="st7" x1="0" y1="72.7" x2="1.9" y2="72.2"/>
		<path class="st8" d="M5.8,71.2l58-14.5c10.6-2.6,21.7-2,31.9,1.8l45.5,17c12.2,4.6,25.6,4.6,37.7,0l42.3-15.8
			c12.2-4.6,25.6-4.6,37.7,0l42.3,15.8c12.2,4.6,25.6,4.6,37.7,0l42.3-15.8c12.2-4.6,25.6-4.6,37.7,0l42.3,15.8
			c12.2,4.6,25.6,4.6,37.7,0l42.3-15.8c12.2-4.6,25.6-4.6,37.7,0l42.3,15.8c12.2,4.6,25.6,4.6,37.7,0l42.3-15.8
			c12.2-4.6,25.6-4.6,37.7,0l57.4,21.5"/>
		<line class="st7" x1="798.1" y1="82" x2="800" y2="82.7"/>
	</g>
</g>
<g class="st12">
	<g>
		<line class="st7" x1="0" y1="82.7" x2="1.9" y2="82.2"/>
		<path class="st8" d="M5.8,81.2l58-14.5c10.6-2.6,21.7-2,31.9,1.8l45.5,17c12.2,4.6,25.6,4.6,37.7,0l42.3-15.8
			c12.2-4.6,25.6-4.6,37.7,0l42.3,15.8c12.2,4.6,25.6,4.6,37.7,0l42.3-15.8c12.2-4.6,25.6-4.6,37.7,0l42.3,15.8
			c12.2,4.6,25.6,4.6,37.7,0l42.3-15.8c12.2-4.6,25.6-4.6,37.7,0l42.3,15.8c12.2,4.6,25.6,4.6,37.7,0l42.3-15.8
			c12.2-4.6,25.6-4.6,37.7,0l57.4,21.5"/>
		<line class="st7" x1="798.1" y1="92" x2="800" y2="92.7"/>
	</g>
</g>
<g class="st13">
	<g>
		<line class="st7" x1="0" y1="92.7" x2="1.9" y2="92.2"/>
		<path class="st8" d="M5.8,91.2l58-14.5c10.6-2.6,21.7-2,31.9,1.8l45.5,17c12.2,4.6,25.6,4.6,37.7,0l42.3-15.8
			c12.2-4.6,25.6-4.6,37.7,0l42.3,15.8c12.2,4.6,25.6,4.6,37.7,0l42.3-15.8c12.2-4.6,25.6-4.6,37.7,0l42.3,15.8
			c12.2,4.6,25.6,4.6,37.7,0l42.3-15.8c12.2-4.6,25.6-4.6,37.7,0l42.3,15.8c12.2,4.6,25.6,4.6,37.7,0l42.3-15.8
			c12.2-4.6,25.6-4.6,37.7,0l57.4,21.5"/>
		<line class="st7" x1="798.1" y1="102" x2="800" y2="102.7"/>
	</g>
</g>
</svg>
