<?xml version="1.0" encoding="utf-8"?>
<!-- Generator: Adobe Illustrator 22.0.1, SVG Export Plug-In . SVG Version: 6.00 Build 0)  -->
<svg version="1.1" id="pattern" xmlns="http://www.w3.org/2000/svg" xmlns:xlink="http://www.w3.org/1999/xlink" x="0px" y="0px"
	 viewBox="0 0 142 142" style="enable-background:new 0 0 142 142;" xml:space="preserve">
<style type="text/css">
	.st0{opacity:0.2;}
	.st1{clip-path:url(#SVGID_2_);}
	.st2{fill:none;stroke:#FFFFFF;stroke-width:0.25;stroke-miterlimit:10;}
	.st3{clip-path:url(#SVGID_2_);fill:none;stroke:#FFFFFF;stroke-width:0.25;stroke-miterlimit:10;}
</style>
<g class="st0">
	<defs>
		<rect id="SVGID_1_" y="0" class="st0" width="142" height="142"/>
	</defs>
	<clipPath id="SVGID_2_">
		<use xlink:href="#SVGID_1_"  style="overflow:visible;"/>
	</clipPath>
	<g class="st1">
		<line class="st2" x1="0" y1="-0.5" x2="0" y2="142.3"/>
		<line class="st2" x1="11.8" y1="-0.5" x2="11.8" y2="142.3"/>
		<line class="st2" x1="23.7" y1="-0.5" x2="23.7" y2="142.3"/>
		<line class="st2" x1="35.5" y1="-0.5" x2="35.5" y2="142.3"/>
		<line class="st2" x1="47.3" y1="-0.5" x2="47.3" y2="142.3"/>
		<line class="st2" x1="59.2" y1="-0.5" x2="59.2" y2="142.3"/>
		<line class="st2" x1="71" y1="-0.5" x2="71" y2="142.3"/>
		<line class="st2" x1="82.8" y1="-0.5" x2="82.8" y2="142.3"/>
		<line class="st2" x1="94.7" y1="-0.5" x2="94.7" y2="142.3"/>
		<line class="st2" x1="106.5" y1="-0.5" x2="106.5" y2="142.3"/>
		<line class="st2" x1="118.3" y1="-0.5" x2="118.3" y2="142.3"/>
		<line class="st2" x1="130.2" y1="-0.5" x2="130.2" y2="142.3"/>
		<line class="st2" x1="142" y1="-0.5" x2="142" y2="142.3"/>
	</g>
	<line class="st3" x1="142.4" y1="0" x2="-0.4" y2="0"/>
	<line class="st3" x1="142.4" y1="11.8" x2="-0.4" y2="11.8"/>
	<line class="st3" x1="142.4" y1="23.7" x2="-0.4" y2="23.7"/>
	<line class="st3" x1="142.4" y1="35.5" x2="-0.4" y2="35.5"/>
	<line class="st3" x1="142.4" y1="47.3" x2="-0.4" y2="47.3"/>
	<line class="st3" x1="142.4" y1="59.2" x2="-0.4" y2="59.2"/>
	<line class="st3" x1="142.4" y1="71" x2="-0.4" y2="71"/>
	<line class="st3" x1="142.4" y1="82.8" x2="-0.4" y2="82.8"/>
	<line class="st3" x1="142.4" y1="94.7" x2="-0.4" y2="94.7"/>
	<line class="st3" x1="142.4" y1="106.5" x2="-0.4" y2="106.5"/>
	<line class="st3" x1="142.4" y1="118.3" x2="-0.4" y2="118.3"/>
	<line class="st3" x1="142.4" y1="130.2" x2="-0.4" y2="130.2"/>
	<line class="st3" x1="142.4" y1="142" x2="-0.4" y2="142"/>
	<use xlink:href="#SVGID_1_"  style="overflow:visible;fill:none;stroke:#FFFFFF;stroke-miterlimit:10;"/>
</g>
</svg>
