<?xml version="1.0" encoding="utf-8"?>
<!-- Generator: Adobe Illustrator 22.0.1, SVG Export Plug-In . SVG Version: 6.00 Build 0)  -->
<svg version="1.1" id="pattern" xmlns="http://www.w3.org/2000/svg" xmlns:xlink="http://www.w3.org/1999/xlink" x="0px" y="0px"
	 viewBox="0 0 800 87.7" style="enable-background:new 0 0 800 87.7;" xml:space="preserve">
<style type="text/css">
	.st0{fill:none;}
	.st1{fill:#F5F5F5;}
	.st2{fill:#65B2C2;}
	.st3{display:none;fill:url(#SVGID_2_);}
	.st4{display:none;fill:none;stroke:#000000;stroke-width:5;stroke-miterlimit:10;}
	.st5{opacity:0.5;}
	.st6{fill:none;stroke:#FFFFFF;stroke-linecap:round;stroke-linejoin:round;}
	.st7{fill:none;stroke:#FFFFFF;stroke-linecap:round;stroke-linejoin:round;stroke-dasharray:3.9825,3.9825;}
	.st8{opacity:0.4;}
	.st9{opacity:0.3;}
	.st10{opacity:0.2;}
	.st11{opacity:0.1;}
	.st12{opacity:5.000000e-02;}
</style>
<pattern  y="103.3" width="322.6" height="241.9" patternUnits="userSpaceOnUse" id="SVGID_1_" viewBox="0 -241.9 322.6 241.9" style="overflow:visible;">
	<g>
		<rect x="0" y="-241.9" class="st0" width="322.6" height="241.9"/>
		<g>
			<rect x="0" y="-241.9" class="st0" width="322.6" height="241.9"/>
			<path class="st1" d="M322.6-215.6v19.1c-26,0-43.1-4-57.6-9.5C279.5-211.6,296.6-215.6,322.6-215.6z"/>
			<path class="st1" d="M57.6-206c-14.5,5.5-31.6,9.5-57.6,9.5v-19.1l0,0C26-215.6,43.1-211.6,57.6-206z"/>
			<path class="st1" d="M101.5-85.1c15-6,32.5-10.4,59.7-10.4c27.3,0,44.8,4.4,59.8,10.4c-15,6-32.5,10.4-59.7,10.4
				C134-74.7,116.5-79.1,101.5-85.1z"/>
			<path class="st1" d="M161.3-53c-39.2,0-58.3-9.2-78.5-18.9c-1.6-0.8-3.3-1.6-4.9-2.4c1.7-0.8,3.3-1.6,4.9-2.3
				c2.2-1.1,4.4-2.1,6.6-3.2c17.5,7.9,37.7,14.7,71.9,14.7s54.4-6.9,71.9-14.7c2.2,1,4.4,2.1,6.6,3.2c1.6,0.8,3.3,1.6,4.9,2.4
				c-1.7,0.8-3.3,1.6-4.9,2.3C219.6-62.2,200.5-53,161.3-53z"/>
			<path class="st1" d="M161.3-31.3c-39.2,0-58.3-9.2-78.5-18.9C73-54.9,63-59.7,50.6-63.4c5.6-1.7,10.7-3.6,15.5-5.6
				c4.2,1.9,8.3,3.8,12.5,5.8c20.3,9.7,41.3,19.8,82.7,19.8s62.4-10.1,82.7-19.8c4.1-2,8.2-3.9,12.4-5.8c4.8,2,9.9,3.9,15.5,5.6
				c-12.4,3.7-22.4,8.5-32.2,13.2C219.6-40.5,200.5-31.3,161.3-31.3z"/>
			<path class="st1" d="M224.9,0h-63.6c41.4,0,62.4-10.1,82.7-19.8c20.2-9.7,39.3-18.9,78.5-18.9v12c-41.4,0-62.4,10.1-82.7,19.8
				C234.9-4.5,230-2.2,224.9,0z"/>
			<path class="st1" d="M78.5-19.8C98.8-10.1,119.8,0,161.2,0H97.6c-5.1-2.2-10-4.5-14.9-6.9C62.4-16.7,41.4-26.7,0-26.7l0,0v-12
				l0,0C39.2-38.7,58.3-29.5,78.5-19.8z"/>
			<path class="st1" d="M74.7,0H44.8C32.7-3.1,18.4-5,0.1-5l0,0v-12l0,0C36.7-17,55.8-9,74.7,0z"/>
			<path class="st1" d="M247.9,0c18.9-9,38-17,74.7-17v12c-18.4,0-32.7,2-44.7,5H247.9z"/>
			<path class="st1" d="M161.3-9.7c-39.2,0-58.3-9.2-78.5-18.9C62.5-38.4,41.5-48.4,0.1-48.4l0,0v-8.4c10.5,0,19.6-0.6,27.8-1.8
				c21.8,3.2,36,10,50.8,17C99-31.8,120-21.8,161.4-21.8s62.4-10.1,82.7-19.8c14.8-7.1,28.9-13.9,50.8-17c8.2,1.1,17.3,1.8,27.8,1.8
				v8.4c-41.4,0-62.4,10.1-82.7,19.8C219.6-18.8,200.5-9.7,161.3-9.7z"/>
			<path class="st2" d="M294.8-58.5c8.2,1.1,17.3,1.8,27.8,1.8v-3.6v-6.1c-10.6,0-19.7-0.7-27.8-1.8c-9.6-1.4-17.7-3.5-25-6
				c-4.7-1.6-9.1-3.4-13.3-5.3c-4.1-1.8-8-3.7-12-5.6c-0.2-0.1-0.3-0.2-0.5-0.2c-3.5-1.7-7.1-3.4-10.8-5.1
				c-17.5-7.9-37.7-14.7-71.9-14.7s-54.4,6.9-71.9,14.7c-3.7,1.7-7.3,3.4-10.8,5.1c-0.2,0.1-0.3,0.2-0.5,0.2c-4,1.9-7.9,3.8-12,5.6
				c-4.2,1.9-8.6,3.7-13.3,5.3c-7.3,2.5-15.4,4.6-25,6C19.7-67,10.6-66.4,0-66.4v6.1v3.6c10.5,0,19.6-0.6,27.8-1.8
				c21.8,3.2,36,10,50.8,17c20.3,9.8,41.3,19.8,82.7,19.8s62.4-10.1,82.7-19.8C258.8-48.6,272.9-55.4,294.8-58.5z M221-85.1
				c-15,6-32.5,10.4-59.7,10.4c-27.3,0-44.8-4.4-59.8-10.4c15-6,32.5-10.4,59.7-10.4C188.5-95.5,206.1-91,221-85.1z M244.7-74.2
				c-1.7,0.8-3.3,1.6-4.9,2.3C219.6-62.2,200.5-53,161.3-53S103-62.2,82.8-71.9c-1.6-0.8-3.3-1.6-4.9-2.4c1.7-0.8,3.3-1.6,4.9-2.3
				c2.2-1.1,4.4-2.1,6.6-3.2c17.5,7.9,37.7,14.7,71.9,14.7s54.4-6.9,71.9-14.7c2.2,1,4.4,2.1,6.6,3.2
				C241.5-75.8,243.1-75,244.7-74.2z M272-63.4c-12.4,3.7-22.4,8.5-32.2,13.2c-20.2,9.7-39.3,18.9-78.5,18.9S103-40.5,82.8-50.2
				C73-54.9,63-59.7,50.6-63.4c5.6-1.7,10.7-3.6,15.5-5.6c4.2,1.9,8.3,3.8,12.5,5.8c20.3,9.7,41.3,19.8,82.7,19.8
				s62.4-10.1,82.7-19.8c4.1-2,8.2-3.9,12.4-5.8C261.3-67,266.4-65.1,272-63.4z"/>
			<path class="st2" d="M161.3,0c-41.4,0-62.4-10.1-82.7-19.8C58.4-29.5,39.3-38.7,0.1-38.7l0,0v-9.7l0,0
				c41.4,0,62.4,10.1,82.7,19.8c20.2,9.7,39.3,18.9,78.5,18.9s58.3-9.2,78.5-18.9c20.3-9.7,41.3-19.8,82.7-19.8v9.7
				c-39.2,0-58.3,9.2-78.5,18.9C223.7-10.1,202.7,0,161.3,0z"/>
			<path class="st2" d="M44.8,0H0v-5l0,0C18.4-5,32.7-3,44.8,0z"/>
			<path class="st2" d="M277.8,0c12.1-3.1,26.4-5,44.7-5v5H277.8z"/>
			<path class="st2" d="M82.7-6.9c4.9,2.4,9.8,4.7,14.9,6.9H74.7C55.8-9,36.7-17,0-17l0,0v-9.7l0,0C41.4-26.7,62.4-16.6,82.7-6.9z"
				/>
			<path class="st2" d="M224.9,0c5.1-2.2,10-4.5,14.9-6.9c20.3-9.7,41.3-19.8,82.7-19.8v9.7c-36.7,0-55.8,8-74.7,17H224.9z"/>
			<path class="st1" d="M78.5-196.7c1,0.5,2.1,1,3.2,1.5c-1.1,0.5-2.1,1-3.2,1.5C58.3-184,39.2-174.8,0-174.8v-12
				c33,0,53-6.4,70.1-13.9C72.9-199.4,75.7-198.1,78.5-196.7z"/>
			<path class="st1" d="M240.9-195.2c1.1-0.5,2.1-1,3.2-1.5c2.8-1.4,5.6-2.7,8.5-4c17,7.5,37.1,13.9,70.1,13.9v12
				c-39.2,0-58.3-9.2-78.5-18.9C243-194.2,241.9-194.7,240.9-195.2z"/>
			<path class="st1" d="M93.2-189.9c4.6,2,9.5,3.9,14.7,5.6c-11.1,3.6-20.4,8-29.4,12.3c-20.2,9.7-39.3,18.9-78.5,18.9v-12
				c41.4,0,62.4-10.1,82.7-19.8C86.2-186.6,89.7-188.3,93.2-189.9z"/>
			<path class="st1" d="M214.6-184.4c5.3-1.7,10.1-3.6,14.7-5.6c3.5,1.6,7,3.3,10.5,4.9c20.3,9.7,41.3,19.8,82.7,19.8v12
				c-39.2,0-58.3-9.2-78.5-18.9C234.9-176.4,225.7-180.8,214.6-184.4z"/>
			<path class="st1" d="M244-128.7c-20.3-9.7-41.3-19.8-82.7-19.8s-62.4,10.1-82.7,19.8c-14.8,7.1-28.9,13.9-50.8,17
				c-8.1,1.2-17.2,1.8-27.8,1.8v-3.6v-8.4c41.4,0,62.4-10.1,82.7-19.8c20.2-9.7,39.3-18.9,78.5-18.9s58.3,9.2,78.5,18.9
				c20.3,9.7,41.3,19.8,82.7,19.8v8.4v3.6c-10.6,0-19.7-0.7-27.8-1.8C272.9-114.8,258.8-121.6,244-128.7z"/>
			<path class="st1" d="M269.8-95.9c-4.7-1.6-9.1-3.4-13.3-5.3c-4.2-1.9-8.3-3.8-12.5-5.8c-20.3-9.7-41.3-19.8-82.7-19.8
				S98.9-116.7,78.6-107c-4.1,2-8.2,3.9-12.5,5.8c-4.2,1.9-8.6,3.7-13.3,5.3c-7.3,2.5-15.4,4.6-25,6c-8.1,1.2-17.2,1.8-27.8,1.8
				v-3.6v-8.4c10.5,0,19.6-0.6,27.8-1.8c8.5-1.2,16-2.9,22.8-4.9C63-110.5,73-115.3,82.8-120c20.2-9.7,39.3-18.9,78.5-18.9
				s58.3,9.2,78.5,18.9c9.8,4.7,19.8,9.5,32.2,13.2c6.8,2,14.2,3.7,22.8,4.9c8.2,1.1,17.3,1.8,27.8,1.8v8.4v3.6
				c-10.6,0-19.7-0.7-27.8-1.8C285.2-91.3,277.1-93.4,269.8-95.9z"/>
			<path class="st1" d="M269.8-74.2c-4.7-1.6-9.1-3.4-13.3-5.3c-4.1-1.8-8-3.7-12-5.6c-0.2-0.1-0.3-0.2-0.5-0.2
				c-3.5-1.7-7.1-3.4-10.8-5.1c-17.5-7.9-37.7-14.7-71.9-14.7s-54.4,6.9-71.9,14.7c-3.7,1.7-7.3,3.4-10.8,5.1
				c-0.2,0.1-0.3,0.2-0.5,0.2c-4,1.9-7.9,3.8-12,5.6c-4.2,1.9-8.6,3.7-13.3,5.3c-7.3,2.5-15.4,4.6-25,6C19.7-67,10.6-66.4,0-66.4
				V-70v-8.4c10.5,0,19.6-0.6,27.8-1.8c8.5-1.2,16-2.9,22.8-4.9c5.6-1.7,10.7-3.6,15.5-5.6c4.1-1.7,7.9-3.5,11.7-5.3
				c1.7-0.8,3.3-1.6,4.9-2.4c20.2-9.7,39.3-18.9,78.5-18.9s58.3,9.2,78.5,18.9c1.6,0.8,3.3,1.6,4.9,2.4c3.8,1.8,7.7,3.6,11.7,5.3
				c4.8,2,9.9,3.9,15.5,5.6c6.8,2,14.2,3.7,22.8,4.9c8.2,1.1,17.3,1.8,27.8,1.8v8.4v3.6c-10.6,0-19.7-0.7-27.8-1.8
				C285.2-69.7,277.1-71.7,269.8-74.2z"/>
			<path class="st1" d="M161.3-170.2c-41.4,0-62.4,10.1-82.7,19.8c-20.2,9.7-39.3,18.9-78.5,18.9v-12c41.4,0,62.4-10.1,82.7-19.8
				c13.5-6.5,26.6-12.7,45.4-16.2c9.5,1.6,20.3,2.6,33.1,2.6s23.6-1,33.1-2.6c18.9,3.4,31.9,9.7,45.4,16.2
				c20.3,9.7,41.3,19.8,82.7,19.8v12c-39.2,0-58.3-9.2-78.5-18.9C223.7-160.1,202.7-170.2,161.3-170.2z"/>
			<path class="st2" d="M194.4-179.5c-9.5,1.6-20.3,2.6-33.1,2.6s-23.6-1-33.1-2.6c-18.9,3.4-31.9,9.7-45.4,16.2
				c-20.4,9.8-41.4,19.8-82.8,19.8v-9.7c39.2,0,58.3-9.2,78.5-18.9c9.1-4.4,18.3-8.8,29.4-12.3c-5.3-1.7-10.1-3.6-14.7-5.6
				c-3.5,1.6-7,3.3-10.5,4.9c-20.3,9.9-41.3,20-82.7,20v-9.7c39.2,0,58.3-9.2,78.5-18.9c1-0.5,2.1-1,3.2-1.5c-1.1-0.5-2.1-1-3.2-1.5
				c-2.8-1.4-5.6-2.7-8.5-4c-17,7.5-37,13.9-70,13.9v-9.7c26,0,43.1-4,57.6-9.6c-14.5-5.5-31.6-9.5-57.6-9.5l0,0v-9.7l0,0
				c33,0,53,6.4,70.1,13.9c3.9,1.7,7.7,3.5,11.4,5.3c0.4,0.2,0.8,0.4,1.3,0.6c3.5,1.7,7,3.3,10.5,4.9c4.1,1.9,8.4,3.7,12.9,5.3
				c6.6,2.4,13.8,4.4,22,5.9c9.3,1.7,20.1,2.7,33.1,2.7s23.8-1,33.1-2.7c8.3-1.5,15.5-3.6,22-5.9c4.5-1.6,8.7-3.4,12.9-5.3
				c3.5-1.6,7-3.3,10.5-4.9c0.4-0.2,0.8-0.4,1.3-0.6c3.7-1.8,7.5-3.6,11.4-5.3c17-7.5,37.1-13.9,70.1-13.9v9.7
				c-26,0-43.1,4-57.6,9.6c14.5,5.5,31.6,9.5,57.6,9.5v9.7c-33,0-53-6.4-70.1-13.9c-2.8,1.3-5.7,2.7-8.5,4c-1,0.5-2.1,1-3.2,1.5
				c1.1,0.5,2.1,1,3.1,1.5c20.2,9.7,39.3,18.9,78.5,18.9v9.7c-41.4,0-62.4-10.1-82.7-19.8c-3.5-1.7-7-3.3-10.5-4.9
				c-4.6,2-9.5,3.9-14.7,5.6c11.1,3.6,20.4,8,29.4,12.3c20.2,9.7,39.3,18.9,78.5,18.9v9.7c-41.4,0-62.4-10.1-82.7-19.8
				C226.3-169.8,213.3-176,194.4-179.5z"/>
			<path class="st2" d="M161.3-160.5c-39.2,0-58.3,9.2-78.5,18.9c-20.4,9.7-41.4,19.8-82.8,19.8v-9.7c39.2,0,58.3-9.2,78.5-18.9
				c20.3-9.7,41.3-19.8,82.7-19.8s62.4,10.1,82.7,19.8c20.2,9.7,39.3,18.9,78.5,18.9v9.7c-41.4,0-62.4-10.1-82.7-19.8
				C219.6-151.3,200.5-160.5,161.3-160.5z"/>
			<path class="st2" d="M272-85.1c-5.6-1.7-10.7-3.6-15.5-5.6c-4.1-1.7-7.9-3.5-11.7-5.3c-1.7-0.8-3.3-1.6-4.9-2.4
				c-20.2-9.7-39.3-18.9-78.5-18.9s-58.3,9.2-78.5,18.9c-1.6,0.8-3.3,1.6-4.9,2.4c-3.8,1.8-7.7,3.6-11.7,5.3
				c-4.8,2-9.9,3.9-15.5,5.6c-6.8,2-14.2,3.7-22.8,4.9c-8.2,1.1-17.3,1.8-27.8,1.8V-82v-6.1c10.6,0,19.7-0.7,27.8-1.8
				c9.6-1.4,17.7-3.5,25-6c4.7-1.6,9.1-3.4,13.3-5.3c4.2-1.9,8.3-3.8,12.5-5.8c20.3-9.7,41.3-19.8,82.7-19.8s62.4,10.1,82.7,19.8
				c4.1,2,8.2,3.9,12.5,5.8c4.2,1.9,8.6,3.7,13.3,5.3c7.3,2.5,15.4,4.6,25,6c8.1,1.2,17.2,1.8,27.8,1.8v6.1v3.6
				c-10.5,0-19.6-0.6-27.8-1.8C286.2-81.4,278.8-83.1,272-85.1z"/>
			<path class="st2" d="M272-106.7c-12.4-3.7-22.4-8.5-32.2-13.2c-20.2-9.7-39.3-18.9-78.5-18.9s-58.3,9.2-78.5,18.9
				c-9.8,4.7-19.8,9.5-32.2,13.2c-6.8,2-14.2,3.7-22.8,4.9C19.6-100.7,10.5-100,0-100v-3.6v-6.1c10.6,0,19.7-0.7,27.8-1.8
				c21.8-3.2,36-9.9,50.8-17c20.3-9.7,41.3-19.8,82.7-19.8s62.4,10.1,82.7,19.8c14.8,7.1,28.9,13.9,50.8,17
				c8.1,1.2,17.2,1.8,27.8,1.8v6.1v3.6c-10.5,0-19.6-0.6-27.8-1.8C286.2-103,278.8-104.7,272-106.7z"/>
			<path class="st1" d="M161.3-229.9c-13,0-23.8-1-33.1-2.7c-12-2.2-21.6-5.5-30.5-9.3h63.6h63.6c-8.9,3.8-18.5,7.1-30.5,9.3
				C185-230.9,174.3-229.9,161.3-229.9z"/>
			<path class="st1" d="M229.3-222.2c-4.1,1.9-8.4,3.7-12.9,5.3c-6.6,2.4-13.8,4.4-22,5.9c-9.3,1.7-20.1,2.7-33.1,2.7
				c-13,0-23.8-1-33.1-2.7c-8.3-1.5-15.5-3.6-22-5.9c-4.5-1.6-8.7-3.4-12.9-5.3c-3.5-1.6-7-3.3-10.5-4.9
				c-11.4-5.4-22.9-11-38.1-14.8h29.9c1.3,0.6,2.6,1.2,3.9,1.8c9.1,4.4,18.3,8.8,29.4,12.3c6.1,1.9,12.7,3.6,20.2,4.9
				c9.5,1.6,20.3,2.6,33.1,2.6s23.6-1,33.1-2.6c7.5-1.3,14.1-3,20.2-4.9c11.1-3.6,20.4-8,29.4-12.3c1.3-0.6,2.6-1.2,3.9-1.8h29.9
				c-15.1,3.8-26.7,9.4-38,14.8C236.3-225.4,232.9-223.8,229.3-222.2z"/>
			<path class="st1" d="M241.1-206c-0.4,0.2-0.8,0.4-1.3,0.6c-3.5,1.7-7,3.3-10.5,4.9c-4.1,1.9-8.4,3.7-12.9,5.3
				c-6.6,2.4-13.8,4.4-22,5.9c-9.3,1.7-20.1,2.7-33.1,2.7c-13,0-23.8-1-33.1-2.7c-8.3-1.5-15.5-3.6-22-5.9
				c-4.5-1.6-8.7-3.4-12.9-5.3c-3.5-1.6-7-3.3-10.5-4.9c-0.4-0.2-0.8-0.4-1.3-0.6c-3.7-1.8-7.5-3.6-11.4-5.3
				c-17.1-7.6-37.1-14-70.1-14l0,0v-12l0,0c39.2,0,58.3,9.2,78.5,18.9c1,0.5,2.1,1,3.1,1.5c3.8,1.8,7.6,3.6,11.6,5.3
				c4.6,2,9.5,3.9,14.7,5.6c6.1,1.9,12.7,3.6,20.2,4.9c9.5,1.6,20.3,2.6,33.1,2.6c12.8,0,23.6-1,33.1-2.6c7.5-1.3,14.1-3,20.2-4.9
				c5.3-1.7,10.1-3.6,14.7-5.6c4-1.7,7.8-3.5,11.6-5.3c1.1-0.5,2.1-1,3.2-1.5c20.2-9.7,39.3-18.9,78.5-18.9v12
				c-33,0-53,6.4-70.1,13.9C248.6-209.6,244.8-207.8,241.1-206z"/>
			<path class="st2" d="M240.9-216.9c-3.8,1.8-7.6,3.6-11.6,5.3c-4.6,2-9.5,3.9-14.7,5.6c-6.1,1.9-12.7,3.6-20.2,4.9
				c-9.5,1.6-20.3,2.6-33.1,2.6s-23.6-1-33.1-2.6c-7.5-1.3-14.1-3-20.2-4.9c-5.3-1.7-10.1-3.6-14.7-5.6c-4-1.7-7.8-3.5-11.6-5.3
				c-1.1-0.5-2.1-1-3.1-1.5c-20.3-9.7-39.4-18.9-78.6-18.9l0,0v-4.6h44.7c15.1,3.8,26.7,9.4,38,14.8c3.5,1.7,7,3.3,10.5,4.9
				c4.1,1.9,8.4,3.7,12.9,5.3c6.6,2.4,13.8,4.4,22,5.9c9.3,1.7,20.1,2.7,33.1,2.7s23.8-1,33.1-2.7c8.3-1.5,15.5-3.6,22-5.9
				c4.5-1.6,8.7-3.4,12.9-5.3c3.5-1.6,7-3.3,10.5-4.9c11.3-5.4,22.8-11,38-14.8h44.7v4.6c-39.2,0-58.3,9.2-78.5,18.9
				C243-217.9,241.9-217.4,240.9-216.9z"/>
			<path class="st2" d="M214.6-227.7c-6.1,1.9-12.7,3.6-20.2,4.9c-9.5,1.6-20.3,2.6-33.1,2.6c-12.8,0-23.6-1-33.1-2.6
				c-7.5-1.3-14.1-3-20.2-4.9c-11.1-3.6-20.4-8-29.4-12.3c-1.3-0.7-2.6-1.3-3.9-1.9h22.9c8.9,3.8,18.5,7.1,30.5,9.3
				c9.3,1.7,20.1,2.7,33.1,2.7s23.8-1,33.1-2.7c12-2.2,21.6-5.5,30.5-9.3h22.9c-1.3,0.6-2.6,1.2-3.9,1.8
				C234.9-235.7,225.7-231.3,214.6-227.7z"/>
		</g>
	</g>
</pattern>
<pattern  id="SVGID_2_" xlink:href="#SVGID_1_" patternTransform="matrix(1 0 0 -1 192.8086 -16201.832)">
</pattern>
<polyline class="st3" points="0,-195.3 800,-195.3 800,604.7 0,604.7 "/>
<polyline class="st4" points="0,-260.2 80,-280.2 160,-250.2 240,-280.2 320,-250.2 400,-280.2 480,-250.2 560,-280.2 640,-250.2 
	720,-280.2 800,-250.2 "/>
<g class="st5">
	<g>
		<line class="st6" x1="1.9" y1="83.4" x2="0" y2="82.9"/>
		<path class="st7" d="M796.3,74.4l-57.4,21.5c-12.1,4.6-25.5,4.6-37.7,0l-42.3-15.8c-12.1-4.6-25.5-4.6-37.7,0l-42.3,15.8
			c-12.1,4.6-25.5,4.6-37.7,0l-42.3-15.8c-12.1-4.6-25.5-4.6-37.7,0l-42.3,15.8c-12.1,4.6-25.5,4.6-37.7,0l-42.3-15.8
			c-12.1-4.6-25.5-4.6-37.7,0l-42.3,15.8c-12.1,4.6-25.5,4.6-37.7,0l-42.3-15.8c-12.1-4.6-25.5-4.6-37.7,0l-45.5,17
			c-10.2,3.8-21.3,4.4-31.9,1.8l-58-14.5"/>
		<line class="st6" x1="800" y1="72.9" x2="798.1" y2="73.6"/>
	</g>
</g>
<g class="st5">
	<g>
		<line class="st6" x1="1.9" y1="73.4" x2="0" y2="72.9"/>
		<path class="st7" d="M796.3,64.4l-57.4,21.5c-12.1,4.6-25.5,4.6-37.7,0l-42.3-15.8c-12.1-4.6-25.5-4.6-37.7,0l-42.3,15.8
			c-12.1,4.6-25.5,4.6-37.7,0l-42.3-15.8c-12.1-4.6-25.5-4.6-37.7,0l-42.3,15.8c-12.1,4.6-25.5,4.6-37.7,0l-42.3-15.8
			c-12.1-4.6-25.5-4.6-37.7,0l-42.3,15.8c-12.1,4.6-25.5,4.6-37.7,0l-42.3-15.8c-12.1-4.6-25.5-4.6-37.7,0l-45.5,17
			c-10.2,3.8-21.3,4.4-31.9,1.8l-58-14.5"/>
		<line class="st6" x1="800" y1="62.9" x2="798.1" y2="63.6"/>
	</g>
</g>
<g class="st5">
	<g>
		<line class="st6" x1="1.9" y1="63.4" x2="0" y2="62.9"/>
		<path class="st7" d="M796.3,54.4l-57.4,21.5c-12.1,4.6-25.5,4.6-37.7,0l-42.3-15.8c-12.1-4.6-25.5-4.6-37.7,0l-42.3,15.8
			c-12.1,4.6-25.5,4.6-37.7,0l-42.3-15.8c-12.1-4.6-25.5-4.6-37.7,0l-42.3,15.8c-12.1,4.6-25.5,4.6-37.7,0l-42.3-15.8
			c-12.1-4.6-25.5-4.6-37.7,0l-42.3,15.8c-12.1,4.6-25.5,4.6-37.7,0l-42.3-15.8c-12.1-4.6-25.5-4.6-37.7,0l-45.5,17
			c-10.2,3.8-21.3,4.4-31.9,1.8l-58-14.5"/>
		<line class="st6" x1="800" y1="52.9" x2="798.1" y2="53.6"/>
	</g>
</g>
<g class="st8">
	<g>
		<line class="st6" x1="1.9" y1="53.4" x2="0" y2="52.9"/>
		<path class="st7" d="M796.3,44.4l-57.4,21.5c-12.1,4.6-25.5,4.6-37.7,0l-42.3-15.8c-12.1-4.6-25.5-4.6-37.7,0l-42.3,15.8
			c-12.1,4.6-25.5,4.6-37.7,0l-42.3-15.8c-12.1-4.6-25.5-4.6-37.7,0l-42.3,15.8c-12.1,4.6-25.5,4.6-37.7,0l-42.3-15.8
			c-12.1-4.6-25.5-4.6-37.7,0l-42.3,15.8c-12.1,4.6-25.5,4.6-37.7,0l-42.3-15.8c-12.1-4.6-25.5-4.6-37.7,0l-45.5,17
			c-10.2,3.8-21.3,4.4-31.9,1.8l-58-14.5"/>
		<line class="st6" x1="800" y1="42.9" x2="798.1" y2="43.6"/>
	</g>
</g>
<g class="st9">
	<g>
		<line class="st6" x1="1.9" y1="43.4" x2="0" y2="42.9"/>
		<path class="st7" d="M796.3,34.4l-57.4,21.5c-12.1,4.6-25.5,4.6-37.7,0l-42.3-15.8c-12.1-4.6-25.5-4.6-37.7,0l-42.3,15.8
			c-12.1,4.6-25.5,4.6-37.7,0l-42.3-15.8c-12.1-4.6-25.5-4.6-37.7,0l-42.3,15.8c-12.1,4.6-25.5,4.6-37.7,0l-42.3-15.8
			c-12.1-4.6-25.5-4.6-37.7,0l-42.3,15.8c-12.1,4.6-25.5,4.6-37.7,0l-42.3-15.8c-12.1-4.6-25.5-4.6-37.7,0l-45.5,17
			c-10.2,3.8-21.3,4.4-31.9,1.8l-58-14.5"/>
		<line class="st6" x1="800" y1="32.9" x2="798.1" y2="33.6"/>
	</g>
</g>
<g class="st10">
	<g>
		<line class="st6" x1="1.9" y1="33.4" x2="0" y2="32.9"/>
		<path class="st7" d="M796.3,24.4l-57.4,21.5c-12.1,4.6-25.5,4.6-37.7,0l-42.3-15.8c-12.1-4.6-25.5-4.6-37.7,0l-42.3,15.8
			c-12.1,4.6-25.5,4.6-37.7,0l-42.3-15.8c-12.1-4.6-25.5-4.6-37.7,0l-42.3,15.8c-12.1,4.6-25.5,4.6-37.7,0l-42.3-15.8
			c-12.1-4.6-25.5-4.6-37.7,0l-42.3,15.8c-12.1,4.6-25.5,4.6-37.7,0l-42.3-15.8c-12.1-4.6-25.5-4.6-37.7,0l-45.5,17
			c-10.2,3.8-21.3,4.4-31.9,1.8l-58-14.5"/>
		<line class="st6" x1="800" y1="22.9" x2="798.1" y2="23.6"/>
	</g>
</g>
<g class="st11">
	<g>
		<line class="st6" x1="1.9" y1="23.4" x2="0" y2="22.9"/>
		<path class="st7" d="M796.3,14.4l-57.4,21.5c-12.1,4.6-25.5,4.6-37.7,0l-42.3-15.8c-12.1-4.6-25.5-4.6-37.7,0l-42.3,15.8
			c-12.1,4.6-25.5,4.6-37.7,0l-42.3-15.8c-12.1-4.6-25.5-4.6-37.7,0l-42.3,15.8c-12.1,4.6-25.5,4.6-37.7,0l-42.3-15.8
			c-12.1-4.6-25.5-4.6-37.7,0l-42.3,15.8c-12.1,4.6-25.5,4.6-37.7,0l-42.3-15.8c-12.1-4.6-25.5-4.6-37.7,0l-45.5,17
			c-10.2,3.8-21.3,4.4-31.9,1.8l-58-14.5"/>
		<line class="st6" x1="800" y1="12.9" x2="798.1" y2="13.6"/>
	</g>
</g>
<g class="st12">
	<g>
		<line class="st6" x1="1.9" y1="13.4" x2="0" y2="12.9"/>
		<path class="st7" d="M796.3,4.4l-57.4,21.5c-12.1,4.6-25.5,4.6-37.7,0l-42.3-15.8c-12.1-4.6-25.5-4.6-37.7,0l-42.3,15.8
			c-12.1,4.6-25.5,4.6-37.7,0l-42.3-15.8c-12.1-4.6-25.5-4.6-37.7,0l-42.3,15.8c-12.1,4.6-25.5,4.6-37.7,0l-42.3-15.8
			c-12.1-4.6-25.5-4.6-37.7,0l-42.3,15.8c-12.1,4.6-25.5,4.6-37.7,0l-42.3-15.8c-12.1-4.6-25.5-4.6-37.7,0l-45.5,17
			c-10.2,3.8-21.3,4.4-31.9,1.8l-58-14.5"/>
		<line class="st6" x1="800" y1="2.9" x2="798.1" y2="3.6"/>
	</g>
</g>
<g class="st5">
	<g>
		<line class="st6" x1="1.9" y1="93.4" x2="0" y2="92.9"/>
		<path class="st7" d="M796.3,84.4l-57.4,21.5c-12.1,4.6-25.5,4.6-37.7,0l-42.3-15.8c-12.1-4.6-25.5-4.6-37.7,0l-42.3,15.8
			c-12.1,4.6-25.5,4.6-37.7,0l-42.3-15.8c-12.1-4.6-25.5-4.6-37.7,0l-42.3,15.8c-12.1,4.6-25.5,4.6-37.7,0l-42.3-15.8
			c-12.1-4.6-25.5-4.6-37.7,0l-42.3,15.8c-12.1,4.6-25.5,4.6-37.7,0l-42.3-15.8c-12.1-4.6-25.5-4.6-37.7,0l-45.5,17
			c-10.2,3.8-21.3,4.4-31.9,1.8l-58-14.5"/>
		<line class="st6" x1="800" y1="82.9" x2="798.1" y2="83.6"/>
	</g>
</g>
</svg>
