<?xml version="1.0" encoding="utf-8"?>
<!-- Generator: Adobe Illustrator 22.0.1, SVG Export Plug-In . SVG Version: 6.00 Build 0)  -->
<svg version="1.1" id="Camada_1" xmlns="http://www.w3.org/2000/svg" xmlns:xlink="http://www.w3.org/1999/xlink" x="0px" y="0px"
	 viewBox="0 0 123.8 62.8" style="enable-background:new 0 0 123.8 62.8;" xml:space="preserve">
<style type="text/css">
	.st0{opacity:0.48;fill:url(#SVGID_1_);}
	.st1{fill:url(#SVGID_2_);}
	.st2{fill:url(#SVGID_3_);}
</style>
<g>
	<linearGradient id="SVGID_1_" gradientUnits="userSpaceOnUse" x1="2.6046" y1="31.4174" x2="39.768" y2="31.4174">
		<stop  offset="0" style="stop-color:#3D21C1"/>
		<stop  offset="1" style="stop-color:#5129D7"/>
	</linearGradient>
	<path class="st0" d="M20.9,50.2c-0.4,0-0.9,0-1.3,0c-2-0.1-3.4-1.8-3.3-3.8c0.1-2,1.8-3.4,3.8-3.3c1.2,0.1,2.4,0,3.6-0.3
		c1.2-0.3,2.3-0.8,3.4-1.4c1.7-1,3.8-0.5,4.9,1.1c1,1.7,0.5,3.8-1.1,4.9c-1.7,1-3.5,1.8-5.4,2.3C24,50,22.5,50.2,20.9,50.2z
		 M11.1,46.6c-0.8,0-1.6-0.3-2.3-0.8c-3.1-2.6-5.2-6-6.2-9.9c-0.5-1.9,0.7-3.8,2.6-4.3c1.9-0.5,3.8,0.7,4.3,2.6
		c0.6,2.4,1.9,4.5,3.8,6.1c1.5,1.3,1.7,3.5,0.4,5C13.2,46.2,12.2,46.6,11.1,46.6z M35.1,40.7c-0.4,0-0.9-0.1-1.3-0.3
		c-1.8-0.7-2.7-2.8-2-4.6c0.6-1.4,0.9-2.9,0.9-4.4c0-0.9-0.1-1.9-0.3-2.8h0l0-0.1c-0.5-1.9,0.7-3.8,2.6-4.3c1.9-0.5,3.8,0.7,4.3,2.6
		l0,0c0.4,1.5,0.6,3.1,0.6,4.6c0,2.4-0.5,4.8-1.4,7C37.8,39.8,36.5,40.7,35.1,40.7z M6.8,29.2c-0.4,0-0.9-0.1-1.3-0.3
		c-1.8-0.7-2.7-2.8-2-4.6c1.5-3.7,4.1-6.8,7.5-8.9c1.7-1,3.8-0.5,4.9,1.1c1,1.7,0.5,3.8-1.1,4.9c-2.1,1.3-3.7,3.3-4.6,5.6
		C9.5,28.4,8.2,29.2,6.8,29.2z M30.7,23.2c-0.8,0-1.6-0.3-2.3-0.8c-1.9-1.6-4.3-2.5-6.7-2.7c-2-0.1-3.4-1.8-3.3-3.8
		c0.1-2,1.8-3.4,3.8-3.3C26.2,12.9,30,14.4,33,17c1.5,1.3,1.7,3.5,0.5,5C32.8,22.8,31.8,23.2,30.7,23.2z"/>
	<linearGradient id="SVGID_2_" gradientUnits="userSpaceOnUse" x1="65.0294" y1="31.4" x2="121.1954" y2="31.4">
		<stop  offset="0" style="stop-color:#3D21C1"/>
		<stop  offset="1" style="stop-color:#5129D7"/>
	</linearGradient>
	<path class="st1" d="M93.1,59.5C77.6,59.5,65,46.9,65,31.4S77.6,3.3,93.1,3.3s28.1,12.6,28.1,28.1S108.6,59.5,93.1,59.5z
		 M93.1,13.9c-9.7,0-17.5,7.9-17.5,17.5c0,9.7,7.9,17.5,17.5,17.5c9.7,0,17.5-7.9,17.5-17.5C110.6,21.7,102.8,13.9,93.1,13.9z"/>
	<linearGradient id="SVGID_3_" gradientUnits="userSpaceOnUse" x1="44.3315" y1="31.1358" x2="60.4659" y2="31.1358">
		<stop  offset="0" style="stop-color:#3D21C1"/>
		<stop  offset="1" style="stop-color:#5129D7"/>
	</linearGradient>
	<path class="st2" d="M56.9,34.7h-9.1c-2,0-3.5-1.6-3.5-3.5s1.6-3.5,3.5-3.5h9.1c2,0,3.5,1.6,3.5,3.5S58.9,34.7,56.9,34.7z"/>
</g>
</svg>
