<?xml version="1.0" encoding="utf-8"?>
<!-- Generator: Adobe Illustrator 22.0.1, SVG Export Plug-In . SVG Version: 6.00 Build 0)  -->
<svg version="1.1" id="Camada_1" xmlns="http://www.w3.org/2000/svg" xmlns:xlink="http://www.w3.org/1999/xlink" x="0px" y="0px"
	 viewBox="0 0 100.3 100.3" style="enable-background:new 0 0 100.3 100.3;" xml:space="preserve">
<style type="text/css">
	.st0{opacity:0.5;fill:#FFFFFF;}
</style>
<g>
	<g>
		<g>
			<path class="st0" d="M61.1,81H23.9c-2.5,0-4.6-2.1-4.6-4.6V39.3c0-2.5,2.1-4.6,4.6-4.6h37.2c2.5,0,4.6,2.1,4.6,4.6v37.2
				C65.7,78.9,63.6,81,61.1,81z"/>
			<path class="st0" d="M68.7,73.3H31.6c-2.5,0-4.6-2.1-4.6-4.6V31.6c0-2.5,2.1-4.6,4.6-4.6h37.2c2.5,0,4.6,2.1,4.6,4.6v37.2
				C73.3,71.3,71.3,73.3,68.7,73.3z"/>
			<path class="st0" d="M76.4,65.7H39.3c-2.5,0-4.6-2.1-4.6-4.6V23.9c0-2.5,2.1-4.6,4.6-4.6h37.2c2.5,0,4.6,2.1,4.6,4.6v37.2
				C81,63.6,78.9,65.7,76.4,65.7z"/>
		</g>
	</g>
</g>
</svg>
