<?xml version="1.0" encoding="utf-8"?>
<!-- Generator: Adobe Illustrator 22.0.1, SVG Export Plug-In . SVG Version: 6.00 Build 0)  -->
<svg version="1.1" id="Camada_1" xmlns="http://www.w3.org/2000/svg" xmlns:xlink="http://www.w3.org/1999/xlink" x="0px" y="0px"
	 viewBox="0 0 245.9 64.2" style="enable-background:new 0 0 245.9 64.2;" xml:space="preserve">
<style type="text/css">
	.st0{display:none;}
	.st1{display:inline;opacity:0.48;fill:url(#SVGID_1_);enable-background:new    ;}
	.st2{display:inline;fill:url(#SVGID_2_);}
	.st3{display:inline;fill:url(#SVGID_3_);}
	.st4{fill:#1D1544;}
</style>
<g class="st0">
	
		<linearGradient id="SVGID_1_" gradientUnits="userSpaceOnUse" x1="-135.2471" y1="33.9025" x2="-98.0836" y2="33.9025" gradientTransform="matrix(1 0 0 -1 0 66)">
		<stop  offset="0" style="stop-color:#3D21C1"/>
		<stop  offset="1" style="stop-color:#5129D7"/>
	</linearGradient>
	<path class="st1" d="M-116.8,50.9c-0.4,0-0.9,0-1.3,0c-2-0.1-3.4-1.8-3.3-3.8s1.8-3.4,3.8-3.3c1.2,0.1,2.4,0,3.6-0.3
		c1.2-0.3,2.3-0.8,3.4-1.4c1.7-1,3.8-0.5,4.9,1.1c1,1.7,0.5,3.8-1.1,4.9c-1.7,1-3.5,1.8-5.4,2.3C-113.8,50.7-115.3,50.9-116.8,50.9z
		 M-126.6,47.3c-0.8,0-1.6-0.3-2.3-0.8c-3.1-2.6-5.2-6-6.2-9.9c-0.5-1.9,0.7-3.8,2.6-4.3c1.9-0.4,3.8,0.7,4.3,2.6
		c0.6,2.4,1.9,4.5,3.8,6.1c1.5,1.3,1.7,3.5,0.4,5C-124.6,46.9-125.6,47.3-126.6,47.3z M-102.7,41.4c-0.4,0-0.9-0.1-1.3-0.3
		c-1.8-0.7-2.7-2.8-2-4.6c0.6-1.4,0.9-2.9,0.9-4.4c0-0.9-0.1-1.9-0.3-2.8l0,0v-0.1c-0.5-1.9,0.7-3.8,2.6-4.3
		c1.9-0.5,3.8,0.7,4.3,2.6l0,0c0.4,1.5,0.6,3.1,0.6,4.6c0,2.4-0.5,4.8-1.4,7C-100,40.5-101.3,41.4-102.7,41.4z M-131,29.9
		c-0.4,0-0.9-0.1-1.3-0.3c-1.8-0.7-2.7-2.8-2-4.6c1.5-3.7,4.1-6.8,7.5-8.9c1.7-1,3.8-0.5,4.9,1.1c1,1.7,0.5,3.8-1.1,4.9
		c-2.1,1.3-3.7,3.3-4.6,5.6C-128.3,29.1-129.6,29.9-131,29.9z M-107.1,23.9c-0.8,0-1.6-0.3-2.3-0.8c-1.9-1.6-4.3-2.5-6.7-2.7
		c-2-0.1-3.4-1.8-3.3-3.8c0.1-2,1.8-3.4,3.8-3.3c3.9,0.3,7.7,1.8,10.8,4.3c1.5,1.3,1.7,3.5,0.5,5C-105,23.5-106,23.9-107.1,23.9z"/>
	
		<linearGradient id="SVGID_2_" gradientUnits="userSpaceOnUse" x1="-72.8334" y1="33.9" x2="-16.6334" y2="33.9" gradientTransform="matrix(1 0 0 -1 0 66)">
		<stop  offset="0" style="stop-color:#3D21C1"/>
		<stop  offset="1" style="stop-color:#5129D7"/>
	</linearGradient>
	<path class="st2" d="M-44.7,60.2c-15.5,0-28.1-12.6-28.1-28.1S-60.2,4-44.7,4s28.1,12.6,28.1,28.1S-29.2,60.2-44.7,60.2z
		 M-44.7,14.6c-9.7,0-17.5,7.9-17.5,17.5c0,9.7,7.9,17.5,17.5,17.5c9.7,0,17.5-7.9,17.5-17.5C-27.2,22.4-35,14.6-44.7,14.6z"/>
	
		<linearGradient id="SVGID_3_" gradientUnits="userSpaceOnUse" x1="-93.4958" y1="34.1" x2="-77.3614" y2="34.1" gradientTransform="matrix(1 0 0 -1 0 66)">
		<stop  offset="0" style="stop-color:#3D21C1"/>
		<stop  offset="1" style="stop-color:#5129D7"/>
	</linearGradient>
	<path class="st3" d="M-80.9,35.4H-90c-2,0-3.5-1.6-3.5-3.5s1.6-3.5,3.5-3.5h9.1c2,0,3.5,1.6,3.5,3.5
		C-77.4,33.8-78.9,35.4-80.9,35.4z"/>
</g>
<g>
	<path class="st4" d="M1.2,3.1c0-0.5,0.2-0.9,0.5-1.3S2.5,1.3,3,1.3h8.4c0.2,0,0.4,0,0.6,0.1c0.2,0.1,0.4,0.2,0.6,0.4
		C12.8,2,13,2.2,13.1,2.4s0.2,0.5,0.2,0.7v24.6L36.5,2.5c0.6-0.9,1.2-1.3,1.8-1.3h11.9c0.7,0,1.1,0.2,1.1,0.5c0,0.2-0.2,0.5-0.5,0.9
		L28.9,28.1l25.5,33c0.4,0.6,0.6,1,0.6,1.2c0,0.3-0.3,0.5-0.9,0.5H41.5c-0.7,0-1.3-0.4-1.8-1.3L20.2,36.8l-7,7.3v17
		c0,1.2-0.7,1.8-2,1.8H2.8C1.6,62.8,1,62.2,1,61V3.1H1.2z"/>
	<path class="st4" d="M60.9,32.1c0-2.9,0.4-5.7,1.1-8.4c0.7-2.7,1.8-5.2,3.2-7.6c1.4-2.3,3-4.5,5-6.4c1.9-1.9,4.1-3.6,6.4-5
		c2.3-1.4,4.9-2.4,7.6-3.2c2.7-0.8,5.5-1.1,8.4-1.1s5.7,0.4,8.4,1.1c2.7,0.8,5.2,1.8,7.6,3.2c2.3,1.4,4.5,3,6.4,5
		c1.9,1.9,3.6,4.1,5,6.4s2.4,4.9,3.2,7.6c0.8,2.7,1.1,5.5,1.1,8.5c0,2.9-0.4,5.7-1.1,8.4c-0.8,2.7-1.8,5.2-3.2,7.5
		c-1.4,2.3-3,4.5-5,6.4c-1.9,1.9-4.1,3.6-6.4,4.9c-2.3,1.4-4.9,2.4-7.6,3.2c-2.7,0.7-5.5,1.1-8.4,1.1s-5.7-0.4-8.4-1.1
		s-5.2-1.8-7.6-3.2c-2.3-1.4-4.5-3-6.4-5c-1.9-1.9-3.6-4-4.9-6.4c-1.4-2.3-2.4-4.8-3.2-7.5C61.2,38,60.9,35.1,60.9,32.1z M72.8,32.1
		c0,2.8,0.5,5.4,1.5,7.8s2.4,4.5,4.1,6.3c1.8,1.8,3.8,3.2,6.2,4.3c2.4,1,5,1.6,7.8,1.6s5.3-0.5,7.7-1.6c2.4-1,4.5-2.5,6.2-4.3
		s3.2-3.9,4.2-6.3s1.5-5,1.5-7.8s-0.5-5.4-1.5-7.8s-2.4-4.6-4.2-6.4s-3.8-3.2-6.2-4.3c-2.4-1-5-1.6-7.7-1.6c-2.8,0-5.4,0.5-7.8,1.6
		c-2.4,1-4.5,2.5-6.2,4.3c-1.8,1.8-3.1,3.9-4.1,6.4C73.3,26.8,72.8,29.3,72.8,32.1z"/>
	<path class="st4" d="M135.1,3.2c0-0.5,0.2-1,0.5-1.3c0.3-0.4,0.8-0.5,1.3-0.5h9.5c0.4,0,0.8,0.1,1.1,0.3c0.3,0.2,0.7,0.5,0.9,0.8
		c4.7,6.7,9.4,13.4,14,20.1c4.6,6.6,9.3,13.3,14,20.1V2.9c0.1-0.5,0.3-0.9,0.6-1.2c0.3-0.3,0.7-0.4,1.2-0.4h8c0.6,0,1,0.2,1.4,0.5
		s0.6,0.8,0.6,1.3v58c0,1.1-0.6,1.7-1.9,1.7h-9c-0.6,0-1.2-0.4-1.7-1.1c-4.9-7-9.7-14.1-14.5-21.1s-9.6-14.1-14.5-21.2V61
		c0,0.6-0.1,1.1-0.4,1.4c-0.3,0.3-0.8,0.5-1.5,0.5h-8c-0.6,0-1.1-0.2-1.4-0.5s-0.4-0.8-0.4-1.3V3.2H135.1z"/>
	<path class="st4" d="M201.9,3.2c0-0.6,0.2-1.1,0.5-1.4s0.7-0.5,1.3-0.5h39.4c1.3,0,1.9,0.7,1.9,2v7.2c0,0.5-0.2,0.9-0.5,1.3
		c-0.3,0.4-0.8,0.6-1.4,0.6h-29V29c0.7,0,1.7,0,2.9,0c1.2,0,2.5,0,3.9,0s2.9,0,4.4,0s3,0,4.4,0s2.7,0,3.9,0c1.2,0,2.1,0,2.9,0
		c0.5,0,0.9,0.1,1.3,0.4s0.5,0.8,0.5,1.4v7c0,0.5-0.2,0.9-0.5,1.3c-0.3,0.4-0.8,0.6-1.3,0.6h-22.3v21.2c0,1.2-0.6,1.7-1.9,1.7h-8.7
		c-1.1-0.1-1.7-0.6-1.7-1.7V3.2z"/>
</g>
</svg>
