<?xml version="1.0" encoding="utf-8"?>
<!-- Generator: Adobe Illustrator 22.0.1, SVG Export Plug-In . SVG Version: 6.00 Build 0)  -->
<svg version="1.1" id="Camada_1" xmlns="http://www.w3.org/2000/svg" xmlns:xlink="http://www.w3.org/1999/xlink" x="0px" y="0px"
	 viewBox="0 0 241.6 64.2" style="enable-background:new 0 0 241.6 64.2;" xml:space="preserve">
<style type="text/css">
	.st0{display:none;}
	.st1{display:inline;opacity:0.48;fill:url(#SVGID_1_);enable-background:new    ;}
	.st2{display:inline;fill:url(#SVGID_2_);}
	.st3{display:inline;fill:url(#SVGID_3_);}
	.st4{fill:#1D1544;}
	.st5{fill:none;stroke:#5129D7;stroke-width:10;stroke-linecap:round;stroke-linejoin:round;stroke-miterlimit:10;}
	.st6{fill:none;stroke:#5129D7;stroke-width:10;stroke-linecap:round;stroke-linejoin:round;}
	.st7{fill:none;stroke:#5129D7;stroke-width:10;stroke-linecap:round;stroke-linejoin:round;stroke-dasharray:4.6757,12.1568;}
</style>
<g class="st0">
	
		<linearGradient id="SVGID_1_" gradientUnits="userSpaceOnUse" x1="-19.2137" y1="466.0975" x2="17.9498" y2="466.0975" gradientTransform="matrix(1 0 0 1 0 -434)">
		<stop  offset="0" style="stop-color:#3D21C1"/>
		<stop  offset="1" style="stop-color:#5129D7"/>
	</linearGradient>
	<path class="st1" d="M-0.8,50.9c-0.4,0-0.9,0-1.3,0c-2-0.1-3.4-1.8-3.3-3.8s1.8-3.4,3.8-3.3c1.2,0.1,2.4,0,3.6-0.3s2.3-0.8,3.4-1.4
		c1.7-1,3.8-0.5,4.9,1.1c1,1.7,0.5,3.8-1.1,4.9c-1.7,1-3.5,1.8-5.4,2.3C2.2,50.7,0.7,50.9-0.8,50.9z M-10.6,47.3
		c-0.8,0-1.6-0.3-2.3-0.8c-3.1-2.6-5.2-6-6.2-9.9c-0.5-1.9,0.7-3.8,2.6-4.3c1.9-0.4,3.8,0.7,4.3,2.6c0.6,2.4,1.9,4.5,3.8,6.1
		c1.5,1.3,1.7,3.5,0.4,5C-8.6,46.9-9.6,47.3-10.6,47.3z M13.3,41.4c-0.4,0-0.9-0.1-1.3-0.3c-1.8-0.7-2.7-2.8-2-4.6
		c0.6-1.4,0.9-2.9,0.9-4.4c0-0.9-0.1-1.9-0.3-2.8l0,0v-0.1c-0.5-1.9,0.7-3.8,2.6-4.3c1.9-0.5,3.8,0.7,4.3,2.6l0,0
		c0.4,1.5,0.6,3.1,0.6,4.6c0,2.4-0.5,4.8-1.4,7C16,40.5,14.7,41.4,13.3,41.4z M-15,29.9c-0.4,0-0.9-0.1-1.3-0.3
		c-1.8-0.7-2.7-2.8-2-4.6c1.5-3.7,4.1-6.8,7.5-8.9c1.7-1,3.8-0.5,4.9,1.1c1,1.7,0.5,3.8-1.1,4.9c-2.1,1.3-3.7,3.3-4.6,5.6
		C-12.3,29.1-13.6,29.9-15,29.9z M8.9,23.9c-0.8,0-1.6-0.3-2.3-0.8c-1.9-1.6-4.3-2.5-6.7-2.7c-2-0.1-3.4-1.8-3.3-3.8
		s1.8-3.4,3.8-3.3c3.9,0.3,7.7,1.8,10.8,4.3c1.5,1.3,1.7,3.5,0.5,5C11,23.5,10,23.9,8.9,23.9z"/>
	
		<linearGradient id="SVGID_2_" gradientUnits="userSpaceOnUse" x1="43.2" y1="466.1" x2="99.4" y2="466.1" gradientTransform="matrix(1 0 0 1 0 -434)">
		<stop  offset="0" style="stop-color:#3D21C1"/>
		<stop  offset="1" style="stop-color:#5129D7"/>
	</linearGradient>
	<path class="st2" d="M71.3,60.2c-15.5,0-28.1-12.6-28.1-28.1S55.8,4,71.3,4s28.1,12.6,28.1,28.1S86.8,60.2,71.3,60.2z M71.3,14.6
		c-9.7,0-17.5,7.9-17.5,17.5c0,9.7,7.9,17.5,17.5,17.5c9.7,0,17.5-7.9,17.5-17.5C88.8,22.4,81,14.6,71.3,14.6z"/>
	
		<linearGradient id="SVGID_3_" gradientUnits="userSpaceOnUse" x1="22.5" y1="465.9" x2="38.6344" y2="465.9" gradientTransform="matrix(1 0 0 1 0 -434)">
		<stop  offset="0" style="stop-color:#3D21C1"/>
		<stop  offset="1" style="stop-color:#5129D7"/>
	</linearGradient>
	<path class="st3" d="M35.1,35.4H26c-2,0-3.5-1.6-3.5-3.5s1.6-3.5,3.5-3.5h9.1c2,0,3.5,1.6,3.5,3.5C38.6,33.8,37.1,35.4,35.1,35.4z"
		/>
</g>
<path class="st4" d="M2.3,3.1c0-0.5,0.2-0.9,0.5-1.3s0.8-0.5,1.3-0.5h8.4c0.2,0,0.4,0,0.6,0.1c0.2,0.1,0.4,0.2,0.6,0.4
	c0.2,0.2,0.4,0.4,0.5,0.6c0.1,0.2,0.2,0.5,0.2,0.7v24.6L37.6,2.5c0.6-0.9,1.2-1.3,1.8-1.3h11.9c0.7,0,1.1,0.2,1.1,0.5
	c0,0.2-0.2,0.5-0.5,0.9L30,28.1l25.5,33c0.4,0.6,0.6,1,0.6,1.2c0,0.3-0.3,0.5-0.9,0.5H42.6c-0.7,0-1.3-0.4-1.8-1.3L21.3,36.8l-7,7.3
	v17c0,1.2-0.7,1.8-2,1.8H3.9c-1.2-0.1-1.8-0.7-1.8-1.9V3.1H2.3z"/>
<path class="st4" d="M130.1,3.2c0-0.5,0.2-1,0.5-1.3c0.3-0.4,0.8-0.5,1.3-0.5h9.5c0.4,0,0.8,0.1,1.1,0.3c0.3,0.2,0.7,0.5,0.9,0.8
	c4.7,6.7,9.4,13.4,14,20.1c4.6,6.6,9.3,13.3,14,20.1V2.9c0.1-0.5,0.3-0.9,0.6-1.2s0.7-0.4,1.2-0.4h8c0.6,0,1,0.2,1.4,0.5
	s0.6,0.8,0.6,1.3v58c0,1.1-0.6,1.7-1.9,1.7h-9c-0.6,0-1.2-0.4-1.7-1.1c-4.9-7-9.7-14.1-14.5-21.1s-9.6-14.1-14.5-21.2V61
	c0,0.6-0.1,1.1-0.4,1.4c-0.3,0.3-0.8,0.5-1.5,0.5h-8c-0.6,0-1.1-0.2-1.4-0.5s-0.4-0.8-0.4-1.3V3.2H130.1z"/>
<path class="st4" d="M196.9,3.3c0-0.6,0.2-1.1,0.5-1.4s0.7-0.5,1.3-0.5h39.4c1.3,0,1.9,0.7,1.9,2v7.2c0,0.5-0.2,0.9-0.5,1.3
	c-0.3,0.4-0.8,0.6-1.4,0.6h-29v16.6c0.7,0,1.7,0,2.9,0s2.5,0,3.9,0s2.9,0,4.4,0s3,0,4.4,0s2.7,0,3.9,0s2.1,0,2.9,0
	c0.5,0,0.9,0.1,1.3,0.4s0.5,0.8,0.5,1.4v7c0,0.5-0.2,0.9-0.5,1.3c-0.3,0.4-0.8,0.6-1.3,0.6h-22.3V61c0,1.2-0.6,1.7-1.9,1.7h-8.7
	c-1.1-0.1-1.7-0.6-1.7-1.7L196.9,3.3L196.9,3.3z"/>
<path class="st5" d="M83.7,5.2c14.9,0,26.9,12,26.9,26.9S98.6,59,83.7,59"/>
<g>
	<g>
		<path class="st6" d="M83.7,59c-0.8,0-1.7,0-2.5-0.1"/>
		<path class="st7" d="M69.8,55.1c-7.8-4.7-12.9-13.3-12.9-23c0-11.9,7.7-22,18.5-25.6"/>
		<path class="st6" d="M81.2,5.3c0.8-0.1,1.7-0.1,2.5-0.1"/>
	</g>
</g>
<line class="st5" x1="83.7" y1="6.2" x2="83.7" y2="58"/>
</svg>
