<?xml version="1.0" encoding="utf-8"?>
<!-- Generator: Adobe Illustrator 22.0.1, SVG Export Plug-In . SVG Version: 6.00 Build 0)  -->
<svg version="1.1" id="Camada_1" xmlns="http://www.w3.org/2000/svg" xmlns:xlink="http://www.w3.org/1999/xlink" x="0px" y="0px"
	 viewBox="0 0 385 64.2" style="enable-background:new 0 0 385 64.2;" xml:space="preserve">
<style type="text/css">
	.st0{opacity:0.48;fill:url(#SVGID_1_);}
	.st1{fill:url(#SVGID_2_);}
	.st2{fill:url(#SVGID_3_);}
	.st3{fill:#1D1544;}
</style>
<g>
	<linearGradient id="SVGID_1_" gradientUnits="userSpaceOnUse" x1="2.5106" y1="32.1106" x2="39.6741" y2="32.1106">
		<stop  offset="0" style="stop-color:#3D21C1"/>
		<stop  offset="1" style="stop-color:#5129D7"/>
	</linearGradient>
	<path class="st0" d="M20.9,50.9c-0.4,0-0.9,0-1.3,0c-2-0.1-3.4-1.8-3.3-3.8c0.1-2,1.8-3.4,3.8-3.3c1.2,0.1,2.4,0,3.6-0.3
		c1.2-0.3,2.3-0.8,3.4-1.4c1.7-1,3.8-0.5,4.9,1.1c1,1.7,0.5,3.8-1.1,4.9c-1.7,1-3.5,1.8-5.4,2.3C23.9,50.7,22.4,50.9,20.9,50.9z
		 M11.1,47.3c-0.8,0-1.6-0.3-2.3-0.8c-3.1-2.6-5.2-6-6.2-9.9c-0.5-1.9,0.7-3.8,2.6-4.3C7.1,31.9,9,33,9.5,34.9
		c0.6,2.4,1.9,4.5,3.8,6.1c1.5,1.3,1.7,3.5,0.4,5C13.1,46.9,12.1,47.3,11.1,47.3z M35,41.4c-0.4,0-0.9-0.1-1.3-0.3
		c-1.8-0.7-2.7-2.8-2-4.6c0.6-1.4,0.9-2.9,0.9-4.4c0-0.9-0.1-1.9-0.3-2.8h0l0-0.1c-0.5-1.9,0.7-3.8,2.6-4.3c1.9-0.5,3.8,0.7,4.3,2.6
		l0,0c0.4,1.5,0.6,3.1,0.6,4.6c0,2.4-0.5,4.8-1.4,7C37.7,40.5,36.4,41.4,35,41.4z M6.7,29.9c-0.4,0-0.9-0.1-1.3-0.3
		c-1.8-0.7-2.7-2.8-2-4.6c1.5-3.7,4.1-6.8,7.5-8.9c1.7-1,3.8-0.5,4.9,1.1c1,1.7,0.5,3.8-1.1,4.9c-2.1,1.3-3.7,3.3-4.6,5.6
		C9.4,29.1,8.1,29.9,6.7,29.9z M30.6,23.9c-0.8,0-1.6-0.3-2.3-0.8c-1.9-1.6-4.3-2.5-6.7-2.7c-2-0.1-3.4-1.8-3.3-3.8
		c0.1-2,1.8-3.4,3.8-3.3c3.9,0.3,7.7,1.8,10.8,4.3c1.5,1.3,1.7,3.5,0.5,5C32.7,23.5,31.7,23.9,30.6,23.9z"/>
	<linearGradient id="SVGID_2_" gradientUnits="userSpaceOnUse" x1="64.9355" y1="32.0932" x2="121.1015" y2="32.0932">
		<stop  offset="0" style="stop-color:#3D21C1"/>
		<stop  offset="1" style="stop-color:#5129D7"/>
	</linearGradient>
	<path class="st1" d="M93,60.2c-15.5,0-28.1-12.6-28.1-28.1S77.5,4,93,4s28.1,12.6,28.1,28.1S108.5,60.2,93,60.2z M93,14.6
		c-9.7,0-17.5,7.9-17.5,17.5c0,9.7,7.9,17.5,17.5,17.5c9.7,0,17.5-7.9,17.5-17.5C110.5,22.4,102.7,14.6,93,14.6z"/>
	<linearGradient id="SVGID_3_" gradientUnits="userSpaceOnUse" x1="44.2376" y1="31.829" x2="60.372" y2="31.829">
		<stop  offset="0" style="stop-color:#3D21C1"/>
		<stop  offset="1" style="stop-color:#5129D7"/>
	</linearGradient>
	<path class="st2" d="M56.8,35.4h-9.1c-2,0-3.5-1.6-3.5-3.5s1.6-3.5,3.5-3.5h9.1c2,0,3.5,1.6,3.5,3.5S58.8,35.4,56.8,35.4z"/>
</g>
<g>
	<path class="st3" d="M137.6,3.1c0-0.5,0.2-0.9,0.5-1.3c0.3-0.4,0.8-0.5,1.3-0.5h8.4c0.2,0,0.4,0,0.6,0.1c0.2,0.1,0.4,0.2,0.6,0.4
		c0.2,0.2,0.4,0.4,0.5,0.6c0.1,0.2,0.2,0.5,0.2,0.7v24.6l23.2-25.2c0.6-0.9,1.2-1.3,1.8-1.3h11.9c0.7,0,1.1,0.2,1.1,0.5
		c0,0.2-0.2,0.5-0.5,0.9l-21.9,25.5l25.5,33c0.4,0.6,0.6,1,0.6,1.2c0,0.3-0.3,0.5-0.9,0.5h-12.6c-0.7,0-1.3-0.4-1.8-1.3l-19.5-24.8
		l-7,7.3v17c0,1.2-0.7,1.8-2,1.8h-8.4c-1.2,0-1.8-0.6-1.8-1.8V3.1z"/>
	<path class="st3" d="M197.3,32.1c0-2.9,0.4-5.7,1.1-8.4c0.7-2.7,1.8-5.2,3.2-7.6c1.4-2.3,3-4.5,5-6.4c1.9-1.9,4.1-3.6,6.4-5
		c2.3-1.4,4.9-2.4,7.6-3.2c2.7-0.8,5.5-1.1,8.4-1.1c2.9,0,5.7,0.4,8.4,1.1c2.7,0.8,5.2,1.8,7.6,3.2c2.3,1.4,4.5,3,6.4,5
		c1.9,1.9,3.6,4.1,5,6.4c1.4,2.3,2.4,4.9,3.2,7.6c0.8,2.7,1.1,5.5,1.1,8.5c0,2.9-0.4,5.7-1.1,8.4c-0.8,2.7-1.8,5.2-3.2,7.5
		c-1.4,2.3-3,4.5-5,6.4c-1.9,1.9-4.1,3.6-6.4,4.9c-2.3,1.4-4.9,2.4-7.6,3.2c-2.7,0.7-5.5,1.1-8.4,1.1c-2.9,0-5.7-0.4-8.4-1.1
		s-5.2-1.8-7.6-3.2c-2.3-1.4-4.5-3-6.4-5c-1.9-1.9-3.6-4-4.9-6.4c-1.4-2.3-2.4-4.8-3.2-7.5C197.6,37.9,197.3,35.1,197.3,32.1z
		 M209.2,32.1c0,2.8,0.5,5.4,1.5,7.8s2.4,4.5,4.1,6.3c1.8,1.8,3.8,3.2,6.2,4.3c2.4,1,5,1.6,7.8,1.6c2.8,0,5.3-0.5,7.7-1.6
		c2.4-1,4.5-2.5,6.2-4.3s3.2-3.9,4.2-6.3s1.5-5,1.5-7.8c0-2.8-0.5-5.4-1.5-7.8c-1-2.4-2.4-4.6-4.2-6.4c-1.8-1.8-3.8-3.2-6.2-4.3
		c-2.4-1-5-1.6-7.7-1.6c-2.8,0-5.4,0.5-7.8,1.6c-2.4,1-4.5,2.5-6.2,4.3c-1.8,1.8-3.1,3.9-4.1,6.4C209.7,26.7,209.2,29.3,209.2,32.1z
		"/>
	<path class="st3" d="M271.5,3.2c0-0.5,0.2-1,0.5-1.3c0.3-0.4,0.8-0.5,1.3-0.5h9.5c0.4,0,0.8,0.1,1.1,0.3c0.3,0.2,0.7,0.5,0.9,0.8
		c4.7,6.7,9.4,13.4,14,20.1c4.6,6.6,9.3,13.3,14,20.1V2.9c0.1-0.5,0.3-0.9,0.6-1.2c0.3-0.3,0.7-0.4,1.2-0.4h8c0.6,0,1,0.2,1.4,0.5
		c0.4,0.3,0.6,0.8,0.6,1.3v58c0,1.1-0.6,1.7-1.9,1.7h-9c-0.6,0-1.2-0.4-1.7-1.1c-4.9-7-9.7-14.1-14.5-21.1
		c-4.8-7-9.6-14.1-14.5-21.2V61c0,0.6-0.1,1.1-0.4,1.4c-0.3,0.3-0.8,0.5-1.5,0.5h-8c-0.6,0-1.1-0.2-1.4-0.5
		c-0.3-0.3-0.4-0.8-0.4-1.3V3.2z"/>
	<path class="st3" d="M338.3,3.2c0-0.6,0.2-1.1,0.5-1.4c0.3-0.3,0.7-0.5,1.3-0.5h39.4c1.3,0,1.9,0.7,1.9,2v7.2
		c0,0.5-0.2,0.9-0.5,1.3c-0.3,0.4-0.8,0.6-1.4,0.6h-29V29c0.7,0,1.7,0,2.9,0c1.2,0,2.5,0,3.9,0c1.4,0,2.9,0,4.4,0c1.5,0,3,0,4.4,0
		c1.4,0,2.7,0,3.9,0c1.2,0,2.1,0,2.9,0c0.5,0,0.9,0.1,1.3,0.4c0.4,0.3,0.5,0.8,0.5,1.4v7c0,0.5-0.2,0.9-0.5,1.3
		c-0.3,0.4-0.8,0.6-1.3,0.6h-22.3v21.2c0,1.2-0.6,1.7-1.9,1.7H340c-1.1-0.1-1.7-0.6-1.7-1.7V3.2z"/>
</g>
</svg>
