<?xml version="1.0" encoding="utf-8"?>
<!-- Generator: Adobe Illustrator 22.0.1, SVG Export Plug-In . SVG Version: 6.00 Build 0)  -->
<svg version="1.1" id="Camada_1" xmlns="http://www.w3.org/2000/svg" xmlns:xlink="http://www.w3.org/1999/xlink" x="0px" y="0px"
	 viewBox="0 0 273.8 103.3" style="enable-background:new 0 0 273.8 103.3;" xml:space="preserve">
<style type="text/css">
	.st0{fill:#FFFFFF;}
	.st1{opacity:0.5;fill:url(#SVGID_1_);enable-background:new    ;}
	.st2{opacity:0.5;fill:url(#SVGID_2_);enable-background:new    ;}
	.st3{opacity:0.5;fill:url(#SVGID_3_);enable-background:new    ;}
</style>
<g>
	<g>
		<path class="st0" d="M79.7,98.1H13.8C6.4,98.1,0.3,92,0.3,84.6V18.7c0-7.4,6.1-13.5,13.5-13.5h65.8c7.4,0,13.5,6.1,13.5,13.5v65.8
			C93.2,92,87.1,98.1,79.7,98.1z"/>
		<g>
			
				<linearGradient id="SVGID_1_" gradientUnits="userSpaceOnUse" x1="15.9333" y1="46.65" x2="62.2791" y2="46.65" gradientTransform="matrix(1 0 0 -1 0 106)">
				<stop  offset="0" style="stop-color:#361DB2"/>
				<stop  offset="1" style="stop-color:#5129D7"/>
			</linearGradient>
			<path class="st1" d="M57.7,82.5H20.5c-2.5,0-4.6-2.1-4.6-4.6V40.8c0-2.5,2.1-4.6,4.6-4.6h37.2c2.5,0,4.6,2.1,4.6,4.6V78
				C62.3,80.4,60.2,82.5,57.7,82.5z"/>
			
				<linearGradient id="SVGID_2_" gradientUnits="userSpaceOnUse" x1="23.6333" y1="54.35" x2="69.979" y2="54.35" gradientTransform="matrix(1 0 0 -1 0 106)">
				<stop  offset="0" style="stop-color:#361DB2"/>
				<stop  offset="1" style="stop-color:#5129D7"/>
			</linearGradient>
			<path class="st2" d="M65.3,74.8H28.2c-2.5,0-4.6-2.1-4.6-4.6V33.1c0-2.5,2.1-4.6,4.6-4.6h37.2c2.5,0,4.6,2.1,4.6,4.6v37.2
				C69.9,72.8,67.8,74.8,65.3,74.8z"/>
			
				<linearGradient id="SVGID_3_" gradientUnits="userSpaceOnUse" x1="31.2333" y1="62" x2="77.5791" y2="62" gradientTransform="matrix(1 0 0 -1 0 106)">
				<stop  offset="0" style="stop-color:#361DB2"/>
				<stop  offset="1" style="stop-color:#5129D7"/>
			</linearGradient>
			<path class="st3" d="M73,67.2H35.8c-2.5,0-4.6-2.1-4.6-4.6V25.4c0-2.5,2.1-4.6,4.6-4.6H73c2.5,0,4.6,2.1,4.6,4.6v37.2
				C77.6,65.1,75.5,67.2,73,67.2z"/>
		</g>
	</g>
	<g>
		<path class="st0" d="M120,77.5h3.9c0.3,0.7,0.5,1.6,0.5,2.4s-0.2,1.3-0.5,1.6c-0.3,0.3-0.9,0.4-1.8,0.4h-16.3
			c-0.4-0.9-0.6-1.8-0.6-2.6c0-0.6,0.2-1.1,0.5-1.4s0.8-0.5,1.6-0.5h3.2c0.2-4,0.3-10.8,0.3-20.3c0-12.2-0.1-19.9-0.2-23.2
			c-0.1-3.3-0.3-5.5-0.6-6.5c-0.3-1-0.8-1.7-1.5-1.9c-0.7-0.3-1.6-0.4-2.7-0.4c-0.4-0.9-0.6-1.8-0.6-2.6c0-0.9,0.4-1.5,1.1-1.7
			s3.1-0.3,7.1-0.3c2.3,0,3.8,0.1,4.6,0.3c0.8,0.2,1.3,0.6,1.4,1.2s0.2,1.6,0.2,3v34c2.5-2,5.2-4.2,8-6.8c2.8-2.6,5.3-5.1,7.5-7.7
			h-3c-0.4-0.8-0.6-1.7-0.6-2.5c0-0.8,0.2-1.5,0.5-1.8c0.3-0.3,0.9-0.5,1.7-0.5h13.5c0.3,0.8,0.5,1.7,0.5,2.6s-0.2,1.5-0.5,1.8
			c-0.4,0.3-1,0.5-2,0.5h-1.7l-12.9,12c4.3,6.5,7.6,11.3,9.8,14.2c2.3,2.9,3.9,4.8,5,5.6c1.1,0.8,2.3,1.2,3.6,1.2
			c0.4,1.5,0.4,2.6-0.2,3.3c-0.5,0.7-2.4,1.1-5.5,1.1c-2.8,0-4.6-0.2-5.4-0.6c-0.8-0.4-1.5-1.3-2.3-2.5c-0.7-1.3-1.9-3.2-3.5-5.9
			c-1.6-2.7-4.1-6.6-7.4-11.7l-5.2,4.8C119.7,69.7,119.8,73.5,120,77.5z"/>
		<path class="st0" d="M167.7,82.8c-6.2,0-10.8-1.7-13.8-5c-2.9-3.3-4.4-8.3-4.4-15c0-7.7,1.8-13.6,5.3-17.9
			c3.6-4.3,8.7-6.4,15.4-6.4c6.2,0,10.8,1.7,13.8,5c2.9,3.3,4.4,8.3,4.4,15c0,7.7-1.8,13.6-5.3,17.9
			C179.5,80.7,174.4,82.8,167.7,82.8z M169.3,77.1c3.3,0,5.7-1.2,7.1-3.7c1.5-2.5,2.2-6.3,2.2-11.4c0-5.9-0.8-10.3-2.3-13.2
			s-4.1-4.3-7.8-4.3c-3.3,0-5.7,1.2-7.1,3.7c-1.5,2.5-2.2,6.3-2.2,11.5c0,5.9,0.8,10.3,2.3,13.2C163,75.6,165.6,77.1,169.3,77.1z"/>
		<path class="st0" d="M202.7,44.4c2.8-1.9,5.7-3.3,8.4-4.2c2.8-0.9,5.3-1.3,7.4-1.3c3.8,0,6.7,0.9,8.6,2.7
			c1.9,1.8,2.9,5.1,2.9,10.1c0,15.5,0.2,23.7,0.7,24.6c0.4,0.9,1.5,1.4,3.1,1.3c0.3,0.8,0.5,1.7,0.5,2.5s-0.2,1.3-0.7,1.6
			c-0.5,0.3-1.4,0.4-2.7,0.4c-4,0-6.4-0.1-7.3-0.2c-0.9-0.1-1.5-0.4-1.8-0.9s-0.5-1.3-0.5-2.5V59.8c0-5.9-0.6-9.9-1.9-11.8
			c-1.3-2-3.3-2.9-6.1-2.9c-2.4,0-4.5,0.7-6.2,2c-1.7,1.4-2.6,3.8-2.6,7.3v9.1c0,5.1,0.1,9.8,0.3,14.1h4.8c0.3,0.7,0.5,1.6,0.5,2.4
			s-0.2,1.3-0.5,1.6c-0.3,0.3-0.9,0.4-1.8,0.4h-17c-0.4-0.9-0.6-1.8-0.6-2.6c0-0.6,0.2-1.1,0.5-1.4s0.8-0.5,1.6-0.5h3
			c0.2-4.6,0.3-10.2,0.3-16.8c0-8.5-0.3-13.4-1-14.8s-1.9-2-3.8-2c-0.4-0.8-0.6-1.6-0.6-2.5c0-0.8,0.3-1.3,0.9-1.5
			c0.6-0.2,4.4-0.4,11.4-0.7C202.9,40.6,202.9,42.3,202.7,44.4z"/>
		<path class="st0" d="M254.2,77.5h6.3c0.3,0.7,0.5,1.6,0.5,2.4s-0.2,1.3-0.5,1.6c-0.3,0.3-0.9,0.4-1.8,0.4H240
			c-0.4-0.9-0.6-1.8-0.6-2.6c0-0.6,0.2-1.1,0.5-1.4s0.8-0.5,1.6-0.5h3.2c0.2-4,0.3-8.7,0.3-14.1V44.8h-5c-0.3-1-0.5-2-0.5-3
			c0-0.7,0.2-1.2,0.5-1.6c0.3-0.3,0.8-0.5,1.6-0.5h3.5c0.1-7.2,1.5-12.2,4.4-15c2.8-2.8,7.3-4.2,13.4-4.2c3.5,0,6.1,0.3,7.9,0.9
			s2.7,1.6,2.7,3.2c0,1.4-0.6,2.8-1.8,4.4c-4.8-1.9-8.7-2.8-11.6-2.8c-2.5,0-4.2,0.8-5,2.5s-1.2,4.6-1.2,8.7v2.4h11.9
			c0.3,0.9,0.5,2,0.5,3c0,0.8-0.2,1.4-0.5,1.7c-0.3,0.3-0.9,0.4-1.9,0.4h-10.1v18.7C253.8,68.8,253.9,73.5,254.2,77.5z"/>
	</g>
</g>
</svg>
