<?xml version="1.0" encoding="utf-8"?>
<!-- Generator: Adobe Illustrator 22.0.1, SVG Export Plug-In . SVG Version: 6.00 Build 0)  -->
<svg version="1.1" id="Camada_1" xmlns="http://www.w3.org/2000/svg" xmlns:xlink="http://www.w3.org/1999/xlink" x="0px" y="0px"
	 viewBox="0 0 755.7 209.4" style="enable-background:new 0 0 755.7 209.4;" xml:space="preserve">
<style type="text/css">
	.st0{display:none;}
	.st1{display:inline;fill:url(#SVGID_1_);}
	.st2{display:inline;fill:url(#SVGID_2_);}
	.st3{display:inline;fill:url(#SVGID_3_);}
	.st4{display:inline;fill:#1D1544;}
	.st5{fill:url(#SVGID_4_);}
	.st6{display:inline;fill:#F71919;}
	.st7{fill:#1D1544;}
</style>
<g class="st0">
	<linearGradient id="SVGID_1_" gradientUnits="userSpaceOnUse" x1="313.9333" y1="104.7007" x2="351.0968" y2="104.7007">
		<stop  offset="0" style="stop-color:#3D21C1"/>
		<stop  offset="1" style="stop-color:#5129D7"/>
	</linearGradient>
	<path class="st1" d="M332.3,123.5c-0.4,0-0.9,0-1.3,0c-2-0.1-3.4-1.8-3.3-3.8c0.1-2,1.8-3.4,3.8-3.3c1.2,0.1,2.4,0,3.6-0.3
		c1.2-0.3,2.3-0.8,3.4-1.4c1.7-1,3.8-0.5,4.9,1.1s0.5,3.8-1.1,4.9c-1.7,1-3.5,1.8-5.4,2.3C335.3,123.3,333.8,123.5,332.3,123.5z
		 M322.5,119.9c-0.8,0-1.6-0.3-2.3-0.8c-3.1-2.6-5.2-6-6.2-9.9c-0.5-1.9,0.7-3.8,2.6-4.3c1.9-0.5,3.8,0.7,4.3,2.6
		c0.6,2.4,1.9,4.5,3.8,6.1c1.5,1.3,1.7,3.5,0.4,5C324.5,119.5,323.5,119.9,322.5,119.9z M346.4,114c-0.4,0-0.9-0.1-1.3-0.3
		c-1.8-0.7-2.7-2.8-2-4.6c0.6-1.4,0.9-2.9,0.9-4.4c0-0.9-0.1-1.9-0.3-2.8h0l0-0.1c-0.5-1.9,0.7-3.8,2.6-4.3c1.9-0.5,3.8,0.7,4.3,2.6
		l0,0c0.4,1.5,0.6,3.1,0.6,4.6c0,2.4-0.5,4.8-1.4,7C349.2,113.1,347.8,114,346.4,114z M318.1,102.5c-0.4,0-0.9-0.1-1.3-0.3
		c-1.8-0.7-2.7-2.8-2-4.6c1.5-3.7,4.1-6.8,7.5-8.9c1.7-1,3.8-0.5,4.9,1.1c1,1.7,0.5,3.8-1.1,4.9c-2.1,1.3-3.7,3.3-4.6,5.6
		C320.9,101.7,319.5,102.5,318.1,102.5z M342.1,96.5c-0.8,0-1.6-0.3-2.3-0.8c-1.9-1.6-4.3-2.5-6.7-2.7c-2-0.1-3.4-1.8-3.3-3.8
		c0.1-2,1.8-3.4,3.8-3.3c3.9,0.3,7.7,1.8,10.8,4.3c1.5,1.3,1.7,3.5,0.5,5C344.1,96.1,343.1,96.5,342.1,96.5z"/>
	<linearGradient id="SVGID_2_" gradientUnits="userSpaceOnUse" x1="376.3582" y1="104.6833" x2="432.5242" y2="104.6833">
		<stop  offset="0" style="stop-color:#3D21C1"/>
		<stop  offset="1" style="stop-color:#5129D7"/>
	</linearGradient>
	<path class="st2" d="M404.4,132.8c-15.5,0-28.1-12.6-28.1-28.1s12.6-28.1,28.1-28.1c15.5,0,28.1,12.6,28.1,28.1
		S419.9,132.8,404.4,132.8z M404.4,87.2c-9.7,0-17.5,7.9-17.5,17.5c0,9.7,7.9,17.5,17.5,17.5c9.7,0,17.5-7.9,17.5-17.5
		C421.9,95,414.1,87.2,404.4,87.2z"/>
	<linearGradient id="SVGID_3_" gradientUnits="userSpaceOnUse" x1="355.6603" y1="104.4191" x2="371.7947" y2="104.4191">
		<stop  offset="0" style="stop-color:#3D21C1"/>
		<stop  offset="1" style="stop-color:#5129D7"/>
	</linearGradient>
	<path class="st3" d="M368.3,108h-9.1c-2,0-3.5-1.6-3.5-3.5c0-2,1.6-3.5,3.5-3.5h9.1c2,0,3.5,1.6,3.5,3.5
		C371.8,106.4,370.2,108,368.3,108z"/>
</g>
<g class="st0">
	<path class="st4" d="M248.6,28c0-1.3,0.4-2.3,1.2-3.2c0.8-0.9,1.9-1.4,3.4-1.4h21.2c0.5,0,1,0.1,1.6,0.3c0.6,0.2,1.1,0.5,1.6,0.9
		c0.5,0.4,0.9,0.9,1.3,1.5c0.3,0.6,0.5,1.2,0.5,1.9v62L338,26.7c1.4-2.2,2.9-3.2,4.6-3.2h29.8c1.9,0,2.8,0.4,2.8,1.3
		c0,0.6-0.4,1.3-1.3,2.2l-55.1,64.2l64.3,83.2c1,1.4,1.6,2.4,1.6,3c0,0.8-0.7,1.1-2.2,1.1h-31.7c-1.7,0-3.2-1.1-4.6-3.2l-49.1-62.5
		L279.4,131v42.8c0,3.1-1.7,4.6-5,4.6h-21.2c-3.1,0-4.6-1.5-4.6-4.6V28z"/>
	<path class="st4" d="M400.3,101c0-7.1,0.9-14,2.7-20.7c1.8-6.7,4.4-12.9,7.8-18.6c3.4-5.8,7.5-11,12.2-15.8
		c4.7-4.8,10-8.8,15.7-12.2c5.8-3.4,12-6,18.6-7.8c6.6-1.9,13.5-2.8,20.7-2.8c7.1,0,14,0.9,20.6,2.8c6.6,1.9,12.8,4.5,18.6,7.8
		c5.8,3.4,11,7.4,15.8,12.2c4.8,4.8,8.8,10,12.2,15.8c3.4,5.8,6,12,7.8,18.6c1.9,6.7,2.8,13.6,2.8,20.8c0,7.2-0.9,14.1-2.8,20.7
		c-1.9,6.6-4.5,12.8-7.8,18.5c-3.4,5.8-7.4,11-12.2,15.7c-4.8,4.7-10,8.8-15.8,12.1c-5.8,3.4-12,6-18.6,7.8s-13.5,2.7-20.7,2.7
		s-14.1-0.9-20.7-2.7c-6.6-1.8-12.8-4.4-18.6-7.8c-5.8-3.4-11-7.5-15.7-12.2c-4.7-4.7-8.8-9.9-12.1-15.7c-3.4-5.7-6-11.9-7.8-18.5
		S400.3,108.2,400.3,101z M429.8,100.8c0,6.9,1.2,13.3,3.7,19.2c2.5,6,5.9,11.2,10.2,15.6c4.3,4.4,9.4,7.9,15.3,10.5
		c5.9,2.6,12.2,3.9,19.1,3.9c6.8,0,13.1-1.3,19-3.9c5.9-2.6,11-6.1,15.3-10.5c4.3-4.4,7.8-9.6,10.2-15.6c2.5-6,3.7-12.4,3.7-19.2
		c0-6.8-1.2-13.2-3.7-19.1c-2.5-6-5.9-11.2-10.2-15.6c-4.3-4.4-9.5-8-15.3-10.5s-12.2-3.9-19-3.9c-6.9,0-13.2,1.3-19.1,3.9
		c-5.9,2.6-11,6.1-15.3,10.5c-4.3,4.4-7.7,9.7-10.2,15.6C431,87.7,429.8,94,429.8,100.8z"/>
	<path class="st4" d="M603.4,28.1c0-1.3,0.4-2.4,1.2-3.3c0.8-0.9,1.9-1.4,3.4-1.4h24c1,0,1.9,0.2,2.8,0.7c0.9,0.5,1.7,1.2,2.3,2.1
		c11.9,17,23.7,33.8,35.4,50.6c11.7,16.7,23.5,33.6,35.4,50.6v-100c0.2-1.3,0.7-2.2,1.6-2.9c0.8-0.7,1.8-1,3-1h20.1
		c1.4,0,2.6,0.4,3.6,1.3c1,0.8,1.5,1.9,1.5,3.3v146.1c0,2.9-1.6,4.3-4.9,4.3h-22.6c-1.5,0-3-0.9-4.3-2.8
		c-12.2-17.7-24.4-35.5-36.6-53.2C657.1,104.7,645,87,632.8,69.2v104.7c0,1.5-0.4,2.7-1.1,3.4c-0.7,0.8-2,1.1-3.7,1.1h-20
		c-1.6,0-2.8-0.4-3.5-1.2c-0.7-0.8-1.1-1.9-1.1-3.3V28.1z"/>
	<path class="st4" d="M785.1,28.2c0-1.5,0.4-2.7,1.2-3.5c0.8-0.8,1.9-1.2,3.2-1.3h99.2c3.2,0,4.8,1.7,4.8,5v18.2
		c0,1.3-0.4,2.4-1.3,3.4c-0.8,1-2,1.5-3.5,1.5h-73.2v41.7c1.8,0,54.3,0.1,56.2,0.1c1.3,0,2.3,0.4,3.2,1.1c0.9,0.7,1.4,1.9,1.4,3.6
		v17.7c0,1.3-0.4,2.4-1.2,3.4c-0.8,1-1.9,1.5-3.3,1.5h-56.3V174c0,2.9-1.6,4.4-4.9,4.4h-21.3c-2.8-0.1-4.2-1.6-4.2-4.4V28.2z"/>
</g>
<linearGradient id="SVGID_4_" gradientUnits="userSpaceOnUse" x1="3.6694" y1="105.2375" x2="193.4998" y2="105.2375">
	<stop  offset="0" style="stop-color:#3D21C1"/>
	<stop  offset="1" style="stop-color:#5129D7"/>
</linearGradient>
<path class="st5" d="M168.1,200.2h-139c-14,0-25.4-11.4-25.4-25.4v-139c0-14,11.4-25.4,25.4-25.4h139c14,0,25.4,11.4,25.4,25.4v139
	C193.5,188.7,182.1,200.2,168.1,200.2z"/>
<g class="st0">
	<circle class="st6" cx="761.4" cy="100.9" r="23.7"/>
	<circle class="st6" cx="579.7" cy="100.9" r="23.7"/>
	<circle class="st6" cx="376.6" cy="100.9" r="23.7"/>
</g>
<g>
	<path class="st7" d="M306.1,58.8c-5-0.3-7.4-3.8-7.4-10.5c0-5.7,1.3-9.1,4-10l4-0.5h32.1c7,0,10.5,3.5,10.5,10.3
		c0,7.1-4.8,10.6-14.3,10.6l-0.2,0.1l-38.3,36.9c5.4,2.2,10.5,5.9,15.1,11.4c5.9,6.8,14.8,21.6,26.8,44.5h0.5
		c9.5,0,14.2,3.4,14.2,10.1c0,2.8-0.9,5.3-2.6,7.5c-2.2,2.2-4.8,3.3-7.9,3.3h-10.5c-4.3,0-7.8-1.7-10.2-5.1l-12.1-22.6
		c-5.3-9.8-9.2-16.4-11.6-19.8c-5.3-7.1-11.3-11.6-17.9-13.3l-9.9,9.4v30.4h4.4c9.6,0,14.4,3.4,14.4,10.1c0,7.2-4.5,10.8-13.4,10.8
		h-37.3c-2.6,0-5.3-0.9-7.9-2.8c-1.5-2.3-2.3-5-2.3-8c0-6.7,4-10.1,12.1-10.1h7.9V58.8h-4.2c-6,0-10.2-0.8-12.4-2.3
		c-2.2-1.5-3.4-4.3-3.4-8.3c0-6,3.3-9.4,10-10.3h37.7c3.1,0,5.6,0.8,7.4,2.5c2.5,1.4,3.7,4,3.7,7.8c0,7.1-4.9,10.6-14.6,10.6h-2.1
		v35.3L306.1,58.8z"/>
	<path class="st7" d="M422.2,176.3c-17.5,0-32.1-6.7-43.7-20.2c-11.6-13.5-17.4-30.5-17.4-50.9c0-20.8,5.7-37.8,17.1-51
		s26.1-19.9,44.1-19.9c18,0,32.8,6.7,44.3,20.1c11.5,13.4,17.3,30.4,17.3,50.8c0,20.6-5.8,37.6-17.3,51
		C454.9,169.6,440.1,176.3,422.2,176.3z M422.2,55.1c-11.2,0-19.1,3.2-23.7,9.6c-9.8,13.4-14.7,26.9-14.7,40.6
		c0,13.7,4.9,27.2,14.7,40.6c4.7,6.4,12.6,9.6,23.7,9.6c11.2,0,19.1-3.2,24-9.6c10.1-13.4,15.1-26.9,15.1-40.6
		c0-13.4-4-25.6-12.1-36.8C442.6,59.5,433.6,55.1,422.2,55.1z"/>
	<path class="st7" d="M510.8,58.8c-6.8,0-11.6-0.8-14.2-2.4c-2.6-1.6-4-4.4-4-8.3c0-6.8,4.9-10.2,14.7-10.2h2.1h4.2h10.2
		c3.7,0,6.5,0.5,8.4,1.6c1.9,1.1,3.8,3.3,5.8,6.7l49.8,85.8V58.8l-9.3,0.2c-9.3,0-14-3.6-14-10.7c0-7,4.9-10.5,14.7-10.5h31.2
		c7,0,10.5,3.5,10.5,10.3c0,6.7-4.1,10.3-12.3,10.6v107.4c0,5.6-3.7,8.4-11,8.4H594c-1.6,0-3.2-0.2-4.9-0.7l-4.7-6.9l-52.7-91.3
		v75.9h10.9c9.1,0,13.7,3.5,13.7,10.3c0,7.1-5.2,10.6-15.6,10.6h-32.3c-7,0-10.5-3.5-10.5-10.6c0-6.9,4.3-10.3,12.8-10.3V58.8z"/>
	<path class="st7" d="M744.3,84.5c-1.9,2.1-4.5,3.1-7.9,3.1c-4.3,0-7.3-1.6-8.8-4.9c-0.9-2-1.4-5.7-1.4-11V58.8h-53.7v31.4h23.3
		c0-5.6,0.4-9.3,1.2-11.2c1.4-3.3,4.3-4.9,8.7-4.9c2.7,0,5.1,1,7.3,3c1.4,2.3,2.1,5.1,2.1,8.4v27.7c0,8.1-3.1,12.1-9.3,12.1
		c-3.4,0-6-1.3-7.9-3.8c-1.2-3.3-1.9-7.6-1.9-12.7h-0.2h-23.3v42.8H693c7.7,0,11.5,3.4,11.5,10.1c0,2.8-0.9,5.5-2.8,8
		c-2,1.9-4.6,2.8-7.7,2.8h-53.3c-6.8,0-10.2-3.6-10.2-10.8c0-6.7,4-10.1,12.1-10.1h7.7V58.8h-4.2c-5.9,0-10-0.8-12.2-2.4
		c-2.2-1.6-3.4-4.3-3.4-8.2c0-2.9,0.8-5.2,2.6-6.9c1.2-1.8,3.7-3,7.4-3.4h95.8c7.1,0,10.7,3.8,10.7,11.4v28.1
		C747.1,80.1,746.1,82.4,744.3,84.5z"/>
</g>
</svg>
