<?xml version="1.0" encoding="utf-8"?>
<!-- Generator: Adobe Illustrator 22.0.1, SVG Export Plug-In . SVG Version: 6.00 Build 0)  -->
<svg version="1.1" id="Camada_1" xmlns="http://www.w3.org/2000/svg" xmlns:xlink="http://www.w3.org/1999/xlink" x="0px" y="0px"
	 viewBox="0 0 239.5 63.4" style="enable-background:new 0 0 239.5 63.4;" xml:space="preserve">
<style type="text/css">
	.st0{fill:#FDFDFF;}
</style>
<g>
	<path class="st0" d="M1,2.7c0-0.5,0.2-0.9,0.5-1.3s0.8-0.5,1.3-0.5h8.4c0.2,0,0.4,0,0.6,0.1c0.2,0.1,0.4,0.2,0.6,0.4
		c0.2,0.2,0.4,0.4,0.5,0.6s0.2,0.5,0.2,0.7v24.6L36.3,2.1c0.6-0.9,1.2-1.3,1.8-1.3H50c0.7,0,1.1,0.2,1.1,0.5c0,0.2-0.2,0.5-0.5,0.9
		L28.7,27.7l25.5,33c0.4,0.6,0.6,1,0.6,1.2c0,0.3-0.3,0.5-0.9,0.5H41.3c-0.7,0-1.3-0.4-1.8-1.3L20,36.4l-7,7.3v17
		c0,1.2-0.7,1.8-2,1.8H2.6c-1.2-0.1-1.8-0.7-1.8-1.9V2.7H1z"/>
	<path class="st0" d="M128.8,2.8c0-0.5,0.2-1,0.5-1.3c0.3-0.4,0.8-0.5,1.3-0.5h9.5c0.4,0,0.8,0.1,1.1,0.3s0.7,0.5,0.9,0.8
		c4.7,6.7,9.4,13.4,14,20.1c4.6,6.6,9.3,13.3,14,20.1V2.5c0.1-0.5,0.3-0.9,0.6-1.2s0.7-0.4,1.2-0.4h8c0.6,0,1,0.2,1.4,0.5
		s0.6,0.8,0.6,1.3v58c0,1.1-0.6,1.7-1.9,1.7h-9c-0.6,0-1.2-0.4-1.7-1.1c-4.9-7-9.7-14.1-14.5-21.1s-9.6-14.1-14.5-21.2v41.6
		c0,0.6-0.1,1.1-0.4,1.4c-0.3,0.3-0.8,0.5-1.5,0.5h-8c-0.6,0-1.1-0.2-1.4-0.5s-0.4-0.8-0.4-1.3V2.8H128.8z"/>
	<path class="st0" d="M195.6,2.9c0-0.6,0.2-1.1,0.5-1.4s0.7-0.5,1.3-0.5h39.4c1.3,0,1.9,0.7,1.9,2v7.2c0,0.5-0.2,0.9-0.5,1.3
		c-0.3,0.4-0.8,0.6-1.4,0.6h-29v16.6c0.7,0,1.7,0,2.9,0s2.5,0,3.9,0s2.9,0,4.4,0s3,0,4.4,0s2.7,0,3.9,0s2.1,0,2.9,0
		c0.5,0,0.9,0.1,1.3,0.4s0.5,0.8,0.5,1.4v7c0,0.5-0.2,0.9-0.5,1.3c-0.3,0.4-0.8,0.6-1.3,0.6h-22.3v21.2c0,1.2-0.6,1.7-1.9,1.7h-8.7
		c-1.1-0.1-1.7-0.6-1.7-1.7L195.6,2.9L195.6,2.9z"/>
	<g>
		<path class="st0" d="M82.4,0.5c-1,0-2,0-3,0.1c-2.7,0.3-4.8,2.7-4.5,5.5c0.2,1.7,1.1,3.1,2.5,3.8v43.6c-1.4,0.8-2.3,2.2-2.5,3.9
			c-0.3,2.7,1.8,5.2,4.5,5.4c1,0.1,2,0.1,3,0.1c17.2,0,31.2-14,31.2-31.2C113.6,14.5,99.6,0.5,82.4,0.5z M87.4,52.3V11.1
			c9.3,2.3,16.2,10.6,16.2,20.6S96.7,50,87.4,52.3z"/>
		<path class="st0" d="M55.7,30.7c0.4,0.1,0.7,0.1,1.1,0.1c2.3,0,4.3-1.6,4.9-3.9c0.3-1.2,0.7-2.4,1.1-3.5c1.1-2.5-0.1-5.5-2.7-6.5
			c-2.5-1.1-5.5,0.1-6.5,2.7c-0.7,1.7-1.3,3.4-1.7,5.2C51.3,27.4,53,30.1,55.7,30.7z"/>
		<path class="st0" d="M65.1,17c1.2,0,2.4-0.4,3.3-1.2c0.9-0.8,1.9-1.5,3-2.2c2.4-1.4,3.1-4.5,1.7-6.9c-1.4-2.4-4.5-3.1-6.9-1.7
			c-1.5,0.9-3,2-4.4,3.2c-2.1,1.8-2.3,5-0.5,7.1C62.3,16.4,63.7,17,65.1,17z"/>
		<path class="st0" d="M71.3,49.8c-1-0.6-2-1.4-3-2.2c-2.1-1.8-5.2-1.6-7.1,0.5c-1.8,2.1-1.6,5.2,0.5,7.1c1.4,1.2,2.8,2.3,4.4,3.2
			c0.8,0.5,1.7,0.7,2.6,0.7c1.7,0,3.3-0.9,4.3-2.4C74.4,54.3,73.7,51.3,71.3,49.8z"/>
		<path class="st0" d="M62.8,39.9c-0.5-1.1-0.9-2.3-1.1-3.5c-0.6-2.7-3.3-4.4-6-3.8c-2.7,0.6-4.4,3.3-3.8,6c0.4,1.8,1,3.5,1.7,5.2
			c0.8,1.9,2.7,3.1,4.6,3.1c0.6,0,1.3-0.1,1.9-0.4C62.7,45.4,63.9,42.5,62.8,39.9z"/>
	</g>
</g>
</svg>
