<?xml version="1.0" encoding="utf-8"?>
<!-- Generator: Adobe Illustrator 22.0.1, SVG Export Plug-In . SVG Version: 6.00 Build 0)  -->
<svg version="1.1" id="Camada_1" xmlns="http://www.w3.org/2000/svg" xmlns:xlink="http://www.w3.org/1999/xlink" x="0px" y="0px"
	 viewBox="0 0 280.7 103.3" style="enable-background:new 0 0 280.7 103.3;" xml:space="preserve">
<style type="text/css">
	.st0{fill:url(#SVGID_1_);}
	.st1{opacity:0.5;fill:#FFFFFF;}
	.st2{fill:#231F4D;}
</style>
<g>
	<g>
		<linearGradient id="SVGID_1_" gradientUnits="userSpaceOnUse" x1="5.4767" y1="51.6667" x2="98.409" y2="51.6667">
			<stop  offset="0" style="stop-color:#361DB2"/>
			<stop  offset="1" style="stop-color:#5129D7"/>
		</linearGradient>
		<path class="st0" d="M84.9,98.1H19c-7.4,0-13.5-6.1-13.5-13.5V18.7c0-7.4,6.1-13.5,13.5-13.5h65.8c7.4,0,13.5,6.1,13.5,13.5v65.8
			C98.4,92,92.3,98.1,84.9,98.1z"/>
		<g>
			<path class="st1" d="M62.9,82.5H25.7c-2.5,0-4.6-2.1-4.6-4.6V40.8c0-2.5,2.1-4.6,4.6-4.6h37.2c2.5,0,4.6,2.1,4.6,4.6v37.2
				C67.5,80.4,65.4,82.5,62.9,82.5z"/>
			<path class="st1" d="M70.5,74.8H33.4c-2.5,0-4.6-2.1-4.6-4.6V33.1c0-2.5,2.1-4.6,4.6-4.6h37.2c2.5,0,4.6,2.1,4.6,4.6v37.2
				C75.1,72.8,73,74.8,70.5,74.8z"/>
			<path class="st1" d="M78.2,67.2H41c-2.5,0-4.6-2.1-4.6-4.6V25.4c0-2.5,2.1-4.6,4.6-4.6h37.2c2.5,0,4.6,2.1,4.6,4.6v37.2
				C82.8,65.1,80.7,67.2,78.2,67.2z"/>
		</g>
	</g>
	<g>
		<path class="st2" d="M125.2,77.5h3.9c0.3,0.7,0.5,1.6,0.5,2.4c0,0.8-0.2,1.3-0.5,1.6c-0.3,0.3-0.9,0.4-1.8,0.4h-16.3
			c-0.4-0.9-0.6-1.8-0.6-2.6c0-0.6,0.2-1.1,0.5-1.4c0.3-0.3,0.8-0.5,1.6-0.5h3.2c0.2-4,0.3-10.8,0.3-20.3c0-12.2-0.1-19.9-0.2-23.2
			c-0.1-3.3-0.3-5.5-0.6-6.5c-0.3-1-0.8-1.7-1.5-1.9c-0.7-0.3-1.6-0.4-2.7-0.4c-0.4-0.9-0.6-1.8-0.6-2.6c0-0.9,0.4-1.5,1.1-1.7
			c0.7-0.2,3.1-0.3,7.1-0.3c2.3,0,3.8,0.1,4.6,0.3c0.8,0.2,1.3,0.6,1.4,1.2c0.1,0.6,0.2,1.6,0.2,3v34c2.5-2,5.2-4.2,8-6.8
			c2.8-2.6,5.3-5.1,7.5-7.7h-3c-0.4-0.8-0.6-1.7-0.6-2.5s0.2-1.5,0.5-1.8c0.3-0.3,0.9-0.5,1.7-0.5h13.5c0.3,0.8,0.5,1.7,0.5,2.6
			c0,0.9-0.2,1.5-0.5,1.8c-0.4,0.3-1,0.5-2,0.5h-1.7l-12.9,12c4.3,6.5,7.6,11.3,9.8,14.2c2.3,2.9,3.9,4.8,5,5.6
			c1.1,0.8,2.3,1.2,3.6,1.2c0.4,1.5,0.4,2.6-0.2,3.3c-0.5,0.7-2.4,1.1-5.5,1.1c-2.8,0-4.6-0.2-5.4-0.6c-0.8-0.4-1.5-1.3-2.3-2.5
			c-0.7-1.3-1.9-3.2-3.5-5.9c-1.6-2.7-4.1-6.6-7.4-11.7l-5.2,4.8C124.9,69.7,125,73.5,125.2,77.5z"/>
		<path class="st2" d="M172.9,82.8c-6.2,0-10.8-1.7-13.8-5c-2.9-3.3-4.4-8.3-4.4-15c0-7.7,1.8-13.6,5.3-17.9
			c3.6-4.3,8.7-6.4,15.4-6.4c6.2,0,10.8,1.7,13.8,5c2.9,3.3,4.4,8.3,4.4,15c0,7.7-1.8,13.6-5.3,17.9
			C184.7,80.7,179.6,82.8,172.9,82.8z M174.5,77.1c3.3,0,5.7-1.2,7.1-3.7c1.5-2.5,2.2-6.3,2.2-11.4c0-5.9-0.8-10.3-2.3-13.2
			c-1.5-2.9-4.1-4.3-7.8-4.3c-3.3,0-5.7,1.2-7.1,3.7c-1.5,2.5-2.2,6.3-2.2,11.5c0,5.9,0.8,10.3,2.3,13.2
			C168.2,75.6,170.8,77.1,174.5,77.1z"/>
		<path class="st2" d="M207.9,44.4c2.8-1.9,5.7-3.3,8.4-4.2c2.8-0.9,5.3-1.3,7.4-1.3c3.8,0,6.7,0.9,8.6,2.7
			c1.9,1.8,2.9,5.1,2.9,10.1c0,15.5,0.2,23.7,0.7,24.6c0.4,0.9,1.5,1.4,3.1,1.3c0.3,0.8,0.5,1.7,0.5,2.5c0,0.8-0.2,1.3-0.7,1.6
			c-0.5,0.3-1.4,0.4-2.7,0.4c-4,0-6.4-0.1-7.3-0.2c-0.9-0.1-1.5-0.4-1.8-0.9c-0.3-0.5-0.5-1.3-0.5-2.5V59.8c0-5.9-0.6-9.9-1.9-11.8
			c-1.3-2-3.3-2.9-6.1-2.9c-2.4,0-4.5,0.7-6.2,2c-1.7,1.4-2.6,3.8-2.6,7.3v9.1c0,5.1,0.1,9.8,0.3,14.1h4.8c0.3,0.7,0.5,1.6,0.5,2.4
			c0,0.8-0.2,1.3-0.5,1.6c-0.3,0.3-0.9,0.4-1.8,0.4h-17c-0.4-0.9-0.6-1.8-0.6-2.6c0-0.6,0.2-1.1,0.5-1.4c0.3-0.3,0.8-0.5,1.6-0.5h3
			c0.2-4.6,0.3-10.2,0.3-16.8c0-8.5-0.3-13.4-1-14.8c-0.7-1.4-1.9-2-3.8-2c-0.4-0.8-0.6-1.6-0.6-2.5c0-0.8,0.3-1.3,0.9-1.5
			c0.6-0.2,4.4-0.4,11.4-0.7C208.1,40.6,208.1,42.3,207.9,44.4z"/>
		<path class="st2" d="M256,77.5h6.3c0.3,0.7,0.5,1.6,0.5,2.4c0,0.8-0.2,1.3-0.5,1.6c-0.3,0.3-0.9,0.4-1.8,0.4h-18.7
			c-0.4-0.9-0.6-1.8-0.6-2.6c0-0.6,0.2-1.1,0.5-1.4c0.3-0.3,0.8-0.5,1.6-0.5h3.2c0.2-4,0.3-8.7,0.3-14.1V44.8h-5c-0.3-1-0.5-2-0.5-3
			c0-0.7,0.2-1.2,0.5-1.6c0.3-0.3,0.8-0.5,1.6-0.5h3.5c0.1-7.2,1.5-12.2,4.4-15c2.8-2.8,7.3-4.2,13.4-4.2c3.5,0,6.1,0.3,7.9,0.9
			c1.8,0.6,2.7,1.6,2.7,3.2c0,1.4-0.6,2.8-1.8,4.4c-4.8-1.9-8.7-2.8-11.6-2.8c-2.5,0-4.2,0.8-5,2.5c-0.8,1.7-1.2,4.6-1.2,8.7v2.4
			h11.9c0.3,0.9,0.5,2,0.5,3c0,0.8-0.2,1.4-0.5,1.7c-0.3,0.3-0.9,0.4-1.9,0.4h-10.1v18.7C255.6,68.8,255.7,73.5,256,77.5z"/>
	</g>
</g>
</svg>
